<svg version="1" xmlns="http://www.w3.org/2000/svg" width="1738.667" height="1738.667" viewBox="0 0 1304.000000 1304.000000"><path d="M653.1 62.1C642 67.3 632.8 74 627.9 80.3c-2.2 2.9-5.1 6.4-6.4 8-1.4 1.5-2.5 3.7-2.5 4.9 0 1.2-1.4 4.5-3 7.5-3.2 5.6-8.9 25.3-11.4 39.3-.8 4.7-2.2 16.1-3.1 25.5-.9 9.3-2.1 17.3-2.7 17.6-2.1 1.3-14.7-4.3-22.6-10-6.4-4.7-8.2-8.3-8.2-16.4 0-3.7-.4-6.7-.8-6.7s-3.2 1.6-6.2 3.5c-6.4 4-7.1 4.2-9.5 1.5-1-1.1-2.7-2-3.7-2-1.1 0-3.1.9-4.5 2s-3.8 2-5.3 2-3.9.9-5.4 2.1c-2.4 1.9-2.6 2.7-2.6 9.1 0 10.4 1.8 19.4 4.6 22.7 2.4 2.8 9.2 17.6 12.4 26.8 1 2.8 3.2 7.8 4.9 11 8.1 15.6 10 20.7 11.2 30.3 1.3 11.2.6 21.7-2 27.4-2.3 5.2-13.3 15.5-21.1 19.8-3.3 1.8-6 3.8-6 4.5 0 1.5 2.4 2.8 6.9 3.7 6.4 1.2 6.6 2.4 1.3 7.5-5.8 5.6-12.1 13.9-15.5 20.6-1.4 2.8-5 12.7-8.1 22-5.9 17.6-11.6 28.9-16 31.9-1.4.9-3.2 2.9-4 4.4-2.3 4.6-4.7 15.9-5.6 26.6-.9 12.1 7.6-7.2-68 155.1-28.2 60.5-56.8 122.1-63.7 137-14.2 30.6-143.1 307.8-152.8 328.5-3.5 7.4-18.3 39.4-33 71s-27.5 59-28.6 60.8c-1 1.8-1.9 4.2-1.9 5.3 0 1.9 2 1.9 139.5 1.9H424l1-2.6c.6-1.4 1-3.7 1-5.2 0-6.7 1.8-7.9 39.2-27.1 31.5-16.1 35.9-18.7 41.1-23.8 12.2-12.1 17.8-24.3 18.5-40.5.4-8 .1-10.7-1.8-16.2-4.1-12.5-14.1-23-28-29.5-10.2-4.8-17.2-6.1-34.7-6.9-14.4-.7-16.4-1-18.5-2.8-9.8-8.8-57.8-49.3-59.5-50.2-1.4-.8-8.6-1.2-20.5-1.2-10.1 0-18.9-.4-19.7-.9-1.2-.8-1.5-4.7-1.5-21.1l-.1-20.2 3-2.4c6.6-5.2 54.7-37.6 58-39 2.7-1.1 9-1.4 29.4-1.4 16.1 0 26.2-.4 26.6-1 .3-.5-.5-2.5-1.9-4.3-1.4-1.8-3.8-6-5.3-9.2-2.7-5.7-2.8-6.7-2.9-21.6-.1-8.6-.4-17.2-.8-19.1-1.1-5.9-6.7-10-18.2-13.6-14.1-4.4-24.3-11.3-30.6-20.7-5.2-7.8-5.8-10.3-2.7-13.1 4-3.6 11.7-1.7 32.4 8.2 7.7 3.7 10.5 5.8 20.1 15.1 14 13.6 15.4 16.6 16.1 35.3.6 14.7 2.2 20.8 7.2 26.3 5.3 5.9 12 8.7 20.9 8.7 6.3 0 8.8-.6 18.7-4.5 17.2-6.8 25.3-7.8 39.9-5 10 1.9 18.6 6.1 26.5 12.9l6.5 5.6h17.5c9.7 0 18.2-.4 18.9-.8 1.8-1.2 6.9-66.4 8.1-103.9 1.3-38.2 1.7-81.6.7-83.1-.4-.7-3.3-1.2-7.4-1.2-7.6 0-35.7-2.4-47.7-4-11.1-1.6-11.3-1.9-13.3-17.6-2.1-17-2.4-77.7-.4-84.2 1.5-5 2.6-5.6 13.3-7.1 22.9-3.2 31.4-3.6 76.4-3.6 52.7 0 78.8 1.7 82.8 5.4.9.9 2.5 5 3.4 9.1 1.3 6.2 1.6 14 1.7 44.5.1 37.7-.5 45.7-3.9 48.5-1.2 1-34.1 5.8-53 7.7l-8 .8-.6 9.5c-1.1 15.2-1 66.1.1 97.5 1.2 33.7 4.2 79.4 5.3 81.2.6 1 13.7 1.3 59.8 1.3 32.4 0 58.9.3 59 .7 0 .5.2 3.7.3 7.3.2 3.6.4 7.5.5 8.7.1 2.1.6 2.3 5.5 2.3 5.8 0 7-.7 6-3.5-.4-1.1-1.4-1.5-2.7-1.1-1.5.4-1.7.2-.8-.7.6-.6 1.1-2 1.1-3 0-1.5-.5-1.8-2.6-1.4-2.4.4-2.4.3-1-1.1 1.4-1.4 1.9-1.4 5.1.1 4.1 1.9 7.1 2.2 8 .7.6-1-2.7-7-11.7-20.8-3.9-6.1-4-6.3-2.9-10.8 1.4-5.5.6-6.9-4.6-7.7-2-.4-4.5-1.5-5.7-2.5-1.2-1.1-4.4-2.7-7.2-3.6-5-1.6-5.3-1.6-16 1.3-26.1 7.1-28.8 8.1-40.8 15.1-6.5 3.9-12.8 7-14 7-1.1 0-4.3 1.4-7.1 3-5.6 3.3-9.6 3.8-11.6 1.4-1.1-1.4-.7-2 2.7-5 2.1-1.8 4.7-3.6 5.7-3.9 2.4-.9 2.2-3.4-.3-2.8-1.5.4-2 0-2-1.6s4.3-4.9 18.8-14.5c15.1-9.9 19.2-13.1 20.5-15.9 1-1.9 1.7-3.9 1.7-4.4 0-.5 1.6-2.9 3.6-5.2 3.7-4.2 15.6-12.6 39.2-27.5 15.7-9.9 25.9-17.6 37.1-27.5 8.5-7.7 8.9-8.2 13.6-19.2 5-11.4 9.9-19.1 14.7-22.9 10.1-7.9 23.5-8.3 34.3-1 1.7 1.1 7.1 3.4 12.2 5.1 8.6 2.8 17.3 7.8 17.3 9.8 0 1.4-1.9 1.8-12.5 2-10.9.3-15.5 1.7-17.9 5.3-.8 1.2-3.1 7.1-5 13-2.7 8.1-3.8 13.6-4.6 22.7-1.8 20.7-6.6 34.4-15.3 43.8-2.2 2.4-8 7.1-12.7 10.3-4.7 3.3-11.3 8.6-14.7 12-5 4.9-6.7 6.1-8.9 5.8-2.4-.3-2.8.3-5.1 6-2.6 6.3-2.6 6.3-.9 12.5 2.4 8.7 8.6 20.8 11.8 23.1 1.5 1 4.4 2 6.5 2.2 5.4.3 5.3.3 5.3 1.8 0 .8 1.7 2 3.8 2.6 2 .6 4.3 1.4 5.1 1.6 1.1.3.7 1.2-1.5 3.5-2.3 2.4-2.6 3.3-1.8 4.7 1 1.6 6.6 1.7 75 2.2l73.8.5 1.2 2.4c1.5 3-.1 7.9-5.7 17.3-13.6 23-37.4 43.5-66.9 57.7-30.7 14.7-64.5 22.4-108.2 24.7-7.5.4-14.1 1-14.8 1.4-.6.4-1.1 3.1-1.2 6.1 0 9 .1 8.9-8.2 8.9-9 0-9.9.8-10.4 9.6-.6 8.6 1.5 13.9 7.6 19.6 6.1 5.7 12.1 9.1 20.5 11.7 16 4.9 24.8 3.7 46.6-6 17.1-7.7 43.9-16.7 53.6-17.9 14.7-1.9 33 2.1 44.3 9.5 18 12 31.9 36.3 33.7 59l.5 7-1.5-6.4c-6.2-27.3-19.8-46.7-39.2-56.1-20.7-10-44.7-7.3-68.8 7.9-9.3 5.9-27.1 14.6-35 17.1-9.9 3.1-25.8 3.8-35.9 1.6-10.2-2.3-22.3-8.5-29.4-15.1-9.6-8.9-14.2-19.6-14.2-33.1 0-4.8-.4-7.3-1.2-7.7-2.3-.8-13.7 1.2-21.5 3.8-9.3 3.2-16.7 7.9-23.2 15.1-6.6 7.2-9.3 14.3-9.9 26-.7 14.5 2.9 24.5 12.6 34.6 6.9 7.3 8.4 8.2 44.7 27.8 16.5 8.9 31 17.1 32.2 18.3 1.4 1.4 2.7 4.6 3.6 8.7l1.3 6.5 167.7.3c135.7.2 167.9 0 168.3-1.1.2-.7-4.1-11.4-9.7-23.7-5.5-12.4-14.7-32.9-20.4-45.5-5.7-12.7-15.6-34.7-22-49-16.5-36.6-18-40.3-19.5-46.5-.7-3-2.8-8.4-4.7-12-3.8-7.2-3.7-6.5-.3-24 2.7-13.9 3.4-27.1 4.5-86.5.4-17.1 1.1-32.6 1.6-34.5 1.9-7.4.2-27.5-4-45.2-2.9-12.4-9.6-31.5-12.5-35.7-1.4-2-3.4-6.1-4.4-9.1-1.1-3-2.9-7.1-4.1-9-3-5-2.8-6.8.9-6.2 3.5.5 3.7-.2 1.5-7.4-.8-2.8-3.4-7.6-5.7-10.7-7.1-9.4-10.6-15.3-11.8-19.5-.5-2.2-2.7-6-4.7-8.4-2-2.4-8.1-10.4-13.6-17.8s-11.5-15.1-13.3-17c-1.9-1.9-7.4-8-12.3-13.5-13.9-15.7-28.8-29.1-43.1-38.6-9.2-6.1-12-9.6-12-14.7 0-1.1-1.3-5.9-2.9-10.8-1.6-4.9-3.3-11.7-3.7-15.2-.6-5.8-.5-6.2 1.4-6.2 1.2 0 2.3-.4 2.6-.9 1.3-2.1-33.8-38-48.8-50-10-7.9-24.3-16.7-34.1-20.9-4.4-1.9-9-4.4-10.2-5.6-2-2-6.8-12.2-29.6-63.5l-9.6-21.3 2.9-2.4c3.4-2.9 4.7-2.9 13-.3 4.8 1.6 9.9 2.2 19.5 2.6l13 .4 8-4.3c7.2-3.9 8-4.6 8.3-7.5.5-5.2-5.3-15.1-15.9-27.1-4.9-5.5-8.1-11.1-18.1-31.1-9.8-19.8-13.1-25.4-16.8-29-8.6-8.5-14.1-12.4-19.3-13.8-2.8-.7-5.4-1.6-5.9-2.1-.4-.4-2.1-7.5-3.7-15.7-3.5-17.5-16.8-60-21.7-69.5-3-5.7-6.6-11.9-13.1-22.5-1.3-2.1-3.2-3.3-6.7-4.3-5.3-1.5-25.1-12.8-27.7-15.8-2.9-3.4-10.6-18.8-11.7-23.4-.6-2.5-2-7.7-3.1-11.5-1.1-3.9-2.8-11.1-3.9-16-3.1-14.3-8.2-32.6-10.3-37.2-1.1-2.3-3.1-8.3-4.5-13.5-4.2-16.1-7-17.5-21.3-10.7z"/></svg>