<?xml version="1.0" encoding="utf-8"?>
<!-- Generator: Adobe Illustrator 22.1.0, SVG Export Plug-In . SVG Version: 6.00 Build 0)  -->
<svg version="1.1" xmlns="http://www.w3.org/2000/svg" xmlns:xlink="http://www.w3.org/1999/xlink" x="0px" y="0px"
	 viewBox="0 0 1190.6 841.9" style="enable-background:new 0 0 1190.6 841.9;" xml:space="preserve">
<style type="text/css">
	.st0{display:none;}
	.st1{display:inline;fill:#FFFFFF;stroke:#000000;stroke-miterlimit:10;}
	.st2{display:inline;}
	.st3{display:inline;fill:none;stroke:#000000;stroke-width:48;stroke-miterlimit:10;}
	.st4{display:inline;fill:none;stroke:#E30613;stroke-width:48;stroke-miterlimit:10;}
	.st5{fill:none;stroke:#000000;stroke-width:80;stroke-miterlimit:10;}
	.st6{fill:none;stroke:#E30613;stroke-width:80;stroke-miterlimit:10;}
</style>
<g id="Capa_1" class="st0">
	<circle class="st1" cx="595.3" cy="420.9" r="228.7"/>
	<polygon class="st1" points="595.3,192.5 378.8,349.8 461.5,604.3 729.1,604.3 811.8,349.8 	"/>
</g>
<g id="Capa_2" class="st0">
	<g class="st2">
		<g>
			<g>
				<g>
					<g>
						<path d="M466.7,604.1c-0.3,0.6,0.5,0.7,0.6,0.8C467.6,603.9,466.5,604,466.7,604.1z"/>
						<polygon points="469.3,593.7 469.5,594 469.4,592.2 						"/>
						<path d="M473.3,584.6c-1.7,0.3-1.2,3.4-2.4,4.8l-0.4,0.1l0.7,1.2C471.9,588.7,472.3,585.8,473.3,584.6z"/>
						<path d="M478.3,581c-0.6,0.1,0-1.2-0.7,1.1c0.1-0.1,0.1-0.1,0.2-0.1C477.9,581.7,478,581.4,478.3,581z"/>
						<path d="M477.8,581.9C477.4,582.9,478.5,581.5,477.8,581.9L477.8,581.9z"/>
						<path d="M479.5,577.4l-0.1,1.5c0.4-0.1,1-1.2,1-0.7C480.7,576.7,480.3,576.8,479.5,577.4z"/>
						<path d="M479,575.7l-0.1,0.7C479.1,576.4,479.2,576.3,479,575.7z"/>
						<path d="M478.7,578.1l0.2-1.6c-0.3,0.1-0.7-0.1-0.1,0.7C478.5,576.9,478.7,577.3,478.7,578.1z"/>
						<path d="M478.2,578.7c-0.6,0.6-1.2,1.4-1.1,0C476.3,581.2,477.3,581.2,478.2,578.7z"/>
						<path d="M472.2,583.5l-0.8,0.8l0.1,1C471.4,584.8,472.6,583.7,472.2,583.5z"/>
						<path d="M483.5,569.8c-0.2-0.2-0.9,0.1-1.3,0l-0.1,1.1C482.5,570.5,483.1,569.7,483.5,569.8z"/>
						<path d="M482.2,569.8l0.1-1.6C481.7,569.4,481.9,569.8,482.2,569.8z"/>
						<polygon points="477.7,574.9 477.7,577.6 477.8,574.4 						"/>
						<polygon points="485.8,564.4 486.2,565.5 485.8,563.7 						"/>
						<path d="M487.2,560.9c0.3,0.8,1.2-0.4,1.3,0.3c0.3-1,0.2-2,0.1-2.9C488.6,559.1,488.1,560,487.2,560.9z"/>
						<path d="M488.6,556.8c0,0.4,0,1,0.1,1.5C488.7,557.8,488.7,557.3,488.6,556.8z"/>
						<path d="M483.5,565.9c0.2,0,0.7-0.1,1.3-0.8l-1,0.2C483.7,565.5,483.6,565.7,483.5,565.9z"/>
						<path d="M483.7,565.4L483.7,565.4c0.3-0.6,0.5-1,0.6-1.2C484.2,564.3,484,564.7,483.7,565.4z"/>
						<path d="M483.4,566c0-0.1,0-0.1,0.1-0.1C483.4,565.9,483.3,565.9,483.4,566z"/>
						<path d="M480,571.5c-0.1-1,0.2-2.9-1.2-1.6C479,570.8,479.8,570,480,571.5z"/>
						<path d="M482.2,566.3l-0.8,1.4c0.2,0.1,0.6-0.1,0.7,0.4L482.2,566.3z"/>
						<polygon points="482.2,565.5 482.2,566.3 482.5,565.8 						"/>
						<path d="M486.8,559c-0.1-0.8,0.2-1.5,0.5-2.3c-0.5,0.8-1,1.6-1.3,2.5C486.1,559.4,486.4,559.9,486.8,559z"/>
						<path d="M485.2,562.1c0-0.1,0-0.1,0-0.2C485.1,562,485.1,562,485.2,562.1z"/>
						<path d="M490.5,548.8c-0.1,0-0.1,0-0.2,0.1c0,0,0.1,0.1,0.1,0.1L490.5,548.8z"/>
						<path d="M485.7,559.2c-0.4,0.6-0.4,1-0.3,1.5c0.1-0.5,0.3-1,0.5-1.6C485.8,559,485.8,559,485.7,559.2z"/>
						<path d="M489.1,554.4c-0.3,0.3-0.6,0.6-0.9,0.9C488.6,555.1,489.3,554.6,489.1,554.4z"/>
						<path d="M485.5,561.8c0,0,0,0.1,0,0.1C485.8,561.7,485.7,561.7,485.5,561.8z"/>
						<path d="M485.5,561.8c0-0.4-0.1-0.7-0.1-1.1c-0.1,0.4-0.2,0.8-0.2,1.2C485.3,561.8,485.4,561.8,485.5,561.8z"/>
						<path d="M486.4,544.4c0.7,0.4,0.7,2.4-0.7,3.5c0,1.7,2.7,1.7,4.6,1c-0.3-0.2-0.6-0.3-0.4-2c-0.6,0.4-2.3,2.9-2.4,1.4
							c0.4-2.1,0.9-1.5,1.7-2.3c-1.2,0.4-0.3-3-1.8-3.2l-0.2,1.9C486.9,544.7,486.8,544,486.4,544.4z"/>
						<path d="M489.1,551.7l-0.2,0.6c0.4-0.6,0.9-1,1.9-1.7c0.1-1.2-0.1-1.5-0.3-1.7l-1.3,2.9L489.1,551.7z"/>
						<path d="M487.8,555.1c-0.6-0.8-0.3-2.4-1.6-1.9c-0.7,1.8,0.1,1.5,0,2.7c1-2.9,0.1,1,1.4-0.9c-0.1,0.6-0.3,1.1-0.4,1.6
							c0.3-0.5,0.6-0.9,1-1.3c0,0-0.1,0-0.1,0l0,0l0,0c-0.2,0.1-0.2,0.1-0.1,0c0,0,0-0.1,0-0.1C487.9,555.2,487.9,555.1,487.8,555.1
							c0.5-0.8,0.3,0,0.3,0.3c0,0,0.1,0.1,0.1,0.1l0,0l0.8-3.1C488.6,552.9,488.3,553.7,487.8,555.1z"/>
						<path d="M477.7,567.7c0.1-0.1,0.2,0,0.2,0C477.9,567.5,477.9,567.4,477.7,567.7z"/>
						<path d="M478.7,566.8c0,0.3,0.3,0.6-0.1,1.2c-0.5,0.5-0.4-0.2-0.7-0.2c0,0.5,0,1.7,0.9,0.6l0-0.2c0.8-1,2.4-2.1,2.4-1.8
							C480.4,566.2,479.7,566.3,478.7,566.8z"/>
						<path d="M483.1,560.7l0.6-2.5l-1.2,0.9l0.4,0.1C482.2,560.5,482.8,560.4,483.1,560.7z"/>
						<polygon points="491,548.7 491.7,549.4 491.1,547.5 						"/>
						<polygon points="492.2,545.6 492.9,546 492.8,545 						"/>
						<path d="M546.9,363.6l0-0.8C546.9,363.2,546.9,363.5,546.9,363.6z"/>
						<path d="M545.2,368.9l0.3,0.2C545.4,368.8,545.3,368.7,545.2,368.9z"/>
						<path d="M522.2,468.4c1.1-0.8,2.6-1.6,1.7-1.7l-0.9,0C522.8,467.4,522.5,468,522.2,468.4z"/>
						<path d="M535.9,413.2c-0.1,0.1-0.2,0.1-0.4,0.2c0.2,0.3,0.4,0.7,0.6,1C536,414,536,413.6,535.9,413.2z"/>
						<path d="M532.7,411.3l1-1.2C533.4,410.4,533.1,410.7,532.7,411.3z"/>
						<path d="M554.5,334.6l-0.6-1.1C553.6,334.9,554.1,334.4,554.5,334.6z"/>
						<path d="M504.8,513.4c0.7-0.8,1.1-1.4,1.4-2C505.3,512.3,504.3,512.9,504.8,513.4z"/>
						<path d="M555.1,368.4c0-0.5-0.1-0.7-0.3-0.8C554.8,368.1,554.8,368.4,555.1,368.4z"/>
						<path d="M507.2,508.8c-0.1,0.1-0.2,0.3-0.4,0.4c-0.1,0.7-0.3,1.4-0.6,2.2C506.9,510.7,507.4,509.9,507.2,508.8z"/>
						<path d="M582.3,229.5c0.1-0.1,0.1-0.2,0.2-0.2C582.4,229.2,582.3,229.3,582.3,229.5z"/>
						<path d="M597.7,200.3c0,0.3-0.1,0.8-0.2,1.3C597.6,201.4,597.7,201,597.7,200.3z"/>
						<path d="M497.7,533.2C497.5,533.8,497.8,533.3,497.7,533.2L497.7,533.2z"/>
						<path d="M493.2,535.1c0-0.2-0.1-0.3-0.3-0.4C493.1,534.8,493.2,534.9,493.2,535.1z"/>
						<path d="M504.7,500.2C504.8,500.2,504.8,500.2,504.7,500.2C504.5,500.3,504.6,500.3,504.7,500.2z"/>
						<path d="M496.9,534c0.2-0.2,0.4-0.5,0.6-0.7C497.4,533.4,497.2,533.6,496.9,534z"/>
						<path d="M497.4,534c-0.1,0.2-0.2,0.4-0.3,0.5C497.2,534.7,497.3,534.7,497.4,534z"/>
						<path d="M498,532.2c-0.1,0.4-0.3,0.7-0.5,1c0.1-0.1,0.2-0.1,0.2-0.1C497.8,533,497.9,532.7,498,532.2z"/>
						<path d="M570.8,286.7c0,0,0.1-0.1,0.1-0.1C570.7,285.8,570.7,286.1,570.8,286.7z"/>
						<path d="M520,447.9C520,447.9,520,447.9,520,447.9C520,447.9,520,447.9,520,447.9L520,447.9z"/>
						<path d="M520.2,445.2c0.7,1.4,0.3,1.9-0.2,2.6l2.6,0L520.2,445.2z"/>
						<path d="M550.4,351l-1.3,1.5c-0.6-2.4,0.3-3.8-1.3-2.5c2.5,1-1.7,6.8,0.8,7.8l-0.9,1c0.1-0.3,0-0.4,0.1-0.7
							c-1.9,1.8,1.4,2.2,0.2,4.9c-0.5,0.9-1.1,1.5-1.2,0.7l0,2.4c-0.2,0.6-0.6,0.3-0.4-0.3l-0.8,3.4l-0.1,0c0.3,0.6,0.6,1.9,0.7,2.5
							c-0.6,0.7-0.1-0.5-0.5-0.4l0.1,2.1c-0.9,0.5-1.1-1.2-0.6-2.4c-3.1,0.9,0.2,1.7-2.5,5l0.2-1.9c-1.8,0.7-1.7,2.2-3.3,3.9
							c0.6-0.3,3.6-3.2,3.6-1c-0.4,0.5-0.7,1.2-0.5,2.5c-0.9-0.3-1,0.9-1.4,2.2l-1.2-0.5c-0.1,1.5,0.6,1.6,0.8,2.6
							c-0.6,1.6-1.7,1.6-2.6,1.7c-1,2.5,2.1-1.3,1.3,1.8c-1.1,2-1.1,3.6-1.2,6.4c-0.9,1.4-0.7-0.5-1.2-0.1l0.5,1.6
							c-0.1,0.3-0.4,0.1-0.5,0c0,1.2,1.2,0.5,1,2.3c1.2,0.9-3.1,3-2.3,5.6c-0.5,0.4-0.7-0.5-1.2-0.5c0,3.3-0.1,2.8,0.4,5.6l-1.5,1.8
							c1.4-1.2,1.9,1.1,2.2,3.1c0.6-0.4,1.2-0.7,1.4-1l-0.3,2.9c-0.3,0.3-0.6-0.2-1-0.8c0,0.2,0.1,0.4,0.1,0.6
							c-0.8,0.8-1.3,0.1-1.8-0.8c0.3-0.3,0.7-0.5,1.1-0.7c-0.5-0.9-1.1-1.8-1.9-1.9c0.1,0.2,0.1,0.6,0,1c-0.1-0.2-0.3-0.4-0.4-0.4
							c-0.2,0,0,0.4,0.2,1l-1.6,0.2l0.5,0.3l-2,3.3c0.5,3,1.8,5.9,0.9,10.1c-0.6-1.3-1.5-0.8-2.7-1.2c1.6-0.7,0.5-3.3,1.5-5.3
							c-0.5,1-1,0.6-1.1,0.3l-0.1,4.1c-0.9-0.4-1,0.5-1.7,1.4c2.1-0.1,0.3,3.2,0.4,4.9c-0.7-0.1-1.2-0.7-0.4-2.5
							c-2.1,1.5,1.3,3.4-0.6,5c0.1-0.5,0.3-0.7,0.1-1c0.2,1.2-1.1,3.7-1.5,2.9l0.1-0.5c-1.3,2.9-3.2,9.1-1.7,10.1
							c-0.2,0-1.8-1.1-2.1-1.4l3.5,7.2c-1.2-1-5.1-0.3-5-3.1c-0.4,0.6-1,1.4-1,3.1c0.4-0.4,2.4-0.5,2.3,0.2c-2.2,1.3-1.3,1-3.4,2.7
							c0.6-0.6,2.4,1,1.9,2.1c-0.3-0.3-2.2-0.7-2.2-1.2l1.1,3.6c-0.1-0.8-1.7-0.8-2.6-0.3c0.5-0.1-0.9,2.5-1,3.3l0.9-1
							c-1.5,3.1,1.8,4.3,0.5,7.4c-0.3-0.5-2.3-1.9-3.2-0.4c0.8,1.1,4,5.2,3.8,8.3l-0.8,0.3l-0.1,2.4c-1.1-1.9-3.1-7-3.7-9.5
							c-0.9,1-0.9,0.1-1.5,1.9c-0.8,0.4-0.5-1.3-0.4-1.8l-1.9,4c1.3,0.3,0.1,3.7,1.2,3.9l0.4-5c1.3,0.3,2.6,4,1.3,6.8
							c-0.8,0.6-2-1.4-2.5-1.5c0.3,0.5-0.2,3.1-0.6,3.3l-0.2-1.5c-1.1,1.5,0.7,3.3-1.3,4.8c-0.3,0.7-2.4,1.4-1.7,1.8
							c1.9-0.6,6.4,0.9,7.2,2c-0.2,0.2-2.7,3.1-3.7,3.6c-1.6,0.7-2-2.7-3.4-2.1c0.3,0.2,0.5,1,0.6,1.3c-0.6,0.6-1-0.7-1.4,0.9
							c1.2,0.7-1.3,3.1,0.8,1.1c-0.2,1.7-0.9,1.5-1.5,3.3c1-0.3,2.2,2.7,2,4.3c-0.3-0.2-0.8,0-1.1,0.1c-1.3,3.1-2.6,4.5-3.7,7.4
							c-0.4,0.1-1.3,1.4-1.6,0.6c0.1,0.5,0.3,1.1,0,2c-1.8,1.3,0.6-2.1-1.2-1.3c0.7,0.4,0.1,2.7,0.1,4.2c1.3,0.1,1.4-2.9,1.4-4.3
							c1.6,0.6,2.3,3.5,1.9,6.8c-0.6,2.6-1.4,0.6-1.4,1.2c-2.1,4.4,1.2,4.9-1.4,8.3c-1.6,1.1-2-0.7-2.9-0.7c0.4-2.1,1.8-2.8,2.3-4.1
							l-1.1,1.4c-0.1-0.8,0.2-2.2,0.8-2.8c-1.4,0.9-3.2,7.6-5.5,10.7c0.1,0.8,0,2,0.6,1.6l0.3-1.2c1.2-0.7,0.3,2.5,1.2,1.3
							c0,1.7,0.2,3.7-1.1,5.6l-1.3-0.1c0.3,0.1,1.2-1.1,1.1-1.8c0.1,1.1-2.8,2.6-1.7,4.1l1.4-1.1c0,1.7,0.4,4.1-0.7,5.7
							c1.5-0.4,0.1-0.5,1.9-1.2c-2.1,0.5,2-4.7-0.5-3.6c2.1-0.7,1.6-2.1,3.6-3.3c-0.4-0.1-1,0.3-0.2-1.1c-0.1-0.1-0.2-0.3-0.2-0.5
							c0,0,0-0.1,0.1-0.1c0,0-0.1,0-0.1,0.1c0-0.1,0-0.1,0,0c-0.3,0.3-0.6,0.5-0.9,0.6c-0.5-1.1,0.5-3.6,0.4-4.6
							c0.6-0.8,0.3,0.6,0.9,0.2l-0.2-1.5c0.9,0.2,2.4-1.9,2,0.5l0.8-1.9c0.9-1,1.7-2.5,1.8-3.6c0.5-0.9,0-2.7,0.3-1.6l0.7-3.3
							l0.2,0.1c1.3-3,1.1-6.8,3.9-9.7c0.2-1.1,0.3-2.3,1.2-3.9l0.9-0.1c0.3-1.4,2.2-3.7,1.7-4.5c2.5-0.7,2.9-6.2,4.1-8.4l-0.9-0.4
							c0.7-1.6,1-3.2,1.3-5.3l-0.9-0.2c-0.1-2,2.2-4.2,3.2-6.9c0.3,0.3-0.1,1-0.5,1.4c3.1-2.5,1.2-7.3,3.6-9.8
							c0-0.8,0.3-1.3,0.7-1.8c0,0.1,0,0.1,0,0.2c0-0.1,0.1-0.2,0.1-0.3c0.3-0.3,0.6-0.5,0.8-0.9c-0.3,0.2-0.6,0.5-0.8,0.7
							c0.2-0.6,0.4-1.5,0.5-2.4l1,0c0-0.1,0-0.1,0-0.2c0.6-0.7-0.2-0.8-1-0.6c0-0.5,0-0.9-0.1-1.3c1.7-0.1,0.3-2.4,2.2-2.7
							c-0.6-0.8,0.9-4.4-0.5-5.5c0.2,0,0.4-0.2,0.3,0.3c0.5-0.9,1-1.7,0.9-2.7l1.3,0l-0.8-2.6c1.1-1,1.7-1.4,2.2,0.2
							c-0.3-3.5,0.4-2.6-0.1-5.6l0.7,0.4c0.3-0.9-0.2-2.7,0.6-3.1c2.1-1.5,3.7-10,6.8-14.8c-2.6,0.3,1.8-2.1,0.2-2.9
							c0.6-0.1,1.2-0.8,1.3,0.2c0.4-2.8,2.2-3.7,1.4-6.1c0.6-0.1,0.6,0.8,1,0.7c0-0.3-0.2-1,0.2-1.2c0.4-0.2,0.3,0.5,0.4,1
							c0.8-2.8-0.7-3.6-2.1-4.3c1.2-1.1,1.3-1.9,0.6-3.2c0.7-0.3,1.4-1,1.1,0.8c0.4-0.9,2.7-5.6,1.5-6.1c0.4-0.2,0.5-1.3,0.5-1.6
							c0.8-2.1,0.9-2.3,1.5-4.4l-0.4,0.5c-1.2-1.3,0.2-1.9,0.6-3.6l0.1,0.1c2.3-3.6,0-1.8,2.5-5.3l-1-0.1c-1.9-1,2.3-3,2.2-5.5
							l-0.8,0.6c-0.3-1.4,3.7-2.6,4.4-3.7c0.3-0.2,0.1,0.5,0.2,0.9c2.2-2.9-1.1-0.8-0.6-3.3c0.8-0.2,1.5,1.1,2.1-0.5
							c0.8-0.6-0.6-5.3,1.3-7.2c-0.6,0.3-1.3,0.7-1.3-0.6c0.3-1.8,3.3-4,2.2-6.1c0.2-0.2,0.4-0.2,0.5-0.2c0-1.4,0.6-4.5,0-5.5
							c3.5-0.3,0.9-8.6,3.8-7.7l1-4.1l0.3,0.2c0.9-2.5,0.5-3.6,0.1-4.8c0.4-0.5,0.5,0,0.7,0.1c1.7-3.6,1.7-4,1.1-7.6l1-0.1
							c-0.3-1,3-5,3-9.1c0.1,0.1,0.3,0.2,0.3,0.5c0.1-4.5,5.4-9.3,2.4-11.8l-0.1-3c-1.3,3.5-1.4-0.9-2.3,0.4
							c0.2-1.5,2.1-3.3,1.8-1.6l-0.2,0.2c1.6,1.1,1.9-4.3,3.1-3.8c0.9-3.5,2.1-6.9,3.2-10.3c1.2-3.4,2.3-6.7,3.2-9.9l-1.6,0.4
							l0.7-2.3c0.5-0.5,1.3-0.5,0.8,1.1c1-0.7,0-2.9-0.3-3.1c1.4-3.1,1.3,1.7,1.6,0.7l0.2-1.4l-0.2,0.3c-0.3-1.2-0.9-1.5-0.3-3.4
							c0.6-1.2,1-0.4,1.2-0.9c0.1,0,0.2-0.1,0.2-0.7l0.9-2.9l-1.4,0.9c-0.2-1.4,0.8-2.7-0.9-1.7c2.5-1.5,3.4-10.7,4.3-11.7
							c-0.4-2,0.1-3.8,0.7-6c-0.4,0.5-1.7,0.5-1.1-1.4c2.4,1.3,2-3.2,4.2-4.3c-1.6,1.1,1-5.5-1.3-3.8c0.6-1.5,1,0.1,1.9-0.9
							c-0.1-4,2.6-8.2,3.4-13c-0.3-0.2-1,0.5-1.3-0.6l2.3-2.1c0-1-1.8-1.3-0.2-2.7c-0.3,0.2-0.9,0.4-0.8-0.2
							c3.8-8.8,2.8-19.1,8-27.8c-0.9,1.1-0.8,0.3-0.6-0.7c-0.3,0.6-0.8-0.2-1.3-0.2l2.1-3.7c-1.1-1,0.8-4.2-0.4-4.9l0,1.3
							c-1.1-2-3.7,1.6-5.6,1c1.3,2.2-3.5,4.4-1.7,7.9c-0.5,0.6-0.5-0.7-1-0.4c0.6,0.9,0.6,1.9-0.1,3.5l-0.2-0.2
							c-0.8,4.9-2.1,6.8-3.8,12l1-0.2c-0.4,1.1-0.7,1.3-1.1,1.8c1.1,1.6,0.8-3.2,2.1-1.7c-2.2,1.1-1.8,8.2-4.2,8.7
							c-0.4,1.8,1.2-0.3,0.8,1.5l-0.7,0.3l0.6,0.6c-0.4,1.1-1.2,1.6-1.7,1.5c0.1-0.3,0-0.8,0.1-1.2c-1,1.4-0.7,4.3-1.1,4.8l0.7-1.6
							c-0.6,5-2.7,10.8-2.7,15.7l0.5-0.3c-0.1,3.8-1.2,2.8-1.7,6.8l-0.1-0.2c0.2,0.9,0.2,2-0.1,3.1c-0.3-1.1-1.4,1.6-1.7,0.2
							c-0.1,4.1,0.2,2.1,1.2,5l-0.9,0.4c0.4,1,0.8,1.2,0.5,3.2c-0.2-1.8-1.4,1-1.8-1c-2.6,3.7,0.1,6.5-2.7,7.8
							c1.5,2.4,2-3.3,2.2-2.1c0.9-0.7,1.1,1.9,0.6,3.2c-0.4,1.3-3.1,1.6-3.9,4.9c0.1-0.3-0.1-0.4,0-0.7c-0.8,1.1,0.1,2.6-1.1,3.9
							c1,1.2-0.6,2,0.9,2.6l0.4-3.1c0,1.8,1.3,3.9-0.3,6.5c-0.3-0.3-0.4-1.2-0.5-1.9c-0.7,0.7-0.1,1.7-0.8,2.4
							c-1.5-0.6,0.6-3.8-0.1-5.9c-0.9,0.7,0.2,3.8-1.2,2.4c1.8,1.9-1.1,3.2-0.1,5.8l-0.9-0.4c0.1,0.4,0.3,1.2,0.1,1.9l-0.9-1.5
							c0.5,2.1-1.8,3.2-1.7,5.1c0.9-3.6,1.3-0.5,2.4-1.9c0.1,4.8-3.1,1.9-4,7.1c0.1-0.7,1.2-2.4,1.4-1.2c-0.4,0.9-1.1,2.1-1.8,2.5
							c-0.7,3.4,1.1-0.3,1.3,1.3c-1.4,0.8,0,1.8,0,3.3l-0.9-0.2c-1.6,3.6,1.7,1.5,0,4.7l-0.9-1.8l-0.2,1.9l-1-0.7
							c0.3,2.1-0.1,2.7-0.9,4.5c0.8-0.3,1.6,0.7,1.2,2.4c-0.9,1-0.7-0.9-1.2,1.5c-0.4-0.7-1-1.5,0.1-2.3c-0.3-0.2-0.4-0.7-0.7-0.9
							c-1,1-1,3-1.2,3.9c0.1-0.3,0.3-0.7,0.5-0.9l0.3,3.8c-0.5,0.4-0.7-0.1-0.8-0.6c-0.1,0.7,0.2,1.3,0,2.4
							c-0.7-0.5-1.5-0.6-1.4-2.2l-0.1,3.5c-0.4,0.1-1.4,1.4-1.5,0.9c-1,1.7,0.2,4.9-1.1,7.1c0.1,0.2,0.2,0.5,0.1,1
							c-0.8,2.2-2.3,3.9-2.1,6.9l-1.8,1.1c-0.3,2.2,2.3-1.5,1.8,2.1c-0.3,2.6-1.4,0.6-2,1.3c0.3,1.4,1.1,4-0.7,5.9
							C550,352.2,550.3,351.7,550.4,351z M543.2,376.8c0-0.6-0.3-1.7,0.3-1.9C544.5,375.8,543.8,376.1,543.2,376.8z M532.9,416.4
							c-0.2-0.5,0.2-1,0.7-1.5C533.5,415.3,533.3,415.9,532.9,416.4z M499.9,525.6C499.9,525.6,499.9,525.6,499.9,525.6
							C500.7,524.6,500.4,524.9,499.9,525.6z M498.6,527.7c0,0.3,0.2,0.3,0.3,0.3c-0.2-0.2,0-0.8,0.3-1.3
							C499,526.7,498.7,526.9,498.6,527.7z M579,280.9l-0.4,0.4C578.6,280.2,578.8,280.6,579,280.9z"/>
						<path d="M533.1,411.5c0.2-0.1,0.4-0.1,0.6,0C533.6,411.3,533.4,411.2,533.1,411.5z"/>
						<path d="M554.6,334.8C554.7,334.8,554.7,334.8,554.6,334.8c0-0.1-0.1-0.2-0.1-0.2L554.6,334.8z"/>
						<path d="M504.6,489.9c0.3-0.4,0.6-0.6,0.8-0.7C505.2,489.1,505,489.2,504.6,489.9z"/>
						<path d="M495.3,540.2l0.4-1.5c-0.2,0.7-0.5,0.9-0.8,1.2C495.1,539.9,495.5,539.7,495.3,540.2z"/>
						<path d="M484.7,550.3c0,0.3-0.2,0.4-0.1,0.7l0.4,0.1C485.3,550.2,485.2,549.5,484.7,550.3z"/>
						<path d="M491.8,540.3c-0.8-0.2-0.9,0.8-1.2,1.9c0-0.1,0-0.1,0.1-0.2C491.6,542.7,491.7,541.5,491.8,540.3z"/>
						<path d="M490.6,542.4c-0.1,0.3-0.2,0.6-0.4,0.9C490.6,543.6,490.4,543,490.6,542.4z"/>
						<path d="M498,530.7c-0.4,0.4,0.8,0.7,0.4,0.8C499.2,532.5,498.5,527.9,498,530.7z"/>
						<polygon points="489,540.1 490.1,540.1 489.6,539.2 						"/>
						<path d="M492.9,532.5l-0.9,1.5c0.2,0,0.2,0.3,0.1,0.6C492.6,533.5,493.2,532.5,492.9,532.5z"/>
						<path d="M492.1,534.5c-0.2,0.5-0.4,1-0.4,1.4C491.9,535.6,492.1,535,492.1,534.5z"/>
						<polygon points="489.6,537.8 490,537.4 490.5,536.3 						"/>
						<path d="M500,515.3l0.4-1.9c-0.2-0.3-0.6,0.1-0.8,0.8C499.7,514.7,499.6,515.4,500,515.3z"/>
						<path d="M495.4,519.5c0.4-0.4,0.6-0.3,1-0.5l-1.1-0.5L495.4,519.5z"/>
						<path d="M497.1,514.3c-0.3-0.3,0.1-2.9-0.7-0.7C496.7,514,496.2,515.8,497.1,514.3z"/>
						<polygon points="508.9,488.4 508.7,488.8 510.6,489.5 						"/>
						<path d="M513,463.2c-1.2,1.9,1,0.9-0.3,2.6c0.3,0.7,1-1.4,1.2-0.7C513.9,463.6,514.5,463.1,513,463.2z"/>
						<path d="M514,465.1c0,0.2,0,0.5,0.1,0.8C514,465.4,514,465.2,514,465.1z"/>
						<polygon points="599.8,195.4 600.5,194.1 599.7,194.8 						"/>
						<path d="M598.9,192.4l1.3-0.1l-1-1.1C599.3,191.6,599.3,192.2,598.9,192.4z"/>
						<path d="M539.5,379.8l0.3,0.2c0.4-0.1,0.5-0.4,0.8-1L539.5,379.8z"/>
						<polygon points="546.2,361.5 546.1,361.9 547.4,361.6 						"/>
						<path d="M549.4,345.5c-0.2,0.6-0.2,1.5-0.4,2.1C549.2,346.1,550.9,345.7,549.4,345.5z"/>
					</g>
				</g>
			</g>
		</g>
	</g>
	<g class="st2">
		<g>
			<g>
				<g>
					<g>
						<path d="M733.7,605.7c0.1,0.6,0.8,0.2,1,0.3C734.2,605,733.5,605.8,733.7,605.7z"/>
						<polygon points="729.1,596 729.5,596.1 728.3,594.8 						"/>
						<path d="M726.6,586.4c-1.1,1.3,1.2,3.4,1.1,5.3l-0.2,0.4l1.3,0.5C728,590.5,726.6,588,726.6,586.4z"/>
						<path d="M728.2,580.5c-0.5,0.5-0.8-1,0.2,1.2c0-0.1,0.1-0.2,0.1-0.3C728.3,581.3,728.3,581,728.2,580.5z"/>
						<path d="M728.4,581.5C728.7,582.5,728.7,580.7,728.4,581.5L728.4,581.5z"/>
						<path d="M726.8,576.9l0.8,1.2c0.2-0.4,0-1.6,0.3-1.2C727.4,575.6,727.1,576,726.8,576.9z"/>
						<path d="M725.5,575.9l0.4,0.6C726,576.4,726,576.2,725.5,575.9z"/>
						<path d="M726.7,577.9l-0.8-1.3c-0.2,0.3-0.6,0.4,0.3,0.6C725.8,577.2,726.2,577.3,726.7,577.9z"/>
						<path d="M726.7,578.8c-0.1,0.8,0,1.8-0.9,0.6C726.7,581.9,727.6,581.2,726.7,578.8z"/>
						<path d="M725,586.3l-0.1,1.1l0.7,0.7C725.2,587.8,725.4,586.1,725,586.3z"/>
						<path d="M725.3,568.4c-0.3,0-0.7,0.7-1,0.9l0.6,0.9C724.9,569.6,724.9,568.6,725.3,568.4z"/>
						<path d="M724.3,569.3l-0.9-1.3C723.7,569.3,724,569.4,724.3,569.3z"/>
						<polygon points="723.9,576.1 725.6,578.2 723.7,575.6 						"/>
						<polygon points="723.8,562.8 724.7,563.4 723.3,562.2 						"/>
						<path d="M722.6,559.1c0.7,0.5,0.7-1.1,1.2-0.6c-0.4-1-1.1-1.7-1.7-2.4C722.6,557,722.8,557.8,722.6,559.1z"/>
						<path d="M721.1,555.1c0.2,0.4,0.6,0.7,1,1.1C721.9,555.8,721.6,555.4,721.1,555.1z"/>
						<path d="M722.8,565.4c0.1-0.2,0.5-0.5,0.5-1.4l-0.7,0.8C722.7,565,722.8,565.2,722.8,565.4z"/>
						<path d="M722.7,564.9L722.7,564.9c-0.1-0.7-0.2-1.1-0.3-1.3C722.4,563.7,722.5,564.1,722.7,564.9z"/>
						<path d="M722.9,565.6c0-0.1,0-0.1,0-0.1C722.8,565.5,722.7,565.5,722.9,565.6z"/>
						<path d="M723.6,572c-0.7-0.7-1.7-2.4-1.9-0.5C722.4,572,722.5,570.9,723.6,572z"/>
						<path d="M722,566.6l0.2,1.6c0.2-0.1,0.4-0.5,0.8-0.1L722,566.6z"/>
						<polygon points="721.6,565.9 722,566.6 721.9,566 						"/>
						<path d="M721.1,557.9c-0.5-0.6-0.8-1.3-1.1-2.1c0.1,0.9,0.3,1.9,0.5,2.8C720.8,558.6,721.4,558.9,721.1,557.9z"/>
						<path d="M721.8,561.3c0,0-0.1-0.1-0.1-0.1C721.7,561.3,721.7,561.4,721.8,561.3z"/>
						<path d="M717.8,547.6c0,0.1-0.1,0.1-0.1,0.2c0.1,0,0.1,0,0.2,0L717.8,547.6z"/>
						<path d="M720.4,558.8c0,0.7,0.3,1.1,0.7,1.4c-0.2-0.5-0.4-1-0.6-1.6C720.4,558.6,720.3,558.6,720.4,558.8z"/>
						<path d="M720.1,552.9c-0.1,0.4-0.1,0.8-0.1,1.3C720.2,553.8,720.4,553,720.1,552.9z"/>
						<path d="M721.9,560.9C721.9,560.9,721.9,561,721.9,560.9C722.1,560.7,722,560.8,721.9,560.9z"/>
						<path d="M721.9,560.9c-0.2-0.3-0.5-0.5-0.7-0.7c0.2,0.4,0.4,0.7,0.6,1C721.7,561.1,721.8,561,721.9,560.9z"/>
						<path d="M711.8,546.7c0.8-0.1,2,1.5,1.6,3.2c1,1.3,3.2-0.3,4.3-2c-0.3,0-0.7,0.1-1.5-1.3c-0.3,0.7,0,3.7-1.1,2.6
							c-1-1.9-0.2-1.7-0.1-2.8c-0.7,1.1-2.1-2.2-3.4-1.4l1,1.6C712.4,546.6,711.9,546.1,711.8,546.7z"/>
						<path d="M718.4,550.8l0.3,0.6c-0.1-0.8,0.1-1.4,0.4-2.5c-0.7-0.9-1-1.1-1.3-1.1l0.8,3.1L718.4,550.8z"/>
						<path d="M719.5,554.2c-1-0.3-1.7-1.7-2.4-0.5c0.6,1.8,1.1,1.1,1.7,2.1C717.8,552.9,719.5,556.6,719.5,554.2
							c0.2,0.6,0.4,1.1,0.6,1.6c0-0.6-0.1-1.1-0.1-1.7c0,0,0,0.1,0,0.1l0,0l0,0c-0.1,0.2-0.1,0.2-0.1,0.1c0,0,0,0,0-0.1
							C719.7,554.3,719.6,554.3,719.5,554.2c-0.1-0.9,0.2-0.2,0.4,0c0,0,0.1,0,0.1,0l0,0l-1.3-2.9C718.7,552,719,552.8,719.5,554.2z
							"/>
						<path d="M719.5,570.4c0-0.1,0.1-0.1,0.2-0.1C719.5,570.1,719.4,570.1,719.5,570.4z"/>
						<path d="M719.6,569.1c0.2,0.2,0.6,0.3,0.7,1c-0.1,0.7-0.4,0.1-0.7,0.2c0.3,0.4,1,1.3,1-0.1l-0.2-0.2c0-1.3,0.6-3.1,0.7-2.9
							C720.6,567.6,720.1,568.1,719.6,569.1z"/>
						<path d="M719.3,561.6l-1.1-2.4l-0.4,1.5l0.4-0.2C718.5,562,718.9,561.5,719.3,561.6z"/>
						<polygon points="718.1,547.2 719.1,547.3 717.4,546.2 						"/>
						<polygon points="717.1,544 717.9,543.9 717.2,543.2 						"/>
						<path d="M652,365.1l-0.5-0.7C651.8,364.8,651.9,365,652,365.1z"/>
						<path d="M653.7,370.3l0.4,0C653.9,370.2,653.7,370.1,653.7,370.3z"/>
						<path d="M693.8,464.5c0.4-1.3,1.1-2.8,0.3-2.4l-0.7,0.6C693.8,463.4,693.8,464,693.8,464.5z"/>
						<path d="M672,411.9c0,0.1-0.1,0.3-0.2,0.4c0.4,0.2,0.7,0.3,1,0.5C672.6,412.5,672.4,412.2,672,411.9z"/>
						<path d="M668.4,412.2l0.1-1.6C668.4,411,668.4,411.5,668.4,412.2z"/>
						<path d="M641.6,336.9l-1.1-0.6C640.9,337.6,641.1,336.9,641.6,336.9z"/>
						<path d="M707.3,510.9c0.1-1,0-1.8-0.2-2.4C707,509.7,706.5,510.8,707.3,510.9z"/>
						<path d="M661.5,364.3c-0.3-0.4-0.5-0.5-0.7-0.5C661.1,364.2,661.3,364.4,661.5,364.3z"/>
						<path d="M706.4,505.8c0,0.2,0,0.4-0.1,0.5c0.3,0.6,0.6,1.3,0.8,2.1C707.3,507.5,707.2,506.5,706.4,505.8z"/>
						<path d="M605.7,233.8c0-0.1,0-0.2,0-0.3C605.6,233.6,605.6,233.7,605.7,233.8z"/>
						<path d="M602.7,201c0.2,0.3,0.3,0.8,0.5,1.2C603.2,201.9,603.1,201.6,602.7,201z"/>
						<path d="M713.8,530.9C714,531.5,713.9,530.9,713.8,530.9L713.8,530.9z"/>
						<path d="M711.4,535.1c-0.1-0.1-0.3-0.2-0.5-0.2C711.1,535,711.3,535,711.4,535.1z"/>
						<path d="M699.2,500.5C699.2,500.4,699.2,500.4,699.2,500.5C699.1,500.7,699.1,500.6,699.2,500.5z"/>
						<path d="M713.7,532c0-0.3,0-0.6,0-1C713.7,531.2,713.7,531.5,713.7,532z"/>
						<path d="M714,531.8c0,0.2,0.1,0.4,0.1,0.6C714.3,532.4,714.4,532.3,714,531.8z"/>
						<path d="M713.4,529.9c0.1,0.4,0.2,0.8,0.2,1.1c0-0.2,0-0.2,0.1-0.2C713.7,530.7,713.6,530.4,713.4,529.9z"/>
						<path d="M627.8,288c0-0.1,0-0.1,0-0.2C627.3,287.3,627.4,287.6,627.8,288z"/>
						<path d="M679.8,449.3C679.8,449.4,679.8,449.4,679.8,449.3C679.8,449.4,679.8,449.3,679.8,449.3L679.8,449.3z"/>
						<path d="M678.4,447.1c1.4,0.7,1.4,1.4,1.4,2.2l2.1-1.5L678.4,447.1z"/>
						<path d="M647.6,352.7l-0.2,2c-1.9-1.7-2-3.3-2.5-1.3c2.7-0.6,2.5,6.5,5.1,5.9l-0.2,1.3c-0.1-0.3-0.3-0.3-0.3-0.7
							c-0.5,2.6,2.4,1,3,3.9c0.1,1,0,1.9-0.5,1.3l1.4,2c0.2,0.7-0.3,0.6-0.5,0l1.3,3.3l-0.1,0c0.6,0.3,1.5,1.2,2,1.7
							c-0.1,1-0.4-0.3-0.7,0l1.2,1.6c-0.4,1-1.6-0.3-1.9-1.7c-2,2.6,1.2,1.3,0.9,5.6l-0.9-1.6c-1.1,1.6-0.1,2.8-0.4,5.1
							c0.3-0.6,1-4.7,2.3-2.9c0,0.6,0.1,1.4,1,2.3c-0.9,0.3-0.3,1.3,0.1,2.6l-1.2,0.3c0.8,1.3,1.4,1,2.2,1.7
							c0.4,1.6-0.4,2.3-1.1,2.9c0.6,2.6,0.9-2.3,2.2,0.7c0.2,2.3,1.2,3.6,2.8,5.9c0.1,1.6-0.8,0-1,0.6l1.4,1
							c0.1,0.3-0.3,0.3-0.4,0.3c0.7,1,1.2-0.3,2.1,1.3c1.5,0-0.8,4.2,1.4,5.9c-0.2,0.6-0.8,0-1.2,0.3c2,2.7,1.5,2.3,3.7,4.3
							l-0.1,2.3c0.4-1.8,2.1-0.2,3.6,1.2c0.3-0.7,0.5-1.3,0.6-1.6l1.5,2.5c-0.1,0.4-0.6,0.3-1.3,0c0.2,0.2,0.3,0.3,0.5,0.4
							c-0.1,1.1-1,0.8-1.9,0.4c0.1-0.4,0.3-0.8,0.4-1.2c-1-0.4-2-0.8-2.6-0.4c0.2,0.1,0.4,0.4,0.6,0.8c-0.3-0.1-0.5-0.2-0.6,0
							c-0.1,0.1,0.3,0.3,0.7,0.7l-1.2,1.1l0.6,0l0.3,3.8c2.2,2.1,4.9,3.7,6.7,7.6c-1.3-0.7-1.7,0.3-2.9,0.6c0.9-1.5-1.5-3-1.9-5.2
							c0.2,1.1-0.4,1.1-0.7,0.9l2.3,3.4c-1,0.2-0.5,1-0.6,2.1c1.7-1.3,2.2,2.4,3.2,3.7c-0.6,0.3-1.4,0.1-1.8-1.8
							c-0.8,2.5,3.1,2,2.5,4.4c-0.2-0.5-0.1-0.7-0.5-0.8c0.9,0.9,1.3,3.6,0.5,3.2l-0.2-0.5c0.7,3.1,2.8,9.2,4.6,9.2
							c-0.2,0.1-2.1,0.2-2.5,0.1l7.1,3.7c-1.5,0-4.3,2.8-5.9,0.5c0,0.8,0.1,1.7,1,3.1c0-0.6,1.6-1.8,2-1.2c-1,2.3-0.4,1.5-1.1,4.2
							c0.1-0.8,2.5-0.7,2.8,0.5c-0.4-0.1-2.1,0.8-2.5,0.4l3,2.2c-0.6-0.6-1.9,0.4-2.3,1.3c0.3-0.4,0.7,2.5,1.2,3.2l0.1-1.4
							c0.7,3.4,4,2.3,4.9,5.6c-0.6-0.3-3-0.1-2.8,1.6c1.3,0.4,6.3,1.8,8,4.4l-0.5,0.7l1.4,2c-2.1-0.9-6.7-3.7-8.7-5.4
							c-0.1,1.4-0.6,0.6,0,2.4c-0.4,0.8-1.2-0.7-1.4-1.3l0.9,4.4c1.2-0.6,2.3,2.9,3.3,2.4l-2.7-4.3c1.2-0.6,4.5,1.6,5.1,4.7
							c-0.3,0.9-2.5,0.1-2.9,0.3c0.6,0.3,1.7,2.6,1.5,3l-1.1-1.1c0,1.8,2.5,2.2,1.9,4.6c0.1,0.7-1,2.6-0.2,2.5
							c1.1-1.6,5.6-3.2,6.9-2.7c0,0.3-0.3,4.1-0.8,5.1c-0.8,1.5-3.3-0.9-4,0.4c0.4-0.1,1,0.4,1.2,0.7c-0.1,0.8-1.2,0-0.5,1.6
							c1.4-0.1,0.9,3.3,1.3,0.4c0.8,1.5,0.2,1.7,0.8,3.6c0.7-0.8,3.4,0.8,4.2,2.3c-0.4,0-0.7,0.5-0.8,0.7c0.8,3.3,0.7,5.2,1.6,8.2
							c-0.2,0.4-0.2,1.9-0.9,1.5c0.4,0.4,0.9,0.6,1.2,1.5c-0.6,2.1-0.8-2-1.7-0.3c0.8-0.1,1.7,2.1,2.6,3.3c1.1-0.7-0.7-3.1-1.5-4.3
							c1.6-0.5,4,1.3,5.6,4.3c1.1,2.4-0.7,1.4-0.4,1.8c1.1,4.8,4,3.2,3.9,7.4c-0.6,1.8-2,0.7-2.7,1.2c-1-1.9-0.2-3.3-0.7-4.7l0,1.8
							c-0.5-0.5-1.2-1.8-1.1-2.7c-0.5,1.6,2.1,8,2.3,11.8c0.5,0.5,1.2,1.6,1.5,0.9l-0.5-1.1c0.5-1.3,1.8,1.8,1.7,0.3
							c1,1.4,2.4,2.8,2.6,5.1l-1.1,0.7c0.3-0.1,0.3-1.6-0.2-2.1c0.8,0.8-0.7,3.8,1.2,4.3l0.4-1.7c1,1.4,2.8,2.9,3,5
							c0.9-1.2-0.3-0.4,0.7-2.2c-1.4,1.7-1.3-4.9-2.6-2.5c1.2-1.8,0-2.6,0.8-4.8c-0.4,0.2-0.6,0.9-0.8-0.8c-0.1,0-0.3-0.2-0.4-0.3
							c0-0.1,0-0.1,0-0.1c0,0,0,0.1,0,0.1c-0.1-0.1-0.1-0.1,0,0c-0.1,0.4-0.2,0.8-0.4,1c-1.1-0.5-1.8-3.1-2.5-3.8
							c-0.1-1,0.6,0.3,0.8-0.4l-1.1-1.1c0.8-0.4,0.7-2.9,1.9-0.8l-0.5-2c0.1-1.3-0.1-3-0.8-3.9c-0.1-1-1.6-2.1-0.7-1.5l-1.5-3
							l0.2-0.1c-0.8-3.2-3.3-6-2.8-10.1c-0.5-1-1.1-2-1.4-3.8l0.6-0.6c-0.7-1.3-0.4-4.3-1.4-4.6c1.6-2.1-1.5-6.7-1.8-9.2l-1,0.2
							c-0.4-1.7-1.2-3.1-2.2-5.1l-0.8,0.4c-1.2-1.5-0.7-4.7-1.6-7.4c0.4,0.1,0.5,0.8,0.5,1.4c0.9-3.9-3.5-6.5-3-10
							c-0.5-0.7-0.6-1.2-0.5-1.8c0,0.1,0.1,0.1,0.1,0.2c0-0.1,0-0.2-0.1-0.3c0-0.4,0.1-0.8,0.1-1.2c-0.1,0.4-0.2,0.7-0.2,1
							c-0.2-0.6-0.6-1.4-1-2.2l0.8-0.6c0-0.1,0-0.1-0.1-0.2c0.1-0.9-0.6-0.5-1.2,0.1c-0.3-0.4-0.6-0.7-0.9-1
							c1.3-1.1-1.2-2.1,0.1-3.5c-0.9-0.3-1.9-4.1-3.7-4.1c0.2-0.1,0.2-0.4,0.4,0.1c-0.1-1-0.2-2-0.9-2.7l1-0.8l-2.2-1.6
							c0.3-1.5,0.6-2.1,1.9-1.2c-2.3-2.6-1.3-2.3-3.4-4.4l0.8-0.1c-0.3-0.9-1.8-2.1-1.3-2.8c0.8-2.5-3-10.2-3.3-15.9
							c-1.9,1.7,0.2-2.8-1.6-2.4c0.4-0.5,0.5-1.3,1.2-0.6c-1.4-2.5-0.4-4.3-2.5-5.7c0.4-0.5,1,0.3,1.2,0c-0.2-0.2-0.7-0.7-0.5-1.1
							c0.2-0.4,0.6,0.3,0.9,0.6c-1-2.7-2.7-2.5-4.3-2.2c0.3-1.6,0-2.3-1.4-3c0.3-0.6,0.6-1.6,1.3,0c-0.2-1-1.1-6.1-2.4-5.8
							c0.2-0.4-0.3-1.4-0.6-1.6c-0.6-2.2-0.6-2.4-1.4-4.5l0,0.6c-1.7-0.4-0.9-1.7-1.6-3.3l0.2,0c-0.2-4.2-1-1.5-1.1-5.8l-0.8,0.5
							c-2.1,0.3,0-3.8-1.4-5.8l-0.3,1c-1.1-1,1.6-4.3,1.4-5.6c0.1-0.3,0.4,0.3,0.7,0.7c0.1-3.6-1.3,0-2.4-2.3c0.5-0.7,1.8,0,1.4-1.6
							c0.3-1-3.6-4-3.1-6.6c-0.3,0.6-0.7,1.3-1.4,0.3c-0.7-1.6,0.4-5.2-1.7-6.2c0.1-0.3,0.2-0.4,0.3-0.4c-0.8-1.2-2.1-4-3.2-4.5
							c2.7-2.2-4.2-7.6-1.3-8.5l-1.5-3.9l0.3,0c-0.7-2.6-1.7-3.3-2.7-3.9c0-0.7,0.4-0.3,0.6-0.3c-0.7-3.9-0.9-4.3-3.4-6.9l0.8-0.6
							c-0.8-0.7-0.4-5.9-2.7-9.2c0.1,0,0.3,0,0.6,0.3c-2.5-3.7-0.8-10.7-4.7-11l-1.8-2.4c0.9,3.6-1.7,0-1.7,1.6
							c-0.7-1.3-0.2-3.9,0.6-2.3l-0.1,0.3c2,0-0.9-4.6,0.4-4.9c-2.5-6.9-3.9-13.9-6.1-20.4l-1.1,1.2l-0.7-2.3
							c0.1-0.7,0.8-1.2,1.3,0.4c0.5-1.1-1.6-2.5-1.9-2.4c-0.6-3.3,2,0.7,1.7-0.3l-0.6-1.3l-0.1,0.4c-0.9-0.9-1.6-0.7-2.2-2.7
							c-0.2-1.3,0.6-0.9,0.5-1.4c0.1,0,0.1-0.2-0.2-0.7l-0.9-2.9l-0.7,1.5c-1-1.1-0.9-2.7-1.7-0.9c1.2-2.6-3.1-10.8-2.9-12.2
							c-1.4-1.5-2-3.2-2.7-5.4c0,0.6-1.1,1.4-1.7-0.5c2.8-0.2-0.1-3.8,1.1-5.9c-0.7,1.8-2.2-5.1-3.2-2.4c-0.4-1.6,0.9-0.4,1.1-1.8
							c-2.3-3.3-2.3-8.3-4.3-12.7c-0.4,0.1-0.6,1-1.4,0.2l0.8-3c-0.5-0.8-2.2-0.1-1.7-2.2c-0.2,0.3-0.5,0.8-0.8,0.3
							c-1.7-9.5-8.1-17.6-8.5-27.7c-0.2,1.5-0.5,0.7-0.9-0.2c0.1,0.7-0.8,0.3-1.2,0.6l-0.2-4.2c-1.5-0.2-1.6-4-2.9-3.9l0.7,1.1
							c-2-1-2.3,3.4-4.1,3.8c2.3,1.2-0.6,5.6,2.8,7.6c-0.1,0.8-0.8-0.3-1.1,0.2c1,0.4,1.5,1.3,1.8,3.1l-0.3-0.1
							c1.9,4.6,1.9,6.8,3.4,12.2l0.7-0.7c0.3,1.2,0.1,1.5,0.1,2.1c1.8,0.8-1.1-3.2,0.8-2.6c-1.3,2.2,2.9,7.9,1.2,9.7
							c0.6,1.7,0.8-0.9,1.5,0.8l-0.4,0.7l0.9,0.2c0.3,1.2-0.2,2-0.6,2.2c0-0.3-0.4-0.7-0.6-1c-0.1,1.7,1.7,4,1.7,4.6l-0.3-1.8
							c2.3,4.5,3.6,10.5,6.4,14.7l0.3-0.5c2,3.2,0.6,3,2.3,6.6l-0.2-0.1c0.7,0.6,1.3,1.6,1.6,2.6c-0.8-0.8-0.3,2.2-1.3,1.1
							c2.2,3.5,1.3,1.6,3.8,3.6l-0.5,0.8c0.9,0.6,1.3,0.6,2.2,2.4c-1.2-1.3-0.6,1.6-2,0.1c-0.1,4.5,3.7,5.4,2.1,8
							c2.6,1.1-0.2-3.9,0.6-3c0.3-1.1,2,1,2.2,2.3c0.4,1.3-1.7,3.1-0.5,6.3c-0.1-0.3-0.3-0.3-0.4-0.6c-0.1,1.4,1.5,2.1,1.2,3.9
							c1.5,0.4,0.6,1.9,2.2,1.7l-1.4-2.8c1,1.5,3.3,2.5,3.4,5.6c-0.4-0.1-1.1-0.8-1.5-1.3c-0.2,1,0.8,1.5,0.7,2.4
							c-1.6,0.3-1.6-3.5-3.4-4.9c-0.3,1.1,2.3,3,0.3,2.7c2.5,0.6,0.9,3.3,3.2,4.9l-0.9,0.2c0.3,0.3,0.9,0.9,1.1,1.5l-1.6-0.7
							c1.6,1.4,0.3,3.7,1.5,5.2c-1.3-3.5,0.8-1.2,0.9-2.9c2.7,4-1.5,3.3,0.7,8.1c-0.4-0.6-0.3-2.7,0.4-1.8c0.1,1,0.2,2.4,0,3.1
							c1.3,3.2,0.7-0.8,1.8,0.4c-0.7,1.5,1,1.4,1.9,2.7l-0.9,0.3c0.7,3.9,2.2,0.3,2.7,3.9l-1.8-1l0.9,1.6l-1.2,0
							c1.4,1.6,1.4,2.3,1.8,4.2c0.5-0.7,1.7-0.3,2.3,1.3c-0.2,1.3-1.1-0.3-0.1,2c-0.8-0.3-1.7-0.7-1.2-2c-0.3,0-0.8-0.3-1.1-0.3
							c-0.2,1.4,0.9,3.1,1.2,3.9c-0.1-0.3-0.2-0.7-0.1-1l2.4,2.9c-0.2,0.6-0.6,0.3-1,0c0.3,0.7,0.9,1,1.3,2c-0.8,0-1.6,0.3-2.4-1
							l1.9,2.9c-0.2,0.3-0.3,2-0.7,1.6c0.2,1.9,2.9,3.9,3.2,6.4c0.2,0.1,0.4,0.3,0.7,0.7c0.6,2.3,0.3,4.6,2.3,6.9l-0.8,1.9
							c1,2,1-2.6,2.7,0.7c1.2,2.3-0.8,1.3-0.9,2.3c1.1,1,3.2,2.6,2.8,5.2C648,354,648,353.3,647.6,352.7z M656.7,378
							c-0.4-0.4-1.3-1.2-0.9-1.8C657.1,376.5,656.7,377.1,656.7,378z M671.5,416.2c-0.4-0.3-0.5-0.9-0.3-1.6
							C671.4,415,671.5,415.6,671.5,416.2z M710.9,523.5C710.8,523.5,710.8,523.5,710.9,523.5C710.8,522.3,710.8,522.7,710.9,523.5z
							 M711.1,526c0.2,0.2,0.3,0.1,0.4,0c-0.3-0.1-0.4-0.6-0.6-1.2C710.8,525,710.7,525.3,711.1,526z M631.4,278.6l-0.1,0.5
							C630.7,278.3,631,278.5,631.4,278.6z"/>
						<path d="M668.8,412.2c0.1-0.2,0.3-0.3,0.4-0.4C669,411.7,668.8,411.7,668.8,412.2z"/>
						<path d="M641.8,337C641.8,336.9,641.8,336.9,641.8,337c-0.1-0.1-0.1-0.1-0.2-0.1L641.8,337z"/>
						<path d="M692.8,492.3c0-0.5,0.1-0.8,0.2-1.1C692.8,491.3,692.7,491.5,692.8,492.3z"/>
						<path d="M716.2,537.9l-0.7-1.4c0.2,0.7,0.1,1,0.1,1.4C715.8,537.8,716.1,537.4,716.2,537.9z"/>
						<path d="M714.1,552.4c0.2,0.2,0.1,0.5,0.3,0.6l0.4-0.2C714.5,552,714,551.4,714.1,552.4z"/>
						<path d="M713.5,540.1c-0.7,0.3-0.2,1.2,0.2,2.2c0-0.1,0-0.1-0.1-0.2C714.9,542.1,714.2,541.1,713.5,540.1z"/>
						<path d="M713.8,542.6c0.1,0.3,0.2,0.6,0.3,1C714.6,543.5,714.1,543.1,713.8,542.6z"/>
						<path d="M712.5,528.8c-0.1,0.6,1.1,0,0.8,0.4C714.5,529.4,711.2,526.2,712.5,528.8z"/>
						<polygon points="711.2,541.7 712,541 711.1,540.7 						"/>
						<path d="M709.6,533.2l0.2,1.7c0.2-0.1,0.3,0.1,0.5,0.4C710,534.3,709.8,533.1,709.6,533.2z"/>
						<path d="M710.2,535.3c0.1,0.5,0.3,1,0.5,1.3C710.7,536.4,710.4,535.7,710.2,535.3z"/>
						<polygon points="710.2,539.5 710.3,538.9 710,537.7 						"/>
						<path d="M704.6,515.3l-0.8-1.7c-0.4-0.1-0.4,0.5-0.1,1.1C704,515,704.4,515.6,704.6,515.3z"/>
						<path d="M703.6,521.5c0.1-0.5,0.3-0.6,0.5-1l-1.2,0.3L703.6,521.5z"/>
						<path d="M701.7,516.3c-0.4-0.1-1.7-2.4-1-0.1C701.2,516.3,702,518.1,701.7,516.3z"/>
						<polygon points="695.2,488.5 695.4,489 697.3,488.3 						"/>
						<path d="M683.4,465.9c0.2,2.3,1.4,0.1,1.4,2.3c0.6,0.4,0-1.7,0.6-1.3C684.4,465.7,684.5,464.9,683.4,465.9z"/>
						<path d="M685.3,466.8c0.1,0.2,0.3,0.4,0.5,0.6C685.5,467,685.4,466.9,685.3,466.8z"/>
						<polygon points="601.8,195.6 601.7,194.1 601.4,195.2 						"/>
						<path d="M599.4,193.6l1.1-0.8l-1.4-0.4C599.3,192.7,599.6,193.2,599.4,193.6z"/>
						<path d="M655.5,382.6l0.3,0c0.3-0.3,0.2-0.6,0-1.3L655.5,382.6z"/>
						<polygon points="650.3,363.8 650.3,364.1 651.3,363.1 						"/>
						<path d="M643.6,348.7c0.2,0.6,0.7,1.3,0.8,2C643.8,349.4,645,348.1,643.6,348.7z"/>
					</g>
				</g>
			</g>
		</g>
	</g>
	<g class="st2">
		<g>
			<g>
				<g>
					<g>
						<path d="M377.7,354.6c-0.6-0.3-0.6,0.6-0.8,0.7C378,355.5,377.7,354.4,377.7,354.6z"/>
						<polygon points="388.4,356.4 388.1,356.6 389.9,356.4 						"/>
						<path d="M397.8,359.8c-0.4-1.7-3.5-1-5-2.1l-0.2-0.4l-1.2,0.8C393.6,358.7,396.5,358.9,397.8,359.8z"/>
						<path d="M401.7,364.6c-0.1-0.6,1.2,0-1.1-0.6c0.1,0.1,0.1,0.1,0.2,0.2C400.9,364.3,401.2,364.4,401.7,364.6z"/>
						<path d="M400.7,364.2C399.7,363.9,401.2,364.9,400.7,364.2L400.7,364.2z"/>
						<path d="M405.4,365.7l-1.5,0c0.2,0.4,1.3,0.9,0.8,1C406.1,366.9,405.9,366.5,405.4,365.7z"/>
						<path d="M407,365.2l-0.7-0.1C406.3,365.3,406.5,365.4,407,365.2z"/>
						<path d="M404.7,365l1.6,0.1c-0.1-0.3,0-0.7-0.7-0.1C405.8,364.7,405.4,364.9,404.7,365z"/>
						<path d="M403.9,364.5c-0.6-0.6-1.5-1.1,0-1.1C401.4,362.6,401.4,363.7,403.9,364.5z"/>
						<path d="M398.8,358.6l-0.8-0.8l-1,0.1C397.5,357.9,398.7,359.1,398.8,358.6z"/>
						<path d="M413.1,369.6c0.2-0.2-0.1-0.9-0.1-1.3l-1.1-0.1C412.4,368.6,413.2,369.1,413.1,369.6z"/>
						<path d="M413,368.3l1.6,0.1C413.4,367.8,413.1,367.9,413,368.3z"/>
						<path d="M407.8,363.8l-2.8,0.1c1.1,0,2.1,0,3.2,0.1L407.8,363.8z"/>
						<polygon points="418.5,371.8 417.4,372.1 419.3,371.7 						"/>
						<path d="M422.1,373.2c-0.8,0.3,0.4,1.2-0.3,1.3c1,0.3,2,0.2,3,0.1C423.8,374.5,423,374.1,422.1,373.2z"/>
						<path d="M426.2,374.5c-0.5,0-1,0-1.5,0.1C425.2,374.7,425.7,374.7,426.2,374.5z"/>
						<path d="M417,369.5c0,0.2,0.1,0.7,0.8,1.3l-0.2-1C417.4,369.6,417.2,369.5,417,369.5z"/>
						<path d="M417.6,369.7L417.6,369.7c0.6,0.3,1,0.5,1.2,0.6C418.6,370.2,418.2,370,417.6,369.7z"/>
						<path d="M416.9,369.4c0.1,0,0.1,0,0.1,0.1C417,369.4,417,369.3,416.9,369.4z"/>
						<path d="M411.2,366c1-0.1,3,0.1,1.5-1.2C412,365.1,412.8,365.9,411.2,366z"/>
						<path d="M416.6,368.1l-1.4-0.8c-0.1,0.2,0.1,0.6-0.4,0.7L416.6,368.1z"/>
						<polygon points="417.4,368.2 416.6,368.1 417.1,368.4 						"/>
						<path d="M424,372.7c0.8-0.1,1.5,0.2,2.3,0.5c-0.8-0.5-1.6-1-2.5-1.3C423.6,372.1,423.1,372.4,424,372.7z"/>
						<path d="M420.9,371.2c0.1,0,0.1,0,0.2,0C421,371.1,420.9,371,420.9,371.2z"/>
						<path d="M434.2,376.6c0-0.1,0-0.1-0.1-0.2c0,0-0.1,0.1-0.1,0.1L434.2,376.6z"/>
						<path d="M423.8,371.7c-0.6-0.4-1-0.4-1.5-0.3c0.5,0.1,1,0.3,1.6,0.5C423.9,371.8,424,371.7,423.8,371.7z"/>
						<path d="M428.6,375.1c-0.3-0.3-0.6-0.6-0.9-0.9C427.9,374.6,428.4,375.3,428.6,375.1z"/>
						<path d="M421.2,371.5c0,0-0.1,0-0.1,0C421.2,371.7,421.2,371.7,421.2,371.5z"/>
						<path d="M421.2,371.5c0.4,0,0.7-0.1,1.1-0.1c-0.4-0.1-0.8-0.2-1.2-0.2C421.1,371.3,421.2,371.4,421.2,371.5z"/>
						<path d="M438.8,372.7c-0.4,0.7-2.4,0.6-3.5-0.8c-1.7-0.1-1.8,2.7-1.1,4.6c0.2-0.3,0.3-0.6,2-0.4c-0.3-0.6-2.9-2.4-1.3-2.5
							c2.1,0.5,1.5,1,2.3,1.8c-0.4-1.3,3.1-0.2,3.2-1.7l-1.9-0.3C438.4,373.1,439.2,373.1,438.8,372.7z"/>
						<path d="M431.3,375.1l-0.6-0.2c0.6,0.4,1,0.9,1.7,1.9c1.2,0.1,1.5-0.1,1.7-0.3l-2.9-1.4L431.3,375.1z"/>
						<path d="M428,373.8c0.8-0.6,2.4-0.3,1.9-1.5c-1.8-0.7-1.5,0.1-2.8,0c3,1-1,0.1,0.9,1.4c-0.6-0.1-1.2-0.3-1.7-0.4
							c0.5,0.3,0.9,0.6,1.3,1c0,0,0-0.1,0-0.1l0,0l0,0c-0.1-0.2-0.1-0.2,0-0.1c0,0,0.1,0,0.1,0C427.8,373.9,427.9,373.8,428,373.8
							c0.8,0.5,0,0.3-0.3,0.2c0,0-0.1,0.1-0.1,0.1l0,0l3.1,0.8C430.1,374.6,429.4,374.3,428,373.8z"/>
						<path d="M415,363.7c0.1,0.1,0,0.2,0,0.2C415.3,363.9,415.4,363.9,415,363.7z"/>
						<path d="M416,364.7c-0.3,0-0.6,0.3-1.2-0.1c-0.5-0.5,0.2-0.4,0.2-0.7c-0.5,0-1.7,0-0.5,0.9l0.3,0c1.1,0.7,2.2,2.4,1.9,2.4
							C416.6,366.3,416.5,365.7,416,364.7z"/>
						<path d="M422.2,369l2.6,0.6l-0.9-1.2l-0.1,0.4C422.4,368.2,422.5,368.8,422.2,369z"/>
						<polygon points="434.3,377.2 433.6,377.8 435.5,377.3 						"/>
						<polygon points="437.4,378.4 437,379.1 438,379 						"/>
						<path d="M606.3,471.3l0.7,0.3C606.7,471.4,606.5,471.3,606.3,471.3z"/>
						<path d="M601.9,467.7l-0.4,0.2C601.9,467.9,602.1,467.8,601.9,467.7z"/>
						<path d="M511.5,416.7c0.6,1.2,1.1,2.8,1.4,2l0.2-0.9C512.3,417.5,511.9,417.1,511.5,416.7z"/>
						<path d="M562.4,443.6c0-0.1-0.1-0.3-0.1-0.4c-0.4,0.1-0.8,0.2-1.1,0.2C561.6,443.5,562,443.5,562.4,443.6z"/>
						<path d="M565.1,441.1l0.9,1.3C565.9,442.1,565.6,441.7,565.1,441.1z"/>
						<path d="M630.3,490.6l1.3-0.1C630.5,489.6,630.7,490.3,630.3,490.6z"/>
						<path d="M469,393.1c0.7,0.7,1.3,1.2,1.9,1.6C470.1,393.7,469.6,392.6,469,393.1z"/>
						<path d="M598.7,477c0.5,0.2,0.7,0.2,0.8,0C599.1,476.8,598.8,476.8,598.7,477z"/>
						<path d="M473.4,395.9c-0.1-0.2-0.2-0.3-0.4-0.4c-0.7-0.2-1.4-0.4-2.1-0.8C471.5,395.4,472.3,396,473.4,395.9z"/>
						<path d="M707.2,571.4c0,0.1,0.1,0.2,0.1,0.3C707.4,571.6,707.4,571.6,707.2,571.4z"/>
						<path d="M720.4,602.2c-0.2-0.2-0.5-0.6-0.8-1C719.7,601.4,719.9,601.8,720.4,602.2z"/>
						<path d="M449.7,384.5C449,384.2,449.5,384.5,449.7,384.5L449.7,384.5z"/>
						<path d="M448,379.9c0.2,0,0.3-0.1,0.4-0.3C448.3,379.8,448.1,379.9,448,379.9z"/>
						<path d="M482.2,394.5C482.3,394.5,482.3,394.5,482.2,394.5C482.2,394.3,482.2,394.3,482.2,394.5z"/>
						<path d="M448.9,383.6c0.2,0.2,0.4,0.4,0.7,0.6C449.5,384.1,449.3,383.9,448.9,383.6z"/>
						<path d="M448.8,384.1c-0.2-0.1-0.4-0.2-0.5-0.3C448.2,383.8,448.2,383.9,448.8,384.1z"/>
						<path d="M450.6,384.8c-0.4-0.2-0.7-0.4-1-0.6c0.1,0.1,0.1,0.2,0.1,0.2C449.9,384.5,450.2,384.6,450.6,384.8z"/>
						<path d="M665.6,528.5c0,0.1,0,0.1,0.1,0.2C666.4,529,666.2,528.8,665.6,528.5z"/>
						<path d="M532.3,418.9C532.3,418.9,532.2,418.9,532.3,418.9C532.2,418.9,532.3,418.9,532.3,418.9L532.3,418.9z"/>
						<path d="M534.9,419.8c-1.5,0.3-2-0.1-2.6-0.8l-0.6,2.6L534.9,419.8z"/>
						<path d="M616.8,479.7l-0.9-1.8c2.5,0.5,3.5,1.9,2.9-0.1c-2,1.9-5.6-4.4-7.6-2.5l-0.6-1.2c0.3,0.2,0.4,0.2,0.6,0.4
							c-1-2.5-2.6,0.4-4.7-1.8c-0.7-0.8-1-1.6-0.2-1.4l-2.3-1c-0.5-0.5-0.1-0.7,0.4-0.3l-2.9-2.1l0.1,0c-0.7,0-2-0.2-2.6-0.4
							c-0.5-0.9,0.5,0.1,0.6-0.3l-2-0.7c-0.2-1.1,1.5-0.6,2.5,0.4c0.2-3.3-1.7-0.5-3.9-4.2l1.7,0.9c0-2-1.5-2.4-2.6-4.5
							c0.1,0.7,1.9,4.5-0.3,3.7c-0.4-0.5-0.9-1.1-2.2-1.4c0.6-0.8-0.5-1.3-1.6-2.1l0.9-1c-1.4-0.7-1.7-0.1-2.8-0.2
							c-1.3-1.2-1-2.2-0.8-3.1c-2.1-1.9,0.5,2.4-2.2,0.6c-1.5-1.8-3.1-2.3-5.8-3.4c-1-1.3,0.7-0.5,0.5-1.1l-1.8,0
							c-0.3-0.2,0-0.4,0.2-0.5c-1.2-0.4-0.8,1-2.6,0.1c-1.2,0.8-1.9-3.9-4.7-4c-0.2-0.6,0.7-0.5,0.8-1c-3.2-1-2.6-1-5.6-1.4l-1.3-2
							c0.8,1.7-1.6,1.4-3.6,1.2c0.2,0.7,0.4,1.3,0.5,1.7l-2.8-1.1c-0.2-0.4,0.3-0.6,1-0.7c-0.2,0-0.4-0.1-0.6-0.1
							c-0.6-1,0.3-1.3,1.3-1.4c0.1,0.4,0.3,0.8,0.4,1.2c1-0.2,2.1-0.5,2.4-1.2c-0.2,0-0.6-0.1-1-0.3c0.3-0.1,0.5-0.1,0.5-0.3
							c0-0.2-0.4-0.1-1-0.1l0.3-1.5l-0.5,0.4l-2.6-2.9c-3.1-0.4-6.2,0-10.1-1.9c1.5-0.3,1.1-1.3,1.9-2.3c0.2,1.8,3.1,1.4,4.8,2.9
							c-0.9-0.8-0.3-1.1,0-1.1c-1.3-0.4-2.7-0.8-4-1.3c0.6-0.8-0.3-1.1-0.9-2c-0.5,2.1-3.2-0.6-4.9-1c0.3-0.6,1-1,2.6,0.3
							c-1-2.5-3.7,0.4-4.8-1.9c0.4,0.3,0.6,0.5,0.9,0.3c-1.3-0.1-3.3-2.1-2.5-2.2l0.4,0.3c-2.6-2-8.3-5.3-9.6-4.2
							c0.1-0.2,1.5-1.5,1.8-1.7l-7.9,1.7c1.2-1,1.4-5,4.1-4.2c-0.5-0.6-1.2-1.3-2.9-1.7c0.3,0.4,0,2.5-0.7,2.2
							c-0.8-2.4-0.7-1.5-2.1-3.9c0.5,0.7-1.4,2.2-2.5,1.5c0.3-0.2,1.1-2,1.6-1.9l-3.8,0.3c0.9,0.1,1.1-1.6,0.8-2.5
							c0,0.5-2.3-1.4-3.1-1.7l0.9,1.1c-2.8-2.1-4.6,0.9-7.5-0.9c0.6-0.2,2.4-1.9,1-3.1c-1.3,0.6-5.9,3-9,2.2l-0.2-0.9l-2.4-0.5
							c2.1-0.8,7.5-1.9,10.2-2c-0.9-1.1,0.1-0.9-1.7-1.8c-0.3-0.9,1.4-0.3,1.9,0l-3.8-2.6c-0.5,1.3-3.7-0.6-4.1,0.5l5,1.3
							c-0.5,1.3-4.4,1.9-7.1,0c-0.4-0.9,1.7-1.8,1.9-2.2c-0.6,0.2-3.1-0.7-3.2-1.2l1.6,0c-1.3-1.3-3.4,0.1-4.7-2
							c-0.6-0.4-1.1-2.6-1.6-2c0.3,1.9-1.8,6.2-3,6.8c-0.2-0.2-2.7-3.2-3.1-4.3c-0.5-1.7,3-1.6,2.6-3c-0.2,0.3-1,0.4-1.3,0.4
							c-0.5-0.7,0.8-0.8-0.7-1.5c-0.9,1.1-3-1.7-1.3,0.6c-1.7-0.4-1.4-1.1-3.2-1.9c0.1,1.1-3,1.8-4.6,1.4c0.2-0.3,0.1-0.8,0.1-1.1
							c-3-1.7-4.3-3.1-7.1-4.6c-0.1-0.4-1.3-1.5-0.4-1.7c-0.5,0-1.1,0.2-2-0.2c-1.2-1.9,2,0.8,1.4-1.1c-0.5,0.6-2.8-0.2-4.2-0.4
							c-0.2,1.3,2.8,1.7,4.2,1.9c-0.8,1.5-3.7,2-7,1.2c-2.5-0.8-0.5-1.5-1-1.5c-4.3-2.5-5.1,0.8-8.2-2.1c-1-1.7,0.9-2,0.9-2.8
							c2.1,0.6,2.7,2,4,2.6l-1.4-1.2c0.8,0,2.2,0.4,2.7,1c-0.8-1.5-7.4-3.8-10.5-6.3c-0.8,0-2-0.1-1.7,0.5l1.2,0.4
							c0.6,1.3-2.6,0.1-1.4,1.1c-1.7-0.1-3.8,0-5.6-1.4l0.1-1.3c-0.1,0.3,1,1.3,1.8,1.2c-1.1,0.1-2.5-3-4.1-1.9l1.1,1.4
							c-1.7-0.1-4.1,0.2-5.8-1c0.3,1.5,0.5,0.1,1.2,1.9c-0.4-2.1,4.6,2.2,3.6-0.3c0.6,2.1,2,1.7,3.2,3.8c0.1-0.4-0.3-1,1.2-0.1
							c0.1-0.1,0.3-0.1,0.5-0.2c0,0,0.1,0,0.1,0.1c0,0,0-0.1-0.1-0.1c0.1,0,0.1,0,0,0c-0.3-0.3-0.5-0.7-0.5-0.9
							c1.2-0.5,3.6,0.7,4.6,0.6c0.8,0.6-0.6,0.2-0.3,0.9l1.5-0.1c-0.3,0.9,1.8,2.5-0.6,2l1.9,1c0.9,1,2.4,1.9,3.5,2
							c0.8,0.6,2.7,0.2,1.6,0.5c1.1,0.3,2.2,0.6,3.2,1l-0.1,0.2c2.9,1.6,6.7,1.7,9.3,4.9c1.1,0.3,2.2,0.6,3.8,1.7l0,0.9
							c1.4,0.4,3.4,2.7,4.3,2.3c0.4,2.6,5.9,3.6,7.9,5.2l0.6-0.8c1.5,0.9,3.1,1.4,5.1,2.1l0.3-0.8c2,0.3,3.8,2.8,6.4,4.2
							c-0.3,0.2-0.9-0.3-1.3-0.7c2,3.5,7.1,2.4,9.1,5.3c0.8,0.1,1.3,0.5,1.6,1c-0.1,0-0.1-0.1-0.2-0.1c0.1,0,0.2,0.1,0.3,0.2
							c0.2,0.3,0.4,0.6,0.7,1c-0.2-0.4-0.4-0.7-0.5-0.9c0.5,0.3,1.4,0.6,2.3,0.9l-0.2,1c0.1,0,0.1,0.1,0.2,0.1
							c0.6,0.8,0.8,0,0.8-0.9c0.5,0.1,0.9,0.2,1.3,0.1c-0.2,1.7,2.3,0.8,2.3,2.7c0.9-0.4,4.2,1.8,5.5,0.6c-0.1,0.2,0.1,0.4-0.3,0.2
							c0.8,0.7,1.5,1.4,2.5,1.4l-0.3,1.3l2.7-0.2c0.7,1.4,1,2-0.7,2.1c3.5,0.5,2.5,0.9,5.5,1.2l-0.5,0.6c0.8,0.5,2.7,0.4,2.9,1.3
							c0.5,1.2,2.8,2.7,5.3,4.5c2.6,1.8,5.5,3.8,7.4,5.9c0.4-2.5,1.6,2.3,2.8,0.9c0,0.6,0.4,1.3-0.6,1.2c2.7,1.1,3,3.2,5.5,3
							c0,0.6-1,0.3-0.9,0.7c0.3,0,1,0.1,1.1,0.6c0,0.4-0.6,0.1-1.1,0.1c2.4,1.6,3.6,0.4,4.7-0.8c0.8,1.5,1.4,1.8,2.9,1.6
							c0.1,0.7,0.5,1.7-1.1,0.8c0.8,0.7,4.7,4.2,5.5,3.2c0.1,0.5,1.1,0.9,1.4,1c1.8,1.4,1.9,1.6,3.8,2.9l-0.4-0.5
							c1.6-0.7,1.7,0.8,3.3,1.8l-0.1,0.1c2.7,3.4,1.8,0.6,4.3,4.1l0.4-0.9c1.6-1.4,2.2,3.2,4.5,4l-0.3-1c1.5,0.2,1.2,4.4,2,5.4
							c0.1,0.3-0.5,0-0.9-0.2c1.9,3,1.1-0.7,3.3,0.6c0,0.8-1.5,1-0.3,2.1c0.3,1,5.3,1.3,6.3,3.8c-0.1-0.7-0.1-1.5,1-1
							c1.5,1,2.6,4.6,4.9,4.4c0.1,0.3,0.1,0.4,0,0.5c1.3,0.5,3.9,2.3,5.1,2.1c-1.1,3.3,7.6,4.3,5.6,6.6l3.3,2.6l-0.3,0.2
							c1.9,1.9,3.1,2,4.4,2c0.3,0.6-0.2,0.5-0.3,0.6c2.6,3.1,2.9,3.3,6.5,4.3l-0.4,1c1.1,0.2,3.3,5,6.9,6.7c-0.1,0.1-0.3,0.1-0.6,0
							c4,2.1,5.8,9.1,9.4,7.6l2.7,1.3c-2.6-2.8,1.5-0.8,0.8-2.2c1.2,0.8,2,3.4,0.6,2.3l-0.1-0.3c-1.8,0.9,2.9,3.7,1.9,4.6
							c2.7,2.5,5.1,5.2,7.5,7.9c2.3,2.7,4.6,5.4,7,7.9l0.5-1.6l1.6,1.8c0.2,0.7-0.2,1.4-1.4,0.1c0,1.2,2.5,1.6,2.8,1.4
							c1.9,2.8-2.1,0.2-1.4,1l1,0.9l-0.1-0.3c1.2,0.4,1.7,0,3.1,1.6c0.7,1.1-0.2,1.1,0.1,1.5c-0.1,0.1,0,0.2,0.5,0.6l2,2.3l0-1.7
							c1.3,0.6,1.9,2.1,1.9,0.2c0,2.8,7.2,8.8,7.6,10.1c1.9,0.8,3.1,2.2,4.6,4c-0.2-0.6,0.5-1.7,1.7-0.1c-2.5,1.2,1.5,3.5,1.2,6
							c0-1.9,4,4,3.8,1.1c0.9,1.4-0.7,0.7-0.3,2.1c3.4,2.3,5.1,7,8.5,10.5c0.3-0.2,0.2-1.1,1.3-0.7l0.3,3.1c0.7,0.6,2.1-0.6,2.3,1.5
							c0.1-0.4,0.2-1,0.7-0.5c1.2,2.1,2.6,4.1,4.2,5.9c1.5,1.9,3.1,3.7,4.7,5.6c3.2,3.7,6.1,7.7,7.8,12.5c-0.3-1.5,0.3-0.8,1,0
							c-0.3-0.6,0.7-0.5,1-0.9l1.4,4c1.5-0.2,2.7,3.4,3.9,3l-1-0.9c2.2,0.5,1.2-3.9,2.9-4.8c-2.5-0.5-1-5.6-4.9-6.6
							c-0.1-0.8,0.9,0.1,1-0.5c-1.1-0.1-1.9-0.8-2.7-2.4l0.3,0c-3.2-3.9-3.9-6.1-7.1-10.9l-0.5,0.9c-0.7-1-0.6-1.4-0.8-2
							c-2-0.2,2.1,2.7,0,2.7c0.2-1.2-1.1-2.9-2.4-4.6c-1.3-1.6-2.5-3.2-2-4.4c-1.2-1.5-0.5,1.1-1.7-0.3l0.1-0.8l-0.9,0.1
							c-0.7-1-0.5-2-0.1-2.3c0.1,0.3,0.6,0.6,0.9,0.8c-0.5-1.7-3-3.3-3.2-3.9l0.9,1.6c-1.9-1.8-3.7-4-5.5-6.1
							c-1.8-2.1-3.7-4.2-5.8-5.7l-0.1,0.6c-3.1-2.3-1.6-2.6-4.7-5.4l0.2,0c-0.9-0.3-1.8-1-2.5-1.9c1.1,0.4-0.6-2.2,0.8-1.5
							c-3.4-2.4-1.9-1-4.9-1.9l0.1-1c-1.1-0.2-1.4,0-3-1.4c1.6,0.8-0.1-1.7,1.8-0.9c-1.7-4.3-5.5-3.6-5.2-6.7c-2.9,0,1.8,3.5,0.7,3
							c0.1,1.1-2.2-0.2-3-1.3c-0.9-1,0.3-3.5-2.1-6c0.2,0.3,0.4,0.2,0.6,0.4c-0.5-1.3-2.3-1.4-2.8-3.1c-1.5,0.2-1.4-1.6-2.7-0.6
							l2.5,2.1c-1.5-1-4-1-5.5-3.7c0.4-0.1,1.3,0.3,1.9,0.6c-0.3-0.9-1.4-1-1.7-2c1.3-0.9,3,2.5,5.2,3.1c-0.2-1.2-3.4-1.8-1.5-2.3
							c-2.6,0.5-2.2-2.6-5.1-3.2l0.8-0.6c-0.4-0.2-1.2-0.4-1.7-0.9l1.8,0c-2.1-0.6-2-3.3-3.7-4.2c2.7,2.7-0.2,1.4,0.5,3.1
							c-4.2-2.5-0.1-3.7-4.3-7.1c0.6,0.4,1.5,2.3,0.4,1.8c-0.6-0.8-1.3-2-1.4-2.8c-2.7-2.3-0.3,1.1-1.8,0.4
							c-0.1-1.7-1.6-0.9-2.9-1.7l0.7-0.7c-2.4-3.2-2.2,0.7-4.2-2.3l2,0.1l-1.6-1.1l1-0.5c-2-0.8-2.4-1.4-3.6-3
							c-0.1,0.8-1.4,1.1-2.7-0.1c-0.5-1.2,1.1-0.2-0.8-1.8c0.8-0.1,1.8-0.2,2,1.2c0.3-0.2,0.8-0.1,1.1-0.2c-0.5-1.4-2.3-2.3-3-3
							c0.2,0.3,0.5,0.6,0.6,0.8l-3.6-1.5c-0.2-0.7,0.4-0.6,0.9-0.5c-0.6-0.4-1.3-0.4-2.1-1.1c0.7-0.4,1.2-1,2.6-0.2l-3.1-1.7
							c0.1-0.4-0.7-1.9-0.2-1.8c-1.1-1.6-4.6-2-6.1-4.2c-0.2,0-0.5,0-1-0.3c-1.7-1.7-2.6-3.9-5.5-5l-0.3-2.1
							c-1.9-1.2,0.5,2.8-2.7,0.7c-2.3-1.4,0-1.5-0.4-2.4c-1.5-0.3-4.1-0.7-5.2-3.1C615.8,478.8,616.2,479.3,616.8,479.7z
							 M595.1,462.8c0.5,0.2,1.8,0.3,1.7,1C595.7,464.3,595.6,463.6,595.1,462.8z M560.2,439.8c0.5,0,0.9,0.4,1.3,1.1
							C561,440.7,560.6,440.3,560.2,439.8z M457.2,387.2C457.2,387.2,457.2,387.2,457.2,387.2C458.1,388,457.8,387.7,457.2,387.2z
							 M455.1,385.7c-0.3,0-0.3,0.1-0.3,0.3c0.3-0.1,0.8,0.1,1.3,0.4C456.1,386.1,455.9,385.9,455.1,385.7z M666.3,538.6l-0.1-0.5
							C667.1,538.7,666.7,538.7,666.3,538.6z"/>
						<path d="M564.8,441.4c0,0.2,0,0.4-0.1,0.6C565,442,565.1,441.8,564.8,441.4z"/>
						<path d="M630.1,490.6C630.1,490.6,630.1,490.6,630.1,490.6c0.1,0.1,0.2,0,0.2,0L630.1,490.6z"/>
						<path d="M492.7,395.8c0.4,0.4,0.5,0.7,0.6,0.9C493.5,396.5,493.4,396.2,492.7,395.8z"/>
						<path d="M442.7,381.7l1.5,0.4c-0.7-0.3-0.9-0.6-1.1-0.9C443.1,381.5,443.2,381.9,442.7,381.7z"/>
						<path d="M432.8,370.7c-0.3,0-0.5-0.2-0.7-0.2l-0.1,0.4C432.8,371.4,433.6,371.3,432.8,370.7z"/>
						<path d="M442.8,378.2c0.2-0.8-0.8-1-1.8-1.3c0.1,0,0.1,0,0.2,0.1C440.3,377.9,441.5,378.1,442.8,378.2z"/>
						<path d="M440.7,376.9c-0.3-0.1-0.6-0.2-0.9-0.4C439.4,376.8,440.1,376.7,440.7,376.9z"/>
						<path d="M452.1,384.9c-0.4-0.4-0.7,0.8-0.9,0.4C450.3,385.9,454.9,385.6,452.1,384.9z"/>
						<polygon points="443.1,375.4 443,376.5 443.9,376 						"/>
						<path d="M450.6,379.7l-1.5-1c0,0.2-0.3,0.2-0.6,0.1C449.6,379.3,450.6,380,450.6,379.7z"/>
						<path d="M448.6,378.8c-0.5-0.3-1-0.5-1.4-0.4C447.5,378.5,448.1,378.8,448.6,378.8z"/>
						<polygon points="445.4,376.1 445.8,376.5 446.9,377.1 						"/>
						<path d="M467.6,388.1l1.8,0.6c0.3-0.2,0-0.6-0.7-0.8C468.1,387.9,467.5,387.7,467.6,388.1z"/>
						<path d="M463.6,383.1c0.4,0.4,0.3,0.6,0.4,1.1l0.6-1.1L463.6,383.1z"/>
						<path d="M468.7,385.3c0.3-0.2,2.9,0.4,0.7-0.7C469.1,384.9,467.3,384.3,468.7,385.3z"/>
						<polygon points="493.7,400.2 493.2,400 492.3,401.8 						"/>
						<path d="M518.3,408.7c-1.7-1.6-1.1,0.8-2.6-0.8c-0.7,0.1,1.2,1.3,0.5,1.4C517.7,409.5,518.2,410.2,518.3,408.7z"/>
						<path d="M516.3,409.3c-0.2,0-0.5-0.1-0.8-0.1C515.9,409.3,516.1,409.3,516.3,409.3z"/>
						<polygon points="722.7,607.2 723.3,608.6 723.3,607.4 						"/>
						<path d="M725.6,608.5l-0.8,1l1.5,0C726,609.3,725.5,608.9,725.6,608.5z"/>
						<path d="M593.5,458.2l-0.3,0.2c0,0.4,0.2,0.6,0.7,1.1L593.5,458.2z"/>
						<polygon points="608.5,471.5 608.3,471.2 608,472.5 						"/>
						<path d="M622.3,481.1c-0.5-0.5-1.3-0.8-1.8-1.3C621.9,480.7,621.5,482.4,622.3,481.1z"/>
					</g>
				</g>
			</g>
		</g>
	</g>
	<g class="st2">
		<g>
			<g>
				<g>
					<g>
						<path d="M811.1,345c0.6,0.1,0.4-0.8,0.5-0.9C810.5,344.3,811.1,345.2,811.1,345z"/>
						<polygon points="800.6,347.2 800.8,346.9 799.3,347.8 						"/>
						<path d="M790.8,347.5c1,1.4,3.6-0.3,5.3,0.1l0.3,0.3l0.8-1.2C795,347,792.3,347.9,790.8,347.5z"/>
						<path d="M785.4,344.6c0.3,0.5-1.1,0.5,1.2,0.1c-0.1-0.1-0.2-0.1-0.2-0.1C786.2,344.6,785.9,344.6,785.4,344.6z"/>
						<path d="M786.4,344.6C787.5,344.6,785.7,344.2,786.4,344.6L786.4,344.6z"/>
						<path d="M781.6,345.1l1.4-0.5c-0.3-0.3-1.5-0.4-1.1-0.6C780.5,344.3,780.8,344.6,781.6,345.1z"/>
						<path d="M780.4,346.2l0.7-0.2C780.9,345.8,780.8,345.8,780.4,346.2z"/>
						<path d="M782.6,345.4l-1.5,0.5c0.2,0.2,0.2,0.7,0.7-0.2C781.7,346.2,781.9,345.8,782.6,345.4z"/>
						<path d="M783.4,345.6c0.8,0.3,1.8,0.5,0.4,1C786.4,346.4,786,345.4,783.4,345.6z"/>
						<path d="M790.3,349l1,0.4l0.9-0.5C791.8,349.2,790.2,348.6,790.3,349z"/>
						<path d="M773.1,344.6c-0.1,0.3,0.5,0.8,0.6,1.2l1-0.4C774.2,345.2,773.2,345.1,773.1,344.6z"/>
						<path d="M773.7,345.8l-1.5,0.6C773.6,346.4,773.8,346.1,773.7,345.8z"/>
						<polygon points="780.2,347.8 782.6,346.6 779.7,347.8 						"/>
						<polygon points="767.3,344.7 768.2,344 766.7,345.1 						"/>
						<path d="M763.5,345c0.6-0.6-0.9-1-0.2-1.3c-1,0.1-1.9,0.7-2.7,1.1C761.4,344.5,762.3,344.5,763.5,345z"/>
						<path d="M759.2,345.4c0.4-0.2,0.9-0.4,1.3-0.7C760.1,344.9,759.7,345.1,759.2,345.4z"/>
						<path d="M769.6,346.3c-0.1-0.2-0.4-0.7-1.2-0.8l0.6,0.8C769.2,346.3,769.4,346.3,769.6,346.3z"/>
						<path d="M769,346.3L769,346.3c-0.7,0-1.1,0-1.3,0C767.9,346.3,768.3,346.3,769,346.3z"/>
						<path d="M769.8,346.3c-0.1,0-0.1,0-0.1,0C769.7,346.4,769.7,346.4,769.8,346.3z"/>
						<path d="M776.2,347.1c-0.9,0.5-2.7,1.1-0.9,1.7C775.9,348.3,774.9,347.9,776.2,347.1z"/>
						<path d="M770.5,347.3l1.6,0.1c0-0.2-0.3-0.5,0.1-0.8L770.5,347.3z"/>
						<polygon points="769.8,347.6 770.5,347.3 769.9,347.3 						"/>
						<path d="M762,346.2c-0.7,0.4-1.4,0.4-2.3,0.5c0.9,0.1,1.9,0.2,2.8,0.2C762.6,346.6,763,346.1,762,346.2z"/>
						<path d="M765.4,346.3c0,0-0.1,0-0.2,0.1C765.4,346.4,765.5,346.5,765.4,346.3z"/>
						<path d="M751.3,346.9c0,0.1,0.1,0.1,0.1,0.2c0-0.1,0-0.1,0-0.1L751.3,346.9z"/>
						<path d="M762.7,347c0.7,0.1,1.1-0.1,1.5-0.4c-0.5,0.1-1.1,0.2-1.6,0.2C762.4,347,762.4,347.1,762.7,347z"/>
						<path d="M756.9,345.9c0.4,0.2,0.8,0.3,1.2,0.4C757.7,346.1,757,345.7,756.9,345.9z"/>
						<path d="M765,346.1c0,0,0.1,0,0.1,0C764.9,345.9,764.9,346,765,346.1z"/>
						<path d="M765,346.1c-0.4,0.1-0.6,0.4-0.9,0.5c0.4-0.1,0.8-0.2,1.1-0.3C765.2,346.3,765.1,346.2,765,346.1z"/>
						<path d="M748.9,352.5c0.1-0.8,1.9-1.6,3.5-0.8c1.5-0.6,0.5-3.2-0.9-4.6c0,0.3,0,0.7-1.6,1.2c0.6,0.4,3.5,0.9,2.2,1.7
							c-2.1,0.5-1.7-0.2-2.8-0.6c0.9,1-2.6,1.5-2.1,2.9l1.8-0.6C749,351.9,748.3,352.3,748.9,352.5z"/>
						<path d="M754.4,347.1l0.7-0.1c-0.7-0.1-1.3-0.4-2.3-1c-1.1,0.4-1.3,0.7-1.4,1l3.2,0L754.4,347.1z"/>
						<path d="M758,346.9c-0.5,0.9-2,1.3-1.1,2.2c1.9-0.1,1.3-0.8,2.5-1.2C756.3,348.2,760.3,347.4,758,346.9
							c0.6-0.1,1.2-0.1,1.7-0.2c-0.6-0.1-1.1-0.2-1.6-0.4c0,0,0,0,0.1,0.1l0,0l0,0c0.1,0.1,0.2,0.2,0,0.1c0,0,0,0-0.1,0
							C758.1,346.7,758.1,346.8,758,346.9c-0.9-0.2-0.1-0.2,0.1-0.3c0,0,0-0.1,0-0.1l0,0l-3.1,0.6C755.8,347.1,756.6,347,758,346.9z
							"/>
						<path d="M773.7,350.8c-0.1-0.1-0.1-0.1-0.1-0.2C773.4,350.7,773.3,350.7,773.7,350.8z"/>
						<path d="M772.4,350.3c0.2-0.1,0.4-0.5,1.1-0.4c0.6,0.2,0,0.4,0.1,0.7c0.4-0.2,1.5-0.7,0.1-1l-0.2,0.1
							c-1.3-0.3-2.9-1.3-2.7-1.4C771.2,349,771.6,349.5,772.4,350.3z"/>
						<path d="M765.1,348.8l-2.6,0.5l1.3,0.7l-0.1-0.4C765.3,349.7,765,349.2,765.1,348.8z"/>
						<polygon points="751,346.5 751.3,345.6 749.8,346.9 						"/>
						<polygon points="747.6,346.7 747.7,345.9 746.9,346.4 						"/>
						<path d="M558.4,358.3l-0.8,0.2C558,358.5,558.2,358.4,558.4,358.3z"/>
						<path d="M563.9,358.4l0.1-0.4C563.8,358.2,563.7,358.4,563.9,358.4z"/>
						<path d="M665.3,348.3c-1.1-0.7-2.4-1.9-2.2-1l0.3,0.9C664.2,348,664.8,348.1,665.3,348.3z"/>
						<path d="M608.9,353.9c0.1,0.1,0.2,0.2,0.3,0.3c0.3-0.3,0.5-0.6,0.7-0.8C609.7,353.5,609.3,353.7,608.9,353.9z"/>
						<path d="M608.2,357.5l-1.5-0.6C607,357.1,607.5,357.3,608.2,357.5z"/>
						<path d="M528.4,359l-0.9,0.9C528.9,359.9,528.2,359.4,528.4,359z"/>
						<path d="M713.3,347.8c-1-0.3-1.7-0.4-2.4-0.5C712.1,347.8,713,348.5,713.3,347.8z"/>
						<path d="M560.6,349.1c-0.5,0.2-0.7,0.3-0.7,0.5C560.4,349.5,560.7,349.3,560.6,349.1z"/>
						<path d="M708.2,347.4c0.2,0.1,0.3,0.1,0.5,0.2c0.7-0.2,1.4-0.3,2.2-0.2C710.1,346.9,709.1,346.7,708.2,347.4z"/>
						<path d="M419.5,356.1c-0.1,0-0.2-0.1-0.2-0.1C419.2,356.1,419.3,356.1,419.5,356.1z"/>
						<path d="M388.1,346.3c0.3,0,0.8,0,1.3,0C389.2,346.2,388.8,346.2,388.1,346.3z"/>
						<path d="M734.1,346.6C734.8,346.6,734.2,346.5,734.1,346.6L734.1,346.6z"/>
						<path d="M737.7,350c-0.1,0.1-0.3,0.2-0.3,0.4C737.4,350.2,737.5,350.1,737.7,350z"/>
						<path d="M701.2,352.9C701.2,352.9,701.1,352.9,701.2,352.9C701.3,353,701.3,353,701.2,352.9z"/>
						<path d="M735.2,347c-0.3-0.1-0.6-0.2-0.9-0.2C734.4,346.8,734.7,346.9,735.2,347z"/>
						<path d="M735.1,346.6c0.2,0,0.4,0,0.6,0.1C735.8,346.5,735.7,346.4,735.1,346.6z"/>
						<path d="M733.1,346.7c0.4,0,0.8,0,1.2,0.1c-0.1-0.1-0.2-0.1-0.2-0.1C733.9,346.7,733.6,346.7,733.1,346.7z"/>
						<path d="M477.9,355.2c0,0-0.1,0-0.2-0.1C477,355.4,477.3,355.4,477.9,355.2z"/>
						<path d="M646.9,357.5C646.9,357.5,646.9,357.5,646.9,357.5C646.9,357.4,646.9,357.4,646.9,357.5L646.9,357.5z"/>
						<path d="M644.3,358.2c1.1-1.1,1.7-1,2.5-0.7l-0.9-2.5L644.3,358.2z"/>
						<path d="M545.2,358.5l1.8,0.8c-2.2,1.3-3.7,0.8-2.1,1.9c0.3-2.7,7-0.2,7.3-2.9l1.2,0.6c-0.3,0-0.4,0.1-0.7,0.1
							c2.3,1.3,1.7-2,4.7-1.5c1,0.2,1.8,0.6,1,0.9l2.3-0.7c0.7,0.1,0.5,0.5-0.2,0.5l3.5-0.2l0,0.1c0.5-0.4,1.6-1.1,2.2-1.4
							c0.9,0.4-0.4,0.3-0.2,0.6l1.9-0.7c0.8,0.7-0.8,1.4-2.2,1.3c1.8,2.7,1.6-0.7,5.5,0.9l-1.8,0.3c1.2,1.5,2.6,1,4.7,2
							c-0.5-0.5-4.2-2.4-2-3.1c0.6,0.2,1.4,0.3,2.5-0.2c0,1,1.1,0.7,2.5,0.7l-0.1,1.3c1.5-0.4,1.4-1,2.3-1.6c1.7,0.1,2,1.1,2.4,2
							c2.7,0.2-1.9-1.6,1.3-1.8c2.2,0.5,3.8,0,6.5-0.8c1.6,0.4-0.3,0.8,0.3,1.1l1.4-1c0.3,0,0.2,0.3,0.2,0.5
							c1.2-0.4,0.1-1.3,1.9-1.6c0.5-1.4,3.8,2.1,6,0.5c0.6,0.4-0.3,0.8-0.1,1.3c3.1-1.1,2.7-0.8,5.2-2.2l2.2,0.8
							c-1.6-1,0.4-2.1,2.2-3c-0.6-0.5-1.1-0.9-1.4-1.1l2.9-0.7c0.3,0.2,0.1,0.6-0.4,1.2c0.2-0.1,0.4-0.2,0.5-0.3
							c1,0.5,0.5,1.2-0.2,1.9c-0.3-0.3-0.7-0.5-1-0.8c-0.7,0.8-1.4,1.6-1.2,2.4c0.2-0.1,0.5-0.3,0.9-0.3c-0.2,0.2-0.3,0.4-0.2,0.5
							c0.1,0.1,0.4-0.1,0.9-0.5l0.7,1.4l0.2-0.6l3.7,0.9c2.7-1.4,5-3.6,9.2-4.2c-1,1.1-0.2,1.7-0.3,2.9c-1.2-1.3-3.3,0.6-5.5,0.3
							c1.2,0.1,0.9,0.7,0.6,0.9l3.9-1.2c-0.1,1,0.8,0.8,1.9,1.2c-0.8-2,2.9-1.4,4.5-2c0.1,0.7-0.3,1.4-2.2,1.2
							c2.2,1.5,2.8-2.4,4.9-1.1c-0.5,0-0.7-0.1-0.9,0.3c1.1-0.6,3.8-0.1,3.2,0.4l-0.5,0c3.2,0.2,9.6-0.1,10.1-1.8
							c0,0.2-0.4,2.1-0.6,2.4l5.6-5.8c-0.5,1.5,1.5,4.9-1.2,5.8c0.8,0.2,1.7,0.4,3.3-0.1c-0.5-0.2-1.3-2.1-0.6-2.2
							c1.9,1.6,1.3,0.9,3.7,2.2c-0.8-0.3,0.1-2.6,1.3-2.5c-0.2,0.3,0.1,2.3-0.3,2.5l3-2.3c-0.8,0.4-0.1,1.9,0.6,2.5
							c-0.3-0.4,2.6,0,3.4-0.2l-1.3-0.5c3.4,0.3,3.3-3.2,6.7-3.1c-0.4,0.5-1,2.9,0.7,3.1c0.8-1.2,3.4-5.6,6.4-6.5l0.6,0.7l2.3-0.8
							c-1.4,1.8-5.4,5.5-7.6,6.9c1.3,0.5,0.4,0.8,2.3,0.7c0.7,0.6-1,0.9-1.6,1l4.5,0.3c-0.2-1.3,3.4-1.4,3.2-2.5l-4.8,1.5
							c-0.2-1.3,2.8-3.9,5.9-3.7c0.8,0.5-0.6,2.4-0.5,2.8c0.4-0.5,3-0.9,3.3-0.6l-1.3,0.7c1.8,0.5,2.8-1.8,5-0.6
							c0.7,0.1,2.2,1.7,2.3,0.9c-1.2-1.5-1.5-6.3-0.7-7.4c0.3,0.1,3.9,1.4,4.7,2.1c1.2,1.2-1.8,2.9-0.7,3.9c0-0.4,0.7-0.8,1-1
							c0.8,0.3-0.3,1.1,1.4,0.9c0.3-1.4,3.4,0.1,0.8-1.2c1.6-0.4,1.7,0.3,3.6,0.2c-0.6-0.9,1.7-3,3.3-3.4c-0.1,0.3,0.3,0.8,0.5,1
							c3.3,0.1,5.1,0.6,8.3,0.6c0.3,0.3,1.8,0.7,1.2,1.3c0.4-0.2,0.8-0.7,1.8-0.8c1.9,1.1-2.1,0.2-0.7,1.6c0.1-0.8,2.5-1.1,3.8-1.7
							c-0.4-1.2-3.2-0.2-4.5,0.3c0-1.7,2.3-3.5,5.5-4.3c2.6-0.5,1.1,1.1,1.6,0.8c4.9,0.2,4.1-3,8.1-1.9c1.6,1,0.1,2.1,0.5,2.9
							c-2.1,0.5-3.2-0.6-4.7-0.5l1.8,0.5c-0.7,0.4-2.1,0.7-2.8,0.4c1.4,0.9,8.2,0,12,0.8c0.7-0.4,1.8-0.8,1.2-1.2l-1.2,0.2
							c-1.1-0.8,2.2-1.2,0.7-1.6c1.6-0.6,3.3-1.6,5.6-1.2l0.4,1.2c-0.1-0.4-1.5-0.7-2.1-0.3c0.9-0.6,3.5,1.6,4.5-0.1l-1.6-0.8
							c1.6-0.7,3.5-2,5.5-1.7c-0.9-1.2-0.5,0.1-1.9-1.2c1.3,1.7-5.1,0.1-3.1,1.9c-1.5-1.6-2.5-0.6-4.4-2c0.1,0.4,0.7,0.8-1,0.6
							c-0.1,0.1-0.2,0.3-0.4,0.4c-0.1,0-0.1,0-0.1,0c0,0,0.1,0,0.1,0c-0.1,0.1-0.1,0.1,0,0c0.4,0.2,0.7,0.4,0.9,0.6
							c-0.8,0.9-3.5,1-4.3,1.5c-1-0.2,0.4-0.5-0.1-0.9l-1.3,0.7c-0.2-0.9-2.7-1.4-0.3-2l-2.1,0c-1.2-0.5-2.9-0.6-4-0.2
							c-1-0.2-2.5,1-1.6,0.3l-3.3,0.6l0-0.2c-3.2,0-6.6,1.6-10.4,0.1c-1.1,0.2-2.2,0.5-4,0.3l-0.4-0.8c-1.4,0.3-4.2-0.7-4.8,0.1
							c-1.5-2.1-6.8-0.3-9.3-0.7l-0.1,1c-1.7,0-3.3,0.3-5.4,0.7l0.1,0.9c-1.8,0.8-4.7-0.6-7.5-0.4c0.2-0.3,0.9-0.3,1.4-0.1
							c-3.5-2-7.2,1.6-10.3,0.1c-0.8,0.3-1.3,0.2-1.9,0c0.1,0,0.1,0,0.2,0c-0.1,0-0.2,0-0.3,0c-0.3-0.2-0.7-0.3-1.1-0.5
							c0.3,0.2,0.6,0.4,0.9,0.5c-0.6,0-1.5,0.1-2.4,0.4l-0.4-1c-0.1,0-0.1,0-0.2,0c-0.9-0.3-0.7,0.5-0.2,1.2
							c-0.4,0.2-0.9,0.4-1.2,0.6c-0.7-1.5-2.3,0.5-3.3-1.1c-0.6,0.8-4.5,0.7-4.9,2.4c0-0.2-0.3-0.3,0.2-0.3c-1-0.2-2-0.4-2.9,0.1
							l-0.4-1.2l-2.1,1.7c-1.3-0.7-1.9-1.2-0.6-2.1c-3.1,1.5-2.6,0.6-5.2,2l0.1-0.8c-1,0-2.5,1.1-3.1,0.5
							c-2.2-1.5-10.6-0.1-16.1-1.5c1.1,2.3-2.6-1-2.8,0.8c-0.3-0.5-1.1-0.9-0.2-1.3c-2.8,0.6-4.2-0.9-6.2,0.7
							c-0.3-0.6,0.6-0.8,0.3-1.1c-0.2,0.1-0.9,0.5-1.2,0.2c-0.3-0.3,0.4-0.5,0.9-0.7c-2.9,0.1-3.2,1.8-3.4,3.4
							c-1.5-0.7-2.2-0.6-3.2,0.4c-0.5-0.5-1.4-1.1,0.4-1.3c-1-0.1-6.1-0.8-6.2,0.5c-0.3-0.3-1.4-0.1-1.7,0.1
							c-2.2-0.1-2.4-0.2-4.7-0.1l0.6,0.2c-0.9,1.5-1.8,0.3-3.6,0.5l0.1-0.2c-4.1-1.1-1.8,0.5-5.8-0.7l0.2,1
							c-0.4,2.1-3.6-1.2-5.9-0.4l0.8,0.5c-1.3,0.7-3.6-2.8-4.8-3.1c-0.3-0.2,0.4-0.3,0.8-0.4c-3.4-1.2-0.4,1.3-2.9,1.5
							c-0.5-0.7,0.6-1.7-1.1-1.9c-0.8-0.6-4.9,2.2-7.2,0.9c0.5,0.5,1,1-0.2,1.4c-1.8,0.2-4.8-2-6.4-0.4c-0.2-0.1-0.3-0.3-0.3-0.4
							c-1.4,0.4-4.4,0.7-5.3,1.6c-1.2-3.3-8.5,1.6-8.4-1.5l-4.2,0.1l0.1-0.3c-2.7-0.2-3.6,0.5-4.6,1.2c-0.6-0.2-0.2-0.5-0.1-0.7
							c-3.9-0.7-4.3-0.5-7.6,1l-0.3-1c-0.9,0.6-5.6-1.6-9.5-0.5c0-0.1,0.1-0.3,0.4-0.4c-4.3,1.1-10.3-2.9-11.9,0.7l-2.9,0.8
							c3.7,0.3-0.6,1.6,0.9,2.2c-1.5,0.2-3.7-1.1-1.9-1.3l0.3,0.2c0.7-1.9-4.6-0.7-4.4-2c-7.3,0-14.3-1.2-21.1-1.4l0.8,1.5l-2.4-0.1
							c-0.6-0.4-0.8-1.2,0.9-1.1c-0.9-0.8-2.8,0.6-2.9,1c-3.3-0.7,1.3-1.7,0.3-1.7l-1.4,0.1l0.3,0.2c-1.1,0.6-1.2,1.2-3.3,1.1
							c-1.3-0.3-0.6-0.9-1.1-1c0-0.1-0.2-0.2-0.8-0.1l-3-0.2l1.2,1.2c-1.3,0.5-2.8-0.1-1.5,1.2c-2-2.1-11.1-1-12.3-1.6
							c-1.9,0.8-3.7,0.7-6,0.6c0.6,0.3,0.9,1.6-1.1,1.4c0.8-2.7-3.5-1.3-5.1-3.2c1.4,1.3-5.6,0.2-3.4,2c-1.6-0.3-0.1-1-1.3-1.7
							c-3.9,0.9-8.5-0.9-13.3-0.7c-0.1,0.3,0.7,0.9-0.3,1.4l-2.5-1.8c-1,0.1-0.9,2-2.6,0.7c0.2,0.3,0.6,0.8-0.1,0.9
							c-9.3-2-19.2,0.8-28.7-2.7c1.3,0.7,0.4,0.8-0.6,0.8c0.6,0.2,0,0.9,0.1,1.3l-3.9-1.5c-0.8,1.3-4.3-0.1-4.7,1.2l1.3-0.2
							c-1.7,1.4,2.2,3.4,1.9,5.3c1.9-1.6,4.9,2.7,8.1,0.4c0.7,0.4-0.6,0.6-0.3,1.1c0.8-0.8,1.8-0.9,3.5-0.5l-0.2,0.2
							c4.9,0,7,0.8,12.5,1.6l-0.4-1c1.2,0.2,1.4,0.5,2,0.7c1.4-1.4-3.3-0.2-2-1.7c1.5,2,8.4,0.3,9.4,2.5c1.8,0.1-0.5-1.1,1.3-1
							l0.5,0.6l0.5-0.7c1.2,0.2,1.8,0.9,1.8,1.4c-0.3-0.1-0.8,0.1-1.1,0.1c1.5,0.7,4.4-0.1,4.9,0.1l-1.7-0.4c5-0.4,11.1,0.5,16-0.5
							l-0.4-0.5c3.7-0.7,2.9,0.6,7,0.3l-0.1,0.1c0.8-0.4,1.9-0.6,3-0.5c-1,0.5,1.9,1.1,0.5,1.6c4-0.8,2-0.7,4.7-2.3l0.6,0.8
							c0.9-0.6,1-1,3-1.1c-1.7,0.6,1.3,1.2-0.6,2c4.2,1.7,6.3-1.5,8.2,0.9c2-2-3.6-1.2-2.5-1.6c-0.9-0.7,1.6-1.5,3-1.3
							c1.4,0.1,2.2,2.7,5.7,2.7c-0.3,0-0.4,0.1-0.7,0.1c1.3,0.5,2.5-0.7,4.1,0.2c0.9-1.2,2,0.1,2.3-1.5l-3.1,0.3
							c1.8-0.4,3.5-2.2,6.4-1.2c-0.2,0.3-1.1,0.7-1.7,0.9c0.8,0.5,1.7-0.3,2.5,0.2c-0.3,1.6-3.8,0.3-5.7,1.4
							c0.9,0.7,3.6-1.1,2.6,0.6c1.4-2.2,3.4,0.3,5.7-1.3l-0.2,0.9c0.4-0.1,1.1-0.6,1.8-0.5l-1.2,1.2c1.9-1,3.6,1,5.4,0.4
							c-3.8,0-0.8-1.2-2.4-1.9c4.7-1.2,2.6,2.5,7.8,2.2c-0.7,0.1-2.6-0.6-1.5-1c1,0.2,2.3,0.6,2.9,1.1c3.4-0.1-0.5-1,1-1.5
							c1.2,1.2,1.7-0.4,3.2-0.8l0,1c3.9,0.7,1.1-2,4.6-1.2l-1.5,1.3l1.8-0.3l-0.4,1.1c2-0.8,2.6-0.6,4.6-0.2c-0.4-0.7,0.3-1.7,2-1.8
							c1.2,0.6-0.7,0.9,1.8,0.8c-0.6,0.6-1.2,1.3-2.2,0.4c-0.1,0.3-0.6,0.6-0.7,0.9c1.3,0.7,3.2,0.2,4.1,0.2c-0.3,0-0.8-0.1-1-0.2
							l3.6-1.3c0.6,0.4,0.1,0.7-0.3,0.9c0.7-0.1,1.2-0.5,2.3-0.6c-0.3,0.8-0.2,1.6-1.7,1.9l3.4-0.8c0.2,0.3,1.7,1,1.3,1.2
							c1.9,0.5,4.6-1.5,7.1-0.8c0.1-0.2,0.4-0.3,0.9-0.4c2.3,0.2,4.4,1.2,7.2,0.1l1.6,1.4c2.2-0.3-2.1-1.8,1.5-2.3
							c2.6-0.4,0.9,1.2,1.8,1.6c1.3-0.7,3.5-2.1,5.9-1C546.6,358.6,546,358.4,545.2,358.5z M572.1,358c-0.5,0.2-1.6,0.8-1.9,0.3
							C570.7,357.2,571.2,357.7,572.1,358z M612.9,355.7c-0.4,0.3-1,0.2-1.7-0.2C611.7,355.4,612.3,355.5,612.9,355.7z M726.4,347.6
							C726.3,347.6,726.3,347.6,726.4,347.6C725.1,347.3,725.6,347.4,726.4,347.6z M728.8,348c0.2-0.1,0.2-0.3,0.1-0.4
							c-0.2,0.2-0.7,0.3-1.3,0.2C727.7,348,728.1,348.2,728.8,348z M470.4,348.5l0.5,0.3C469.8,349,470.1,348.8,470.4,348.5z"/>
						<path d="M608.3,357c-0.1-0.2-0.2-0.3-0.2-0.5C607.8,356.7,607.8,356.9,608.3,357z"/>
						<path d="M528.5,358.8C528.5,358.8,528.5,358.8,528.5,358.8c-0.1,0-0.2,0.1-0.2,0.2L528.5,358.8z"/>
						<path d="M691.6,356.8c-0.5-0.1-0.8-0.3-1-0.5C690.7,356.6,690.9,356.8,691.6,356.8z"/>
						<path d="M741.5,346l-1.5,0.3c0.7-0.1,1,0.1,1.4,0.3C741.3,346.4,741,346.1,741.5,346z"/>
						<path d="M755,351.7c0.2-0.1,0.5,0,0.7-0.2l-0.1-0.4C754.7,351.1,754,351.5,755,351.7z"/>
						<path d="M743,349.2c0.1,0.8,1.1,0.5,2.2,0.3c-0.1,0-0.1,0-0.2,0C745.3,348.4,744.1,348.8,743,349.2z"/>
						<path d="M745.4,349.5c0.3,0,0.7-0.1,1,0C746.5,349,746,349.4,745.4,349.5z"/>
						<path d="M731.8,347.4c0.5,0.2,0.3-1,0.6-0.7C733,345.6,729,348,731.8,347.4z"/>
						<polygon points="743.9,351.8 743.5,350.9 742.9,351.7 						"/>
						<path d="M735.4,351.3l1.7,0.2c0-0.2,0.2-0.3,0.5-0.4C736.5,351.2,735.3,351,735.4,351.3z"/>
						<path d="M737.6,351.2c0.6,0,1.1,0,1.4-0.2C738.7,351,738,351.1,737.6,351.2z"/>
						<polygon points="741.6,352.2 741.1,352 739.8,352 						"/>
						<path d="M716.8,351.5l-1.9,0.3c-0.2,0.3,0.3,0.5,1,0.4C716.4,352,717.1,351.9,716.8,351.5z"/>
						<path d="M722.6,354.2c-0.5-0.2-0.6-0.4-0.8-0.7l0,1.2L722.6,354.2z"/>
						<path d="M717.1,354.6c-0.2,0.3-2.7,1-0.3,0.9C716.9,355.1,718.8,354.8,717.1,354.6z"/>
						<polygon points="688.7,353.5 689.2,353.5 689.1,351.4 						"/>
						<path d="M663.7,358.7c2.2,0.5,0.5-1.3,2.5-0.7c0.5-0.5-1.7-0.5-1.1-0.9C663.8,357.6,663.1,357.4,663.7,358.7z"/>
						<path d="M665.1,357.1c0.2-0.1,0.4-0.2,0.7-0.3C665.4,356.9,665.2,357,665.1,357.1z"/>
						<polygon points="382.9,345.1 381.5,344.6 382.4,345.3 						"/>
						<path d="M380.1,346.5l-0.3-1.3l-0.9,1.1C379.2,346.3,379.8,346.2,380.1,346.5z"/>
						<path d="M576.1,360.6l0.1-0.3c-0.2-0.3-0.6-0.4-1.2-0.4L576.1,360.6z"/>
						<polygon points="556.6,359.6 556.9,359.6 556.3,358.4 						"/>
						<path d="M540.2,360.9c0.7,0.1,1.5-0.2,2.1-0.1C540.9,361,540,359.5,540.2,360.9z"/>
					</g>
				</g>
			</g>
		</g>
	</g>
	<g class="st2">
		<g>
			<g>
				<g>
					<g>
						<path d="M468.6,603.4c-0.2,0.2,0.5,0.6,0.6,0.7C469.3,603.6,468.4,603.3,468.6,603.4z"/>
						<polygon points="469.6,598.6 469.8,598.9 469.5,597.8 						"/>
						<path d="M472.1,595.2c-1.4-0.5-0.7,1.4-1.6,1.7l-0.3-0.1l0.7,0.9C471.3,596.9,471.4,595.5,472.1,595.2z"/>
						<path d="M475.9,595.2c-0.5-0.2-0.1-0.7-0.5,0.3c0.1,0,0.1,0,0.2,0C475.7,595.4,475.8,595.3,475.9,595.2z"/>
						<path d="M475.6,595.5C475.4,595.9,476.2,595.6,475.6,595.5L475.6,595.5z"/>
						<path d="M476.6,593.7l0,0.8c0.3,0.1,0.7-0.3,0.8,0C477.6,593.8,477.2,593.7,476.6,593.7z"/>
						<path d="M476.1,592.6l0,0.4C476.2,593,476.3,593,476.1,592.6z"/>
						<path d="M476.1,593.8l0-0.8c-0.2-0.1-0.6-0.3,0,0.3C475.7,593,476,593.4,476.1,593.8z"/>
						<path d="M475.7,593.9c-0.4,0.1-0.9,0.3-0.9-0.5C474.3,594.5,475.2,594.9,475.7,593.9z"/>
						<path d="M471,594.1l-0.6,0.1l0.2,0.6C470.5,594.5,471.4,594.4,471,594.1z"/>
						<path d="M479.4,591.3c-0.2-0.2-0.8-0.3-1.1-0.5l0,0.6C478.6,591.2,479,591,479.4,591.3z"/>
						<path d="M478.3,590.7l0-0.8C477.9,590.3,478,590.5,478.3,590.7z"/>
						<polygon points="474.9,591.6 475.1,593.1 475,591.4 						"/>
						<polygon points="480.9,589.4 481.3,590.1 480.8,588.9 						"/>
						<path d="M481.9,588c0.3,0.6,1,0.3,1.1,0.8c0.2-0.4,0-1-0.1-1.6C482.8,587.7,482.6,587.9,481.9,588z"/>
						<path d="M482.7,586.4c0,0.2,0.1,0.5,0.1,0.9C482.9,587,482.9,586.7,482.7,586.4z"/>
						<path d="M479.1,589.1c0.2,0.1,0.6,0.3,1,0.1l-0.8-0.3C479.2,589,479.2,589,479.1,589.1z"/>
						<path d="M479.2,588.9L479.2,588.9c0.2-0.2,0.3-0.3,0.4-0.4C479.6,588.6,479.5,588.7,479.2,588.9z"/>
						<path d="M479.1,589.2L479.1,589.2C479,589.1,479,589.1,479.1,589.2z"/>
						<path d="M476.6,590.7c-0.1-0.6-0.1-1.5-1.1-1.4C475.7,589.9,476.3,589.8,476.6,590.7z"/>
						<path d="M478,588.8l-0.6,0.4c0.2,0.1,0.5,0.2,0.6,0.5L478,588.8z"/>
						<polygon points="478,588.3 478,588.8 478.2,588.6 						"/>
						<path d="M481.4,586.8c-0.1-0.5,0.1-0.7,0.3-1.1c-0.4,0.2-0.7,0.5-0.9,0.8C480.9,586.7,481.1,587.1,481.4,586.8z"/>
						<path d="M480.3,587.8C480.3,587.7,480.3,587.7,480.3,587.8C480.2,587.7,480.1,587.7,480.3,587.8z"/>
						<path d="M483.9,582.9c-0.1,0-0.1,0-0.2-0.1L483.9,582.9L483.9,582.9z"/>
						<path d="M480.5,586.4c-0.3,0.1-0.3,0.4-0.2,0.7c0.1-0.2,0.2-0.4,0.3-0.6C480.6,586.4,480.5,586.3,480.5,586.4z"/>
						<path d="M483.1,585.3c-0.2,0-0.5,0-0.7,0.1C482.7,585.5,483.2,585.5,483.1,585.3z"/>
						<path d="M480.5,587.7C480.5,587.8,480.5,587.8,480.5,587.7C480.7,587.8,480.6,587.8,480.5,587.7z"/>
						<path d="M480.5,587.7c0-0.2-0.1-0.4-0.2-0.6c-0.1,0.2-0.1,0.4-0.1,0.6C480.3,587.7,480.4,587.7,480.5,587.7z"/>
						<path d="M480.4,578.6c0.6,0.6,0.6,1.6-0.5,1.6c0,0.9,2.3,2.2,3.8,2.7c-0.3-0.2-0.5-0.4-0.4-1.3c-0.5-0.1-1.8,0.5-1.9-0.4
							c0.3-1,0.7-0.4,1.3-0.5c-1-0.3-0.4-1.8-1.6-2.6l-0.1,0.9C480.8,579,480.7,578.5,480.4,578.6z"/>
						<path d="M482.9,583.8l-0.1,0.3c0.3-0.2,0.7-0.1,1.4-0.1c0-0.6-0.2-0.9-0.3-1.1l-1,1L482.9,583.8z"/>
						<path d="M482,585.1c-0.5-0.7-0.4-1.5-1.4-1.7c-0.5,0.7,0.2,0.9,0.2,1.5C481.5,583.7,480.9,585.5,482,585.1
							c-0.1,0.2-0.2,0.5-0.4,0.6c0.2-0.1,0.5-0.2,0.7-0.3c0,0,0,0-0.1,0l0,0l0,0c-0.1,0-0.2-0.1-0.1-0.1c0,0,0,0,0,0
							C482.1,585.2,482.1,585.2,482,585.1c0.4-0.2,0.2,0.1,0.2,0.3c0,0,0.1,0.1,0.1,0.1l0,0l0.5-1.3
							C482.5,584.2,482.3,584.5,482,585.1z"/>
						<path d="M474.4,587.6c0.1,0,0.1,0.1,0.2,0.1C474.6,587.6,474.5,587.5,474.4,587.6z"/>
						<path d="M475.2,587.5c0,0.2,0.3,0.4,0,0.6c-0.4,0.1-0.3-0.3-0.6-0.4c0.1,0.3,0.1,0.9,0.8,0.7l0-0.1c0.6-0.2,1.8-0.1,1.9,0
							C476.5,587.9,476,587.7,475.2,587.5z"/>
						<path d="M478.4,586.1l0.4-1.1l-0.9,0l0.4,0.3C477.7,585.6,478.2,585.8,478.4,586.1z"/>
						<polygon points="484.3,583.1 484.9,583.8 484.4,582.5 						"/>
						<polygon points="485.2,581.9 485.7,582.5 485.6,581.9 						"/>
						<path d="M540.3,520.4l0.2-0.4C540.4,520.2,540.3,520.3,540.3,520.4z"/>
						<path d="M538.3,521.7l0.2,0.4C538.4,521.9,538.4,521.7,538.3,521.7z"/>
						<path d="M509.5,556.5c0.8,0.2,2,0.7,1.4,0.1l-0.7-0.5C510,556.4,509.8,556.5,509.5,556.5z"/>
						<path d="M524.8,536.9c-0.1,0-0.2-0.1-0.3-0.1c0.1,0.3,0.2,0.6,0.2,0.9C524.8,537.4,524.8,537.2,524.8,536.9z"/>
						<path d="M522.9,533.8l0.9,0.1C523.5,533.8,523.2,533.8,522.9,533.8z"/>
						<path d="M551.2,512.7l-0.1-1C550.6,512.1,551,512.3,551.2,512.7z"/>
						<path d="M494.7,570.8c0.5-0.1,0.8-0.2,1.1-0.4C495.1,570.4,494.3,570.2,494.7,570.8z"/>
						<path d="M544.5,528.7c0.1-0.2,0.1-0.4-0.1-0.6C544.4,528.3,544.4,528.5,544.5,528.7z"/>
						<path d="M496.6,569.5c-0.1,0-0.2,0-0.3,0c-0.1,0.3-0.2,0.6-0.5,0.8C496.3,570.4,496.7,570.2,496.6,569.5z"/>
						<path d="M595.1,492.9c0,0,0.1,0,0.1,0.1C595.2,492.9,595.2,492.9,595.1,492.9z"/>
						<path d="M611,496.7c-0.1,0.1-0.3,0.2-0.5,0.2C610.6,497,610.8,496.9,611,496.7z"/>
						<path d="M489.2,577.8C489.1,578.1,489.3,577.9,489.2,577.8L489.2,577.8z"/>
						<path d="M485.7,576.7c0-0.1-0.1-0.2-0.2-0.4C485.6,576.5,485.6,576.6,485.7,576.7z"/>
						<path d="M494.8,563.6L494.8,563.6C494.7,563.5,494.7,563.5,494.8,563.6z"/>
						<path d="M488.6,577.9c0.2,0,0.3-0.1,0.5-0.1C489,577.8,488.8,577.8,488.6,577.9z"/>
						<path d="M489,578.1c-0.1,0.1-0.2,0.1-0.2,0.1C488.8,578.4,488.9,578.4,489,578.1z"/>
						<path d="M489.5,577.5c-0.1,0.1-0.2,0.2-0.4,0.3c0.1,0,0.1,0,0.1,0C489.3,577.7,489.3,577.6,489.5,577.5z"/>
						<path d="M572.3,505C572.4,505,572.4,505.1,572.3,505C572.6,504.6,572.5,504.7,572.3,505z"/>
						<path d="M509.5,544.4C509.5,544.4,509.5,544.5,509.5,544.4C509.5,544.5,509.5,544.5,509.5,544.4L509.5,544.4z"/>
						<path d="M509.9,543.2c0.3,1.1,0,1.2-0.4,1.3l1.9,1.6L509.9,543.2z"/>
						<path d="M545.1,517.1l-1.1-0.2c0.1-1.6,1-1.6-0.2-2.1c1.3,2.4-2.5,1.9-1.1,4.2l-0.7-0.2c0.1-0.1,0.1-0.2,0.2-0.3
							c-1.6-0.6,0.4,2.1-0.9,2.4c-0.5,0.1-1-0.1-0.9-0.5l-0.5,1.1c-0.3,0.1-0.5-0.3-0.2-0.4l-1.2,1l0-0.1c0,0.5,0,1.3-0.1,1.7
							c-0.5-0.1,0-0.3-0.3-0.6l-0.4,1c-0.7-0.4-0.5-1.4,0.1-1.6c-2.2-1.8-0.2,1-2.5,0.6l0.5-0.7c-1.3-1-1.5-0.2-2.8-0.4
							c0.5,0.3,2.9,1,2.5,2c-0.3,0-0.7,0.1-0.8,0.8c-0.5-0.8-0.8-0.3-1.3,0.1l-0.7-1.1c-0.3,0.7,0.1,1.2,0.1,1.9
							c-0.7,0.3-1.4-0.4-2-1c-1.1,0.5,1.6,0.8,0.6,1.8c-1.1,0.2-1.4,1-1.9,2.3c-0.8,0-0.4-0.7-0.8-0.9l0.1,1.2
							c-0.1,0.1-0.3-0.2-0.4-0.4c-0.2,0.6,0.7,1.1,0.3,1.8c0.7,1.3-2.5-0.7-2.4,1.2c-0.4-0.1-0.4-0.7-0.7-1.1
							c-0.5,1.7-0.5,1.3-0.5,3.1l-1.3-0.1c1.1,0.3,1.1,1.8,1,3c0.5,0.2,0.9,0.4,1.1,0.5c-0.2,0.4-0.4,0.9-0.6,1.3
							c-0.2-0.1-0.4-0.5-0.6-1c0,0.1,0,0.3,0,0.4c-0.6-0.1-0.9-0.8-1.1-1.6c0.3,0.1,0.6,0.2,0.8,0.3c-0.2-0.8-0.5-1.7-1-2.2
							c0,0.2,0,0.4-0.1,0.5c-0.1-0.2-0.1-0.4-0.2-0.5c-0.1-0.1-0.1,0.2,0,0.6l-1.1-1l0.3,0.5l-1.8,0.3c0,1.9,0.5,4.2-0.6,5.8
							c-0.3-1.1-1-1.4-1.7-2.4c1.2,0.7,0.8-1.3,1.7-1.7c-0.5,0.2-0.8-0.3-0.8-0.6l-0.6,2c-0.6-0.8-0.8-0.4-1.4-0.4
							c1.5,1.4-0.2,1.8-0.3,2.8c-0.5-0.5-0.8-1.1,0-1.5c-1.7-0.6,0.5,2.6-1,2.2c0.2-0.1,0.3-0.1,0.1-0.5c0,0.8-1.2,1.2-1.4,0.5
							l0.2-0.1c-1.2,0.7-3.3,2.7-2.3,4.1c-0.2-0.2-1.2-1.7-1.3-2c0.6,2,1.2,4,1.9,5.9c-0.8-1.2-3.7-3.3-3.4-4.7
							c-0.4,0.1-0.9,0.2-1,1c0.3,0,1.8,1.2,1.7,1.5c-1.7-0.7-1-0.3-2.7-0.6c0.5,0,1.7,2,1.2,2.3c-0.2-0.3-1.5-1.7-1.5-2l0.5,2.6
							c0-0.5-1.2-1.5-1.9-1.7c0.4,0.2-0.9,0.7-1,1.1l0.8,0c-1.4,0.7,1,3.3-0.1,4.3c-0.2-0.5-1.6-2.4-2.4-2.1
							c0.5,1.1,2.6,5.1,2.3,6.6l-0.6-0.3l-0.2,1.2c-0.7-1.7-2-5.5-2.2-7.2c-0.8,0-0.6-0.5-1.2,0.2c-0.6-0.2-0.3-1-0.1-1.2l-1.7,1.1
							c1,0.9-0.2,2,0.6,2.8l0.6-2.5c1,0.9,1.7,3.6,0.5,4.4c-0.6-0.1-1.5-1.9-1.8-2.2c0.2,0.5-0.3,1.6-0.7,1.4l-0.1-0.9
							c-0.9,0.2,0.3,2.2-1.2,1.9c-0.3,0.2-1.9-0.6-1.4,0c1.5,0.7,4.8,4.1,5.4,5.1c-0.1,0-2.2,0.1-3-0.2c-1.2-0.5-1.5-2.6-2.5-3
							c0.2,0.3,0.4,0.8,0.4,1c-0.5,0-0.7-0.9-1.1-0.3c0.9,1-1.1,1,0.6,1.1c-0.2,0.8-0.7,0.3-1.3,1c0.8,0.4,1.6,2.6,1.4,3.4
							c-0.2-0.3-0.7-0.5-0.9-0.6c-1.1,1-2.1,1.1-3,2.1c-0.3-0.1-1.1,0.1-1.3-0.5c0,0.3,0.3,0.8,0,1.1c-1.4-0.2,0.5-0.8-0.9-1.3
							c0.5,0.6,0.1,1.5,0,2.3c1,0.7,1.1-0.8,1.2-1.6c1.2,1.2,1.8,3.1,1.4,4.7c-0.5,1.1-1.1-0.4-1.1-0.1c-1.6,1.3,0.9,3.3-1.1,3.8
							c-1.3-0.2-1.6-1.4-2.3-1.8c0.3-1,1.4-0.6,1.8-1.1l-0.9,0.2c-0.1-0.5,0.1-1.1,0.6-1.1c-1.1-0.2-2.5,2.5-4.3,3.1
							c0.1,0.5,0,1.1,0.5,1.2l0.2-0.5c1,0.2,0.3,1.5,1,1.3c0,0.9,0.2,2.1-0.8,2.5l-1-0.7c0.3,0.2,1,0,0.9-0.4c0.1,0.6-2.2,0-1.3,1.4
							l1.1,0c0,0.9,0.5,2.4-0.4,2.8c1.2,0.5,0-0.2,1.5,0.2c-1.7-0.7,1.5-1.6-0.5-2.2c1.6,0.6,1.2-0.4,2.8,0
							c-0.3-0.2-0.8-0.3-0.2-0.7c-0.1-0.1-0.1-0.3-0.2-0.4c0,0,0,0,0.1,0l-0.1,0c0-0.1,0-0.1,0,0c-0.2,0-0.5,0-0.7-0.1
							c-0.5-0.9,0.3-1.7,0.2-2.3c0.4-0.2,0.2,0.4,0.7,0.6l-0.2-0.9c0.7,0.6,1.9,0.2,1.6,1.2l0.6-0.6c0.7-0.1,1.3-0.5,1.4-1
							c0.4-0.2,0-1.5,0.3-0.7l0.5-1.4l0.2,0.1c1-0.9,0.9-3.1,3.1-3.2c0.2-0.5,0.3-1,1-1.4l0.7,0.4c0.2-0.6,1.8-0.7,1.4-1.5
							c1.9,1,2.3-1.8,3.4-2.2l-0.7-0.7c0.6-0.5,0.9-1.2,1.2-2.1l-0.7-0.6c0-1.1,1.9-1,2.7-1.9c0.2,0.3-0.1,0.4-0.4,0.5
							c2.5,0.5,1.3-3.2,3.2-3c0-0.5,0.3-0.5,0.6-0.5c0,0,0,0.1,0,0.1c0,0,0.1,0,0.1-0.1c0.2,0,0.4,0,0.7,0c-0.2-0.1-0.5-0.1-0.6-0.1
							c0.2-0.2,0.4-0.5,0.5-1l0.8,0.6c0,0,0,0,0-0.1c0.5,0-0.1-0.5-0.7-0.9c0-0.2,0-0.5,0-0.8c1.3,1,0.4-1.1,1.8-0.1
							c-0.3-0.8,1-1.7,0.1-3.1c0.2,0.2,0.3,0.2,0.2,0.3c0.4-0.1,0.9-0.3,0.9-0.9l0.9,0.8l-0.4-1.9c0.9,0.2,1.4,0.4,1.6,1.4
							c0.1-2,0.5-1.1,0.4-3l0.5,0.6c0.3-0.3,0.1-1.5,0.7-1.2c1.7,0.6,3.6-2.8,6.4-3.2c-1.8-1.5,1.5,0.1,0.5-1.3
							c0.5,0.3,0.9,0.4,0.9,1c0.6-1.2,2-0.4,1.7-2.1c0.4,0.4,0.3,0.8,0.6,1c0-0.2,0-0.6,0.3-0.4c0.3,0.2,0.1,0.5,0.1,0.8
							c0.9-0.8,0-2.3-0.9-3.6c1,0.2,1.1-0.1,0.9-1.2c0.5,0.3,1.1,0.5,0.6,1.1c0.4-0.2,2.6-1,1.8-2c0.3,0.2,0.5-0.3,0.5-0.5
							c0.8-0.5,1-0.5,1.7-1.1l-0.3,0c-0.6-1.5,0.4-0.8,0.9-1.4l0.1,0.1c2.1-0.1,0.3-0.9,2.5-0.8l-0.6-0.7c-1.1-1.8,2,0.1,2.3-1.1
							l-0.6-0.2c0.1-0.9,2.9,1.4,3.5,1.3c0.2,0.1,0,0.3-0.1,0.5c1.9,0.2-0.6-1.1,0.2-2c0.5,0.4,0.8,1.6,1.4,1.3c0.6,0.2,0.5-3,2-2.5
							c-0.5-0.3-0.9-0.6-0.7-1.2c0.5-0.6,2.8,0.5,2.5-1.2c0.2,0.1,0.3,0.2,0.3,0.3c0.3-0.7,1.2-1.6,1-2.6c2.2,2.5,2.2-3.3,3.8-0.7
							l1.4-1.1l0.1,0.3c1.1-0.4,1.1-1.2,1-2.1c0.3,0,0.3,0.4,0.4,0.5c1.8-0.3,1.8-0.5,2.3-2.6l0.6,0.8c0-0.7,2.9,0.2,3.7-1.7
							c0,0.1,0.1,0.3,0.1,0.5c1-2,5.2,0.3,4.1-3.2l0.7-1.4c-1.5,0.5-0.5-1.5-1.4-1.7c0.5-0.5,1.9,0.2,1.3,0.7l-0.2-0.1
							c0.6,1.8,2.1-0.3,2.6,0.8c1.4-0.8,2.8-1.2,4.3-1.7c1.5-0.4,2.9-0.8,4.3-1.4l-0.9-1.2l1-0.4c0.4,0.2,0.8,0.9,0.1,1.1
							c0.7,0.6,0.8-1.2,0.7-1.5c1.5-0.1,0.2,1.8,0.6,1.6l0.5-0.3l-0.2-0.1c0.2-0.7,0-1.3,0.8-1.6c0.6,0,0.6,0.7,0.9,0.7
							c0,0.1,0.1,0.1,0.3-0.1l1.2-0.4l-0.9-0.8c0.3-0.8,1.1-0.5,0-1.4c1.6,1.4,4.7-1.3,5.4-0.9c0.4-1.1,1.1-1.4,2.1-1.7
							c-0.3-0.1-1-1.3-0.1-1.4c0.7,2.6,1.9,0.5,3.2,2c-1-1,2.1-1.2,0.5-2.5c0.7-0.1,0.4,0.9,1.1,1.3c1.2-1.6,3.7-0.7,5.5-1.8
							c-0.1-0.3-0.6-0.7-0.4-1.4l1.6,1.3c0.3-0.3-0.4-2,0.8-1.2c-0.2-0.2-0.5-0.6-0.3-0.8c4.4,0.2,7.4-4.1,12.3-2.3
							c-0.7-0.5-0.4-0.7,0-0.8c-0.3-0.1-0.3-0.8-0.5-1.3l2,0.8c-0.1-1.4,1.7-0.6,1.5-1.9l-0.5,0.4c0.3-1.6-1.9-2.9-2.4-4.7
							c-0.3,1.9-2.8-1.8-3.4,1c-0.4-0.3,0.1-0.7-0.2-1c-0.1,0.9-0.4,1.2-1.3,1.1l0-0.2c-2,0.9-3.1,0.4-5.6,0.7l0.5,0.8
							c-0.5,0.1-0.7-0.2-1-0.3c-0.1,1.6,1.4-0.4,1.4,1.3c-1.3-1.6-3.5,1.2-4.7-0.7c-0.8,0.3,0.6,1-0.2,1.2l-0.4-0.5l0.1,0.8
							c-0.5,0.1-1-0.5-1.2-1c0.1,0,0.3-0.3,0.4-0.3c-0.9-0.4-1.7,0.9-2,0.8l0.9,0.1c-1.9,1.3-4.7,1.6-6.2,3.5l0.3,0.4
							c-1.2,1.4-1.4,0-2.9,1.1l0-0.1c-0.2,0.5-0.5,0.9-1,1.1c0.2-0.7-1.2-0.6-0.9-1.4c-1.3,1.5-0.5,1-0.9,3l-0.5-0.6
							c-0.1,0.8,0,1.1-0.7,1.6c0.4-0.9-1-0.8-0.6-1.9c-2.4-0.7-1.9,2.6-3.6,0.8c0.1,2.2,1.9,0.4,1.7,1c0.6,0.5,0,1.7-0.6,1.7
							c-0.6,0.2-2-2-3.4-1.3c0.1-0.1,0.1-0.2,0.2-0.3c-0.7-0.2-0.7,1.1-1.7,0.6c0.2,1.3-0.8,0.3-0.3,1.8l1.1-0.9
							c-0.5,0.7-0.4,2.7-1.9,2.4c0-0.3,0.1-0.9,0.2-1.2c-0.5-0.3-0.5,0.6-1.1,0.3c-0.6-1.5,1.3-1,1.6-2.5c-0.7-0.4-0.9,1.7-1.3,0
							c0.4,2.2-1.5,0.4-1.6,2.3l-0.4-0.9c-0.1,0.2-0.2,0.8-0.5,0.9l-0.1-1.3c-0.3,1.3-1.8-0.1-2.3,0.7c1.5-0.8,0.8,0.9,1.8,1.2
							c-1.3,2-2.2-1.7-4-0.3c0.2-0.3,1.3,0,1.1,0.6c-0.5,0-1.2,0-1.6-0.4c-1.3,0.9,0.7,0.8,0.3,1.6c-1-0.8-0.4,0.8-0.9,1.4l-0.4-0.9
							c-1.8,0.2,0.5,2-1.2,2.1l0-1.5l-0.6,0.7l-0.4-1c-0.4,1.1-0.7,1.1-1.6,1.2c0.5,0.5,0.7,1.6,0.1,2c-0.7-0.3-0.2-0.9-1.1-0.3
							c-0.1-0.6-0.2-1.4,0.6-0.9c-0.1-0.3-0.1-0.6-0.2-0.9c-0.8-0.3-1.3,0.5-1.7,0.7c0.2,0,0.3-0.1,0.5,0l-0.7,1.9
							c-0.4-0.2-0.4-0.5-0.3-0.9c-0.2,0.2-0.2,0.7-0.6,1c-0.3-0.7-0.7-1.4-0.3-2.1l-0.9,1.5c-0.3-0.2-1.1-0.4-1.1-0.8
							c-1,0-1,2.3-2.3,2.3c0,0.2,0,0.3-0.1,0.6c-1,0.4-2.3,0-2.8,1.6l-1.3-0.8c-0.7,0.8,1.7,1,0.6,2.3c-0.7,1-1-0.8-1.5-0.9
							c-0.1,0.9-0.2,2.6-1.7,2.2C544.6,517.4,544.9,517.4,545.1,517.1z M535.5,524.1c0.1-0.3,0.1-1.1,0.6-0.7
							C536.5,524.5,536,524.1,535.5,524.1z M522.3,536.5c-0.1-0.4,0.2-0.4,0.7-0.3C522.9,536.4,522.7,536.5,522.3,536.5z
							 M490.8,574.8C490.8,574.8,490.8,574.8,490.8,574.8C491.4,574.6,491.2,574.7,490.8,574.8z M489.9,575.3c0,0.2,0.1,0.3,0.3,0.3
							c-0.1-0.2,0-0.4,0.2-0.6C490.1,574.9,489.9,574.9,489.9,575.3z M578.1,509.5l-0.3-0.1C578.1,508.9,578.1,509.2,578.1,509.5z"
							/>
						<path d="M523.1,534.2c0.2,0.1,0.3,0.2,0.4,0.4C523.5,534.4,523.4,534.2,523.1,534.2z"/>
						<path d="M551.2,512.9C551.2,512.9,551.2,512.9,551.2,512.9c0-0.1,0-0.1,0-0.2L551.2,512.9z"/>
						<path d="M495.1,557.9c0.3-0.1,0.5,0,0.7,0.1C495.6,557.8,495.4,557.7,495.1,557.9z"/>
						<path d="M487.5,580.5l0.2-0.7c-0.2,0.3-0.4,0.2-0.6,0.2C487.3,580.2,487.6,580.3,487.5,580.5z"/>
						<path d="M479.2,581c0,0.2-0.1,0.2-0.1,0.3l0.4,0.3C479.7,581.3,479.6,580.8,479.2,581z"/>
						<path d="M484.7,578.8c-0.7-0.5-0.7,0-0.9,0.5c0,0,0,0,0.1-0.1C484.6,580.1,484.6,579.5,484.7,578.8z"/>
						<path d="M483.7,579.4c-0.1,0.1-0.1,0.3-0.3,0.3C483.8,580.1,483.6,579.7,483.7,579.4z"/>
						<path d="M489.4,576.6c-0.3,0,0.7,0.8,0.4,0.7C490.4,578.2,489.8,575.4,489.4,576.6z"/>
						<polygon points="482.4,577.4 483.3,577.9 482.8,577.2 						"/>
						<path d="M485.4,575.1l-0.7,0.4c0.1,0.1,0.1,0.2,0.1,0.4C485.1,575.5,485.6,575.3,485.4,575.1z"/>
						<path d="M484.8,575.8c-0.2,0.2-0.3,0.4-0.3,0.6C484.6,576.3,484.7,576.1,484.8,575.8z"/>
						<polygon points="482.8,576.4 483.1,576.4 483.5,576 						"/>
						<path d="M490.9,569.2l0.3-0.8c-0.2-0.3-0.5-0.3-0.6,0C490.7,568.8,490.6,569.1,490.9,569.2z"/>
						<path d="M487.2,569.2c0.3,0,0.5,0.1,0.8,0.2l-0.9-0.9L487.2,569.2z"/>
						<path d="M488.6,567.2c-0.2-0.3,0.1-1.6-0.6-0.7C488.2,566.8,487.9,567.6,488.6,567.2z"/>
						<polygon points="498.4,559.4 498.2,559.6 499.7,561 						"/>
						<path d="M503,548.3c-1.1,0.3,0.7,1.1-0.4,1.2c0.2,0.5,0.9-0.1,1,0.3C503.7,549.1,504.1,549.1,503,548.3z"/>
						<path d="M503.6,549.9c0,0.1,0,0.3,0,0.4C503.6,550.1,503.6,550,503.6,549.9z"/>
						<polygon points="613.5,497.1 614.2,497.3 613.6,496.8 						"/>
						<path d="M614.2,495.3l0.5,1.2l0-1.2C614.6,495.4,614.4,495.6,614.2,495.3z"/>
						<path d="M532.6,522.9l0.1,0.3c0.3,0.2,0.4,0.2,0.7,0L532.6,522.9z"/>
						<polygon points="540.3,518.9 540.2,519 541,519.8 						"/>
						<path d="M545.7,513.8c-0.3,0.1-0.4,0.5-0.7,0.6C545.4,513.9,546.5,515,545.7,513.8z"/>
					</g>
				</g>
			</g>
		</g>
	</g>
</g>
<g id="Capa_4" class="st0">
	<path class="st3" d="M482.9,393.9c-88.6-8.2-155.3,44.7-153.4,90.1c1.9,44,68.8,91.9,154,82.7"/>
	<path class="st3" d="M608.8,397c-53.9-8.5-94.6,44.1-93.5,89.5c1,44,41.7,92.2,93.5,83.3"/>
	<path class="st3" d="M591.9,570.8c53.9,8.5,94.6-44.1,93.5-89.5c-1-44-41.7-92.2-93.5-83.3"/>
	<path class="st3" d="M608.8,397c31.3,3,66,4.9,103.7,4.4c31.5-0.4,60.9-2.4,87.7-5.3"/>
	<path class="st3" d="M691.4,578.4c20.9-26.3,42.8-56.6,64.4-91.1C779,450.5,797.8,415.2,813,383"/>
	<line class="st3" x1="677.1" y1="581.9" x2="867.9" y2="578.6"/>
	<path class="st3" d="M847,578.7c12.5,0.2,25.9-0.1,40-0.9c15.7-0.9,30.4-2.4,44-4.3"/>
	<path class="st3" d="M848,553.1c-3.7-6.3-22.1-38.9-1.2-70.4c16.2-24.5,46.7-33.9,57.1-36.7"/>
	<path class="st3" d="M990.4,518.8c-15,31.9-44.4,54.4-76.3,58.2c-42.3,5-67.4-25.4-70.2-28.9"/>
	<path class="st3" d="M838.6,374c52.7-14,105.1-0.8,135,34c39.9,46.5,18.6,107.3,16.4,113.1"/>
	<path class="st3" d="M1035.6,585.8c6.5-29,11.7-68.2,8-114.3c-4.4-54.6-19.8-98.8-33.3-129"/>
	<path class="st3" d="M1030.2,395c17.7-30,55.3-42.3,83-32c28.9,10.8,34.9,41.6,35.3,43.6"/>
	<line class="st3" x1="476.6" y1="566.7" x2="591.9" y2="570.8"/>
	<path class="st4" d="M614,345.9c12.3-5,27.2-12.3,43-22.9c14.2-9.6,25.6-19.6,34.4-28.3"/>
</g>
<g id="Capa_2_copia" class="st0">
	<path class="st3" d="M328.1,599.5c-27.6-33-71-78.7-132.5-123.1C139,435.6,86.7,409.9,48.8,394.1"/>
	<path class="st4" d="M34.4,392.8c78.1,2.2,158.9,3.4,242.2,3.2c72.9-0.1,143.8-1.3,212.7-3.2"/>
	<path class="st3" d="M235.3,509.5c-16,5.6-37.9,15-61.4,31.1c-30.4,20.8-50.4,43.7-62,58.9"/>
	<path class="st4" d="M223.3,254.9c-10.7,51.5-24.9,107.9-44,167.8c-21.4,67.4-45.3,127.7-69.2,180.6"/>
	<path class="st4" d="M223.8,266.6c22.9,54.2,44.6,112.1,64.2,173.6c18.3,57.4,33.3,113.2,45.5,167"/>
	<line class="st3" x1="477.6" y1="559.7" x2="477.6" y2="559.7"/>
</g>
<g id="Capa_2_copia_2">
	<g>
		<path class="st5" d="M729.2,761.8c-55.9-66.7-143.6-159.1-268.1-249c-114.3-82.6-220.1-134.5-297-166.6"/>
		<path class="st6" d="M135.1,343.6c158,4.5,321.5,6.8,490.1,6.5c147.5-0.3,291-2.5,430.3-6.5"/>
		<path class="st5" d="M541.4,579.7c-32.3,11.3-76.7,30.4-124.3,62.9c-61.6,42-102,88.3-125.3,119.2"/>
		<path class="st6" d="M517.2,64.7c-21.7,104.3-50.4,218.3-89,339.4c-43.4,136.3-91.7,258.4-139.9,365.4"/>
		<path class="st6" d="M518.2,88.2c46.3,109.7,90.1,226.7,129.8,351.1c37,116.1,67.3,229,92.1,337.9"/>
	</g>
</g>
</svg>
