<svg id="svg" version="1.1" xmlns="http://www.w3.org/2000/svg" xmlns:xlink="http://www.w3.org/1999/xlink" width="400" height="400" viewBox="0, 0, 400,400"><g id="svgg"><path id="path0" d="M192.540 83.947 C 192.255 84.145,191.791 84.202,190.624 84.180 C 189.654 84.162,188.690 84.253,188.024 84.424 C 187.276 84.615,186.673 84.661,185.974 84.580 C 185.076 84.476,184.923 84.507,184.303 84.917 C 183.901 85.183,183.254 85.418,182.726 85.490 C 182.146 85.568,181.687 85.746,181.424 85.993 C 180.996 86.396,180.041 86.647,178.897 86.659 C 178.520 86.663,177.845 86.812,177.397 86.990 C 176.950 87.168,175.941 87.361,175.157 87.419 C 173.485 87.543,173.450 87.559,173.110 88.377 C 172.846 89.011,172.782 89.059,171.962 89.238 C 171.268 89.390,169.806 90.666,169.591 91.307 C 169.408 91.855,166.191 93.974,165.513 93.993 C 165.317 93.999,163.819 94.646,162.833 95.151 C 162.696 95.221,162.413 95.620,162.205 96.037 C 161.937 96.574,161.669 96.854,161.288 96.995 C 160.416 97.318,160.268 97.421,159.893 97.972 C 159.696 98.261,159.209 98.755,158.809 99.070 C 158.410 99.385,157.930 99.779,157.743 99.947 C 157.555 100.115,157.286 100.229,157.144 100.202 C 157.002 100.175,156.790 100.268,156.673 100.410 C 156.555 100.551,156.335 100.667,156.183 100.667 C 156.032 100.667,155.760 100.768,155.579 100.892 C 155.398 101.016,155.063 101.163,154.833 101.220 C 154.391 101.330,153.272 102.710,152.893 103.615 C 152.771 103.907,152.370 104.575,152.002 105.101 C 151.634 105.626,151.333 106.191,151.333 106.357 C 151.333 106.523,151.137 106.788,150.897 106.945 C 150.657 107.102,150.322 107.554,150.153 107.949 C 149.976 108.362,149.733 108.667,149.582 108.667 C 149.101 108.667,148.532 109.424,148.412 110.224 C 148.333 110.748,148.203 111.019,147.997 111.084 C 147.596 111.212,146.394 113.103,146.251 113.833 C 146.103 114.586,145.683 115.860,145.511 116.079 C 145.437 116.173,145.283 116.550,145.168 116.917 C 144.859 117.905,143.330 121.349,142.975 121.859 C 142.805 122.102,142.667 122.371,142.667 122.456 C 142.667 122.541,142.363 122.855,141.992 123.153 C 141.306 123.704,140.186 125.766,139.926 126.954 C 139.815 127.463,139.699 130.290,139.607 134.750 C 139.585 135.850,139.483 136.902,139.380 137.088 C 138.713 138.303,138.438 149.319,139.015 151.750 C 139.189 152.483,139.332 153.311,139.332 153.590 C 139.333 153.868,139.483 154.390,139.667 154.750 C 139.850 155.110,140.000 155.674,140.000 156.005 C 140.000 156.336,140.107 156.976,140.238 157.428 C 140.369 157.880,140.528 158.700,140.592 159.250 C 140.719 160.349,141.423 162.766,141.659 162.912 C 141.741 162.963,141.926 163.359,142.071 163.794 C 142.262 164.366,142.549 164.757,143.116 165.216 C 143.872 165.827,144.937 167.697,144.725 168.040 C 144.638 168.182,145.008 169.467,145.457 170.583 C 145.605 170.950,146.006 171.593,146.349 172.013 C 146.691 172.433,147.093 173.033,147.240 173.346 C 147.727 174.380,147.957 174.694,148.443 174.990 C 149.013 175.336,150.903 177.893,151.057 178.525 C 151.116 178.767,151.427 179.281,151.749 179.665 C 152.070 180.050,152.333 180.505,152.333 180.677 C 152.333 180.848,152.558 181.245,152.833 181.558 C 153.108 181.871,153.333 182.193,153.333 182.274 C 153.333 182.354,153.480 182.511,153.658 182.623 C 153.837 182.734,154.033 183.090,154.094 183.413 C 154.154 183.736,154.382 184.169,154.599 184.375 C 154.816 184.581,154.996 184.813,154.997 184.890 C 154.999 184.967,155.362 185.380,155.805 185.807 C 156.248 186.234,156.697 186.745,156.803 186.942 C 156.908 187.139,157.314 187.456,157.706 187.647 C 158.097 187.837,158.679 188.329,159.000 188.740 C 159.321 189.151,159.637 189.490,159.703 189.494 C 159.768 189.497,160.084 189.730,160.405 190.012 C 160.725 190.293,161.239 190.593,161.547 190.678 C 161.944 190.787,162.175 190.989,162.345 191.374 C 162.519 191.770,162.832 192.035,163.500 192.355 C 164.004 192.596,164.712 193.064,165.073 193.395 C 165.434 193.726,165.861 194.039,166.023 194.090 C 166.184 194.142,166.365 194.336,166.424 194.523 C 166.483 194.709,166.749 194.938,167.016 195.030 C 167.282 195.123,167.500 195.293,167.500 195.407 C 167.500 195.755,168.047 196.116,168.732 196.221 C 169.089 196.275,169.546 196.475,169.747 196.664 C 169.964 196.867,170.535 197.081,171.150 197.190 C 171.770 197.299,172.368 197.524,172.636 197.749 C 173.968 198.868,175.758 199.477,177.833 199.516 C 178.573 199.530,179.185 199.627,179.333 199.753 C 179.631 200.006,181.221 200.420,182.500 200.577 C 183.004 200.638,183.792 200.788,184.250 200.910 C 185.657 201.283,186.503 201.354,187.074 201.147 C 187.530 200.982,187.780 201.008,188.673 201.309 C 189.924 201.732,191.687 201.784,192.386 201.420 C 192.744 201.233,193.041 201.211,193.636 201.326 C 195.266 201.640,196.454 201.673,196.672 201.410 C 196.835 201.214,197.106 201.185,197.956 201.272 C 198.779 201.357,199.066 201.329,199.174 201.155 C 199.290 200.968,199.514 200.993,200.461 201.297 C 201.292 201.565,202.039 201.670,203.178 201.679 C 205.997 201.701,207.481 202.056,211.833 203.749 C 212.154 203.873,212.904 204.014,213.500 204.061 C 214.505 204.141,215.922 204.621,218.319 205.693 C 218.724 205.874,219.603 206.084,220.272 206.159 C 221.475 206.294,221.503 206.308,222.537 207.316 C 223.112 207.878,223.696 208.374,223.833 208.419 C 223.971 208.465,224.241 208.745,224.433 209.042 C 224.665 209.401,225.207 209.796,226.042 210.214 C 226.735 210.560,227.345 210.958,227.399 211.097 C 227.452 211.236,227.891 211.537,228.373 211.766 C 228.855 211.994,229.438 212.290,229.667 212.422 C 229.896 212.554,230.271 212.664,230.500 212.667 C 231.122 212.674,231.691 213.022,231.998 213.583 C 232.148 213.858,232.620 214.274,233.046 214.507 C 233.473 214.740,233.998 215.096,234.213 215.299 C 234.429 215.501,234.722 215.667,234.865 215.667 C 235.218 215.667,235.427 215.948,235.730 216.835 C 235.871 217.246,236.158 217.696,236.367 217.833 C 237.327 218.465,237.927 219.164,238.146 219.909 C 238.279 220.358,238.539 220.794,238.761 220.939 C 238.972 221.078,239.193 221.405,239.250 221.667 C 239.307 221.928,239.518 222.250,239.719 222.381 C 239.919 222.512,240.189 222.912,240.317 223.268 C 240.446 223.625,240.670 224.004,240.816 224.110 C 240.961 224.217,241.268 224.852,241.498 225.523 L 241.917 226.741 242.667 226.865 C 243.568 227.013,244.390 227.831,245.061 229.249 C 245.300 229.754,245.567 230.167,245.653 230.167 C 245.740 230.167,245.861 230.335,245.923 230.542 C 246.053 230.976,246.870 232.321,247.517 233.167 C 247.763 233.487,248.052 234.050,248.160 234.417 C 248.268 234.783,248.531 235.458,248.745 235.917 C 248.976 236.411,249.133 237.055,249.130 237.500 C 249.126 238.283,249.252 238.642,249.918 239.750 C 250.597 240.877,250.789 241.407,250.712 241.934 C 250.621 242.553,251.196 243.871,251.894 244.642 C 252.053 244.817,252.287 245.598,252.432 246.434 C 252.573 247.250,252.780 248.104,252.891 248.333 C 253.095 248.753,253.110 250.533,252.928 252.667 C 252.877 253.262,252.838 255.063,252.841 256.667 C 252.854 263.139,252.770 265.936,252.540 266.750 C 252.436 267.117,252.310 267.717,252.259 268.083 C 252.209 268.450,252.120 269.044,252.062 269.403 C 251.978 269.924,252.019 270.102,252.263 270.280 C 252.557 270.495,252.555 270.513,252.217 270.750 C 252.024 270.886,251.748 271.391,251.604 271.873 C 251.461 272.355,251.191 273.264,251.005 273.893 C 250.819 274.521,250.667 275.294,250.667 275.611 C 250.667 275.928,250.485 276.576,250.264 277.052 C 249.630 278.412,249.333 279.185,249.332 279.479 C 249.332 279.628,249.209 279.975,249.060 280.250 C 248.910 280.525,248.673 280.975,248.532 281.250 C 248.391 281.525,248.106 281.976,247.898 282.253 C 247.690 282.530,247.421 283.122,247.302 283.570 C 247.132 284.205,246.949 284.473,246.465 284.793 C 245.873 285.185,245.364 285.759,244.542 286.965 C 244.335 287.267,244.167 287.590,244.167 287.682 C 244.167 288.012,243.654 288.833,243.448 288.833 C 243.143 288.833,242.667 289.722,242.667 290.292 C 242.667 290.582,242.522 290.911,242.310 291.099 C 242.114 291.274,241.858 291.642,241.740 291.917 C 241.622 292.192,241.102 292.942,240.585 293.583 C 240.067 294.225,239.535 294.956,239.401 295.208 C 239.267 295.460,239.086 295.667,238.999 295.667 C 238.567 295.667,235.682 298.549,235.269 299.392 C 234.751 300.451,234.503 300.693,233.319 301.293 C 232.823 301.544,232.336 301.917,232.236 302.122 C 231.957 302.696,230.544 304.167,230.270 304.167 C 229.803 304.167,227.519 305.520,226.811 306.217 C 226.122 306.894,225.647 307.216,224.573 307.733 C 224.293 307.867,223.984 308.153,223.887 308.366 C 223.748 308.671,223.480 308.803,222.646 308.976 C 220.964 309.324,218.824 309.980,217.914 310.425 C 217.305 310.722,216.802 310.833,216.062 310.833 C 214.920 310.833,212.652 311.739,212.341 312.319 C 212.249 312.491,211.953 312.709,211.683 312.803 C 211.413 312.897,211.109 313.129,211.008 313.318 C 210.684 313.924,208.872 314.484,205.833 314.917 C 204.737 315.074,204.500 315.163,204.500 315.418 C 204.500 315.805,204.772 315.850,206.109 315.684 C 207.207 315.548,207.426 315.563,207.587 315.784 C 207.787 316.057,207.651 316.070,210.500 315.503 C 210.912 315.420,211.560 315.349,211.938 315.343 C 212.316 315.338,212.714 315.227,212.821 315.098 C 213.139 314.715,214.645 314.574,214.887 314.904 C 215.160 315.278,217.529 315.156,219.000 314.692 C 219.596 314.504,220.533 314.307,221.083 314.256 C 225.073 313.879,225.601 313.793,226.313 313.401 C 226.714 313.181,227.204 313.000,227.402 313.000 C 227.601 313.000,228.054 312.852,228.409 312.670 C 228.781 312.481,229.215 312.381,229.430 312.435 C 229.640 312.488,230.147 312.377,230.590 312.181 C 231.022 311.990,231.557 311.833,231.778 311.833 C 231.999 311.833,232.383 311.685,232.632 311.504 C 233.017 311.224,234.596 310.744,236.187 310.425 C 236.473 310.368,236.697 310.163,236.833 309.833 C 236.969 309.506,237.196 309.297,237.479 309.238 C 238.750 308.975,239.373 308.758,239.452 308.550 C 239.501 308.423,239.825 308.174,240.171 307.998 C 240.518 307.821,240.944 307.495,241.118 307.274 C 241.471 306.825,243.003 305.995,243.595 305.932 C 243.807 305.909,244.078 305.818,244.198 305.729 C 244.318 305.640,244.792 305.472,245.250 305.356 C 245.708 305.241,246.233 305.009,246.417 304.842 C 246.600 304.675,246.938 304.482,247.167 304.413 C 247.396 304.345,247.621 304.235,247.667 304.170 C 247.862 303.894,249.568 303.167,250.022 303.167 C 250.669 303.167,251.450 302.755,251.579 302.345 C 251.639 302.158,251.944 301.941,252.300 301.833 C 253.566 301.447,254.268 301.078,254.895 300.464 C 255.249 300.117,255.690 299.833,255.875 299.833 C 256.060 299.833,256.465 299.563,256.776 299.234 C 257.199 298.786,257.520 298.611,258.046 298.544 C 259.324 298.380,261.106 297.079,261.745 295.842 C 261.890 295.562,262.100 295.330,262.213 295.327 C 262.325 295.323,262.676 295.098,262.994 294.827 C 263.311 294.555,263.710 294.333,263.880 294.333 C 264.507 294.333,266.549 292.799,266.746 292.180 C 266.800 292.008,267.273 291.661,267.797 291.407 C 268.321 291.154,268.862 290.881,269.000 290.801 C 269.137 290.721,269.531 290.534,269.875 290.386 C 270.219 290.237,270.500 290.064,270.500 289.999 C 270.500 289.935,270.713 289.660,270.973 289.388 C 271.233 289.116,271.586 288.655,271.758 288.364 C 271.937 288.062,272.297 287.761,272.600 287.661 C 272.892 287.565,273.270 287.290,273.440 287.051 C 274.289 285.858,275.693 284.667,276.250 284.667 C 276.727 284.667,276.895 284.544,277.444 283.792 C 278.361 282.536,278.548 282.333,278.791 282.333 C 278.911 282.333,279.080 282.146,279.167 281.917 C 279.254 281.688,279.401 281.500,279.495 281.500 C 279.765 281.500,281.928 279.289,282.232 278.701 C 282.471 278.239,282.596 278.167,283.154 278.167 C 283.894 278.167,284.656 277.459,284.984 276.466 C 285.087 276.152,285.380 275.779,285.647 275.621 C 286.170 275.312,287.410 273.379,287.596 272.583 C 287.758 271.888,287.927 271.717,288.573 271.596 C 288.881 271.539,289.208 271.399,289.298 271.287 C 289.697 270.795,290.695 268.616,290.784 268.044 C 290.930 267.093,291.258 266.573,292.039 266.049 C 292.758 265.567,292.785 265.516,293.354 263.531 C 293.467 263.136,293.697 262.740,293.863 262.651 C 294.030 262.561,294.167 262.366,294.167 262.216 C 294.167 262.066,294.570 261.562,295.062 261.097 C 295.857 260.346,296.009 260.088,296.406 258.821 C 296.820 257.501,296.897 257.377,297.422 257.187 C 298.108 256.939,298.544 256.363,298.885 255.250 C 299.026 254.792,299.297 254.120,299.487 253.756 C 299.677 253.393,299.836 252.981,299.839 252.840 C 299.842 252.699,300.148 252.283,300.518 251.917 C 301.402 251.042,301.833 250.181,301.833 249.290 C 301.833 248.892,301.917 248.483,302.019 248.381 C 302.241 248.159,302.506 247.706,303.071 246.583 C 303.302 246.125,303.682 245.405,303.917 244.983 C 304.229 244.421,304.410 243.708,304.591 242.327 C 304.786 240.843,304.964 240.181,305.420 239.232 C 305.855 238.327,306.000 237.808,306.000 237.151 C 306.000 236.634,306.096 236.169,306.235 236.013 C 306.944 235.218,307.333 234.114,307.333 232.896 L 307.333 231.675 308.073 230.936 C 308.905 230.104,309.125 229.397,308.857 228.426 C 308.679 227.780,308.844 227.000,309.159 227.000 C 309.468 227.000,310.009 225.671,310.160 224.539 C 310.242 223.922,310.456 222.479,310.634 221.333 C 311.019 218.867,310.961 217.335,310.478 217.209 C 310.016 217.089,310.076 216.074,310.613 214.896 C 310.859 214.357,311.119 213.467,311.192 212.917 C 311.684 209.203,311.812 207.607,311.725 206.250 C 311.630 204.762,311.610 203.969,311.649 203.167 C 311.716 201.780,311.559 196.215,311.448 196.042 C 311.375 195.928,311.284 194.916,311.247 193.792 C 311.209 192.669,311.099 191.075,311.002 190.250 C 310.767 188.261,310.767 188.063,311.005 187.046 C 311.186 186.274,311.172 186.076,310.878 185.296 C 310.263 183.663,310.173 183.246,310.198 182.163 C 310.213 181.521,310.111 180.760,309.945 180.286 C 309.792 179.847,309.667 179.000,309.667 178.404 C 309.667 177.677,309.564 177.116,309.355 176.702 C 309.178 176.350,309.009 175.570,308.962 174.891 C 308.906 174.080,308.767 173.516,308.528 173.128 C 308.241 172.664,308.194 172.400,308.277 171.701 C 308.350 171.084,308.309 170.737,308.132 170.464 C 307.996 170.254,307.717 169.578,307.513 168.960 C 307.308 168.342,307.078 167.798,307.000 167.750 C 306.683 167.554,306.027 166.127,305.427 164.328 C 305.076 163.277,304.536 161.714,304.228 160.855 C 303.919 159.996,303.667 159.096,303.667 158.854 C 303.667 158.612,303.480 157.740,303.252 156.915 C 303.024 156.091,302.837 155.095,302.835 154.703 C 302.834 154.222,302.647 153.623,302.263 152.869 C 301.949 152.254,301.619 151.450,301.531 151.083 C 301.249 149.917,300.688 148.624,300.199 148.011 C 299.527 147.169,298.333 145.114,298.333 144.800 C 298.333 144.655,298.103 144.247,297.821 143.893 C 296.765 142.567,294.833 139.437,294.833 139.051 C 294.833 138.396,294.368 137.647,293.278 136.544 C 291.487 134.733,290.336 133.436,289.954 132.799 C 289.750 132.459,289.156 131.801,288.635 131.336 C 288.113 130.871,287.636 130.324,287.574 130.120 C 287.512 129.917,287.285 129.514,287.069 129.226 C 286.853 128.937,286.605 128.385,286.518 127.998 C 286.431 127.611,286.129 127.022,285.846 126.689 C 285.564 126.356,285.153 125.746,284.933 125.333 C 284.713 124.921,284.334 124.398,284.091 124.171 C 283.848 123.944,283.505 123.433,283.329 123.035 C 282.977 122.240,279.911 118.891,279.194 118.520 C 278.615 118.219,277.990 117.617,277.159 116.559 C 276.789 116.087,276.274 115.614,276.015 115.506 C 275.755 115.399,275.464 115.136,275.367 114.923 C 275.140 114.425,272.908 112.500,272.558 112.500 C 272.254 112.500,271.242 111.699,270.450 110.833 C 269.115 109.372,267.487 107.845,266.417 107.049 C 265.128 106.090,265.045 106.014,264.331 105.146 C 264.058 104.813,263.628 104.453,263.376 104.344 C 263.123 104.236,262.765 103.908,262.580 103.616 C 262.148 102.933,260.827 102.068,260.019 101.939 C 259.673 101.884,259.253 101.687,259.086 101.503 C 258.918 101.318,258.696 101.167,258.590 101.167 C 258.485 101.167,258.140 100.896,257.824 100.565 C 257.074 99.779,256.214 99.237,255.347 99.004 C 254.963 98.900,254.362 98.557,254.012 98.241 C 253.662 97.925,253.306 97.667,253.221 97.667 C 253.135 97.667,252.811 97.479,252.500 97.250 C 252.189 97.021,251.773 96.833,251.574 96.833 C 251.376 96.833,250.792 96.608,250.277 96.333 C 249.761 96.058,249.199 95.833,249.028 95.833 C 248.476 95.833,246.426 95.010,246.167 94.685 C 245.752 94.163,244.883 93.823,243.592 93.678 C 242.305 93.534,240.961 92.942,240.275 92.217 C 240.078 92.009,239.848 91.838,239.764 91.836 C 239.680 91.835,238.705 91.393,237.598 90.855 C 234.877 89.532,232.932 89.206,232.353 89.974 L 232.065 90.356 230.658 89.544 C 229.883 89.098,229.100 88.671,228.917 88.597 C 227.788 88.138,225.314 87.288,224.750 87.164 C 224.383 87.084,223.746 86.942,223.333 86.850 C 222.921 86.757,222.089 86.678,221.484 86.674 C 220.630 86.668,220.298 86.592,219.999 86.333 C 219.787 86.149,219.307 85.919,218.932 85.822 C 218.557 85.725,217.987 85.576,217.667 85.490 C 217.346 85.405,216.625 85.335,216.064 85.334 C 215.504 85.334,214.658 85.260,214.183 85.170 C 213.709 85.080,212.494 84.967,211.482 84.919 C 210.470 84.871,209.485 84.748,209.294 84.646 C 209.089 84.536,208.575 84.497,208.047 84.552 C 207.205 84.639,202.926 84.315,200.500 83.980 C 198.187 83.662,197.244 83.629,196.121 83.830 C 195.279 83.980,194.920 83.986,194.785 83.851 C 194.510 83.577,192.978 83.642,192.540 83.947 " stroke="none" fill="#040404" fill-rule="evenodd"></path><path id="path1" d="M194.417 65.766 C 186.009 66.275,180.846 66.867,174.900 68.002 C 116.076 79.233,71.682 127.956,66.096 187.418 C 65.341 195.447,65.338 207.053,66.089 212.667 C 66.132 212.987,66.199 213.662,66.239 214.167 C 66.327 215.289,66.755 218.530,67.097 220.667 C 67.236 221.537,67.382 222.512,67.421 222.833 C 67.459 223.154,67.716 224.534,67.991 225.899 C 68.266 227.264,68.451 228.445,68.402 228.524 C 68.353 228.602,68.381 228.667,68.462 228.667 C 68.544 228.667,68.613 228.760,68.616 228.875 C 68.618 228.990,68.818 229.896,69.061 230.890 C 69.303 231.884,69.459 232.765,69.407 232.849 C 69.356 232.932,69.386 233.000,69.476 233.000 C 69.604 233.000,69.773 233.582,69.909 234.500 C 69.916 234.546,69.984 234.682,70.061 234.803 C 70.137 234.923,70.156 235.067,70.101 235.121 C 70.047 235.175,70.068 235.301,70.148 235.401 C 70.228 235.501,70.570 236.558,70.909 237.750 C 71.668 240.420,73.746 246.512,74.654 248.729 C 75.024 249.634,75.287 250.440,75.237 250.521 C 75.188 250.601,75.226 250.667,75.323 250.667 C 75.421 250.667,75.500 250.778,75.500 250.914 C 75.500 251.154,75.777 251.786,77.273 254.957 C 77.673 255.805,78.000 256.538,78.000 256.586 C 78.000 256.848,81.672 263.960,82.968 266.208 C 83.800 267.652,84.429 268.834,84.365 268.836 C 84.302 268.837,84.331 268.894,84.430 268.961 C 84.529 269.028,85.477 270.441,86.537 272.101 C 87.597 273.760,89.231 276.195,90.168 277.510 C 91.105 278.826,91.950 280.074,92.046 280.284 C 92.142 280.495,92.275 280.667,92.342 280.667 C 92.410 280.667,92.904 281.248,93.441 281.958 C 93.977 282.668,94.517 283.355,94.640 283.484 C 94.762 283.614,95.175 284.139,95.556 284.652 C 95.938 285.164,96.336 285.658,96.441 285.750 C 96.546 285.842,97.440 286.854,98.426 288.000 C 102.444 292.666,106.960 297.184,111.833 301.412 C 112.979 302.406,114.029 303.323,114.167 303.451 C 117.082 306.146,126.969 313.021,132.368 316.108 C 133.586 316.804,134.621 317.421,134.667 317.479 C 134.712 317.536,135.012 317.714,135.333 317.874 C 135.654 318.034,136.029 318.230,136.167 318.311 C 136.304 318.391,136.754 318.616,137.167 318.811 C 137.579 319.006,138.554 319.507,139.333 319.924 C 140.112 320.341,141.725 321.119,142.917 321.654 C 144.108 322.189,145.571 322.855,146.167 323.133 C 147.510 323.760,152.296 325.650,154.750 326.522 C 155.758 326.881,156.733 327.242,156.917 327.324 C 157.100 327.407,157.453 327.518,157.701 327.572 C 157.949 327.625,158.362 327.755,158.618 327.860 C 158.874 327.965,159.158 328.069,159.250 328.090 C 160.114 328.291,163.149 329.211,163.382 329.342 C 163.546 329.435,163.752 329.467,163.840 329.412 C 163.928 329.358,164.000 329.377,164.000 329.454 C 164.000 329.532,164.131 329.600,164.292 329.605 C 164.572 329.614,170.652 331.098,171.167 331.282 C 171.304 331.332,171.710 331.402,172.069 331.438 C 172.428 331.474,172.809 331.578,172.917 331.667 C 173.026 331.757,173.153 331.791,173.202 331.743 C 173.250 331.695,173.655 331.742,174.103 331.848 C 174.929 332.044,177.073 332.450,177.833 332.554 C 178.063 332.586,178.963 332.705,179.833 332.819 C 180.704 332.934,181.578 333.105,181.776 333.200 C 181.973 333.295,182.203 333.331,182.286 333.279 C 182.370 333.228,182.958 333.255,183.594 333.341 C 192.032 334.476,205.507 334.582,214.333 333.582 C 215.571 333.442,216.921 333.291,217.333 333.247 C 217.746 333.204,218.346 333.124,218.667 333.071 C 218.987 333.018,220.450 332.785,221.917 332.553 C 224.807 332.096,224.718 332.111,225.874 331.847 C 226.308 331.747,226.721 331.678,226.790 331.693 C 226.860 331.707,227.029 331.676,227.167 331.622 C 227.304 331.569,228.017 331.401,228.750 331.250 C 229.483 331.098,231.282 330.671,232.746 330.300 C 234.211 329.929,235.486 329.609,235.579 329.588 C 235.673 329.567,235.862 329.507,236.000 329.453 C 236.319 329.329,239.206 328.521,239.611 328.443 C 239.779 328.410,240.029 328.335,240.167 328.276 C 240.862 327.978,242.833 327.365,242.833 327.447 C 242.833 327.499,242.927 327.467,243.042 327.376 C 243.156 327.285,243.662 327.078,244.167 326.917 C 244.671 326.755,246.133 326.213,247.417 325.712 C 248.700 325.212,249.825 324.783,249.917 324.760 C 250.008 324.737,250.271 324.639,250.500 324.543 C 250.729 324.446,251.292 324.216,251.750 324.032 C 252.208 323.847,254.065 323.022,255.875 322.198 C 257.685 321.375,259.168 320.749,259.169 320.809 C 259.171 320.868,259.227 320.837,259.294 320.739 C 259.467 320.490,263.666 318.296,263.669 318.454 C 263.671 318.525,263.727 318.500,263.794 318.398 C 263.926 318.199,264.927 317.649,265.105 317.678 C 265.164 317.687,265.259 317.627,265.315 317.544 C 265.371 317.461,266.603 316.702,268.053 315.856 C 302.208 295.945,326.345 260.919,332.670 222.088 C 345.452 143.631,289.258 72.369,209.583 65.995 C 207.407 65.820,196.286 65.653,194.417 65.766 M194.785 83.851 C 194.920 83.986,195.279 83.980,196.121 83.830 C 197.244 83.629,198.187 83.662,200.500 83.980 C 202.926 84.315,207.205 84.639,208.047 84.552 C 208.575 84.497,209.089 84.536,209.294 84.646 C 209.485 84.748,210.470 84.871,211.482 84.919 C 212.494 84.967,213.709 85.080,214.183 85.170 C 214.658 85.260,215.504 85.334,216.064 85.334 C 216.625 85.335,217.346 85.405,217.667 85.490 C 217.987 85.576,218.557 85.725,218.932 85.822 C 219.307 85.919,219.787 86.149,219.999 86.333 C 220.298 86.592,220.630 86.668,221.484 86.674 C 222.089 86.678,222.921 86.757,223.333 86.850 C 223.746 86.942,224.383 87.084,224.750 87.164 C 225.314 87.288,227.788 88.138,228.917 88.597 C 229.100 88.671,229.883 89.098,230.658 89.544 L 232.065 90.356 232.353 89.974 C 232.932 89.206,234.877 89.532,237.598 90.855 C 238.705 91.393,239.680 91.835,239.764 91.836 C 239.848 91.838,240.078 92.009,240.275 92.217 C 240.961 92.942,242.305 93.534,243.592 93.678 C 244.883 93.823,245.752 94.163,246.167 94.685 C 246.426 95.010,248.476 95.833,249.028 95.833 C 249.199 95.833,249.761 96.058,250.277 96.333 C 250.792 96.608,251.376 96.833,251.574 96.833 C 251.773 96.833,252.189 97.021,252.500 97.250 C 252.811 97.479,253.135 97.667,253.221 97.667 C 253.306 97.667,253.662 97.925,254.012 98.241 C 254.362 98.557,254.963 98.900,255.347 99.004 C 256.214 99.237,257.074 99.779,257.824 100.565 C 258.140 100.896,258.485 101.167,258.590 101.167 C 258.696 101.167,258.918 101.318,259.086 101.503 C 259.253 101.687,259.673 101.884,260.019 101.939 C 260.827 102.068,262.148 102.933,262.580 103.616 C 262.765 103.908,263.123 104.236,263.376 104.344 C 263.628 104.453,264.058 104.813,264.331 105.146 C 265.045 106.014,265.128 106.090,266.417 107.049 C 267.487 107.845,269.115 109.372,270.450 110.833 C 271.242 111.699,272.254 112.500,272.558 112.500 C 272.908 112.500,275.140 114.425,275.367 114.923 C 275.464 115.136,275.755 115.399,276.015 115.506 C 276.274 115.614,276.789 116.087,277.159 116.559 C 277.990 117.617,278.615 118.219,279.194 118.520 C 279.911 118.891,282.977 122.240,283.329 123.035 C 283.505 123.433,283.848 123.944,284.091 124.171 C 284.334 124.398,284.713 124.921,284.933 125.333 C 285.153 125.746,285.564 126.356,285.846 126.689 C 286.129 127.022,286.431 127.611,286.518 127.998 C 286.605 128.385,286.853 128.937,287.069 129.226 C 287.285 129.514,287.512 129.917,287.574 130.120 C 287.636 130.324,288.113 130.871,288.635 131.336 C 289.156 131.801,289.750 132.459,289.954 132.799 C 290.336 133.436,291.487 134.733,293.278 136.544 C 294.368 137.647,294.833 138.396,294.833 139.051 C 294.833 139.437,296.765 142.567,297.821 143.893 C 298.103 144.247,298.333 144.655,298.333 144.800 C 298.333 145.114,299.527 147.169,300.199 148.011 C 300.688 148.624,301.249 149.917,301.531 151.083 C 301.619 151.450,301.949 152.254,302.263 152.869 C 302.647 153.623,302.834 154.222,302.835 154.703 C 302.837 155.095,303.024 156.091,303.252 156.915 C 303.480 157.740,303.667 158.612,303.667 158.854 C 303.667 159.096,303.919 159.996,304.228 160.855 C 304.536 161.714,305.076 163.277,305.427 164.328 C 306.027 166.127,306.683 167.554,307.000 167.750 C 307.078 167.798,307.308 168.342,307.513 168.960 C 307.717 169.578,307.996 170.254,308.132 170.464 C 308.309 170.737,308.350 171.084,308.277 171.701 C 308.194 172.400,308.241 172.664,308.528 173.128 C 308.767 173.516,308.906 174.080,308.962 174.891 C 309.009 175.570,309.178 176.350,309.355 176.702 C 309.564 177.116,309.667 177.677,309.667 178.404 C 309.667 179.000,309.792 179.847,309.945 180.286 C 310.111 180.760,310.213 181.521,310.198 182.163 C 310.173 183.246,310.263 183.663,310.878 185.296 C 311.172 186.076,311.186 186.274,311.005 187.046 C 310.767 188.063,310.767 188.261,311.002 190.250 C 311.099 191.075,311.209 192.669,311.247 193.792 C 311.284 194.916,311.375 195.928,311.448 196.042 C 311.559 196.215,311.716 201.780,311.649 203.167 C 311.610 203.969,311.630 204.762,311.725 206.250 C 311.812 207.607,311.684 209.203,311.192 212.917 C 311.119 213.467,310.859 214.357,310.613 214.896 C 310.076 216.074,310.016 217.089,310.478 217.209 C 310.961 217.335,311.019 218.867,310.634 221.333 C 310.456 222.479,310.242 223.922,310.160 224.539 C 310.009 225.671,309.468 227.000,309.159 227.000 C 308.844 227.000,308.679 227.780,308.857 228.426 C 309.125 229.397,308.905 230.104,308.073 230.936 L 307.333 231.675 307.333 232.896 C 307.333 234.114,306.944 235.218,306.235 236.013 C 306.096 236.169,306.000 236.634,306.000 237.151 C 306.000 237.808,305.855 238.327,305.420 239.232 C 304.964 240.181,304.786 240.843,304.591 242.327 C 304.410 243.708,304.229 244.421,303.917 244.983 C 303.682 245.405,303.302 246.125,303.071 246.583 C 302.506 247.706,302.241 248.159,302.019 248.381 C 301.917 248.483,301.833 248.892,301.833 249.290 C 301.833 250.181,301.402 251.042,300.518 251.917 C 300.148 252.283,299.842 252.699,299.839 252.840 C 299.836 252.981,299.677 253.393,299.487 253.756 C 299.297 254.120,299.026 254.792,298.885 255.250 C 298.544 256.363,298.108 256.939,297.422 257.187 C 296.897 257.377,296.820 257.501,296.406 258.821 C 296.009 260.088,295.857 260.346,295.062 261.097 C 294.570 261.562,294.167 262.066,294.167 262.216 C 294.167 262.366,294.030 262.561,293.863 262.651 C 293.697 262.740,293.467 263.136,293.354 263.531 C 292.785 265.516,292.758 265.567,292.039 266.049 C 291.258 266.573,290.930 267.093,290.784 268.044 C 290.695 268.616,289.697 270.795,289.298 271.287 C 289.208 271.399,288.881 271.539,288.573 271.596 C 287.927 271.717,287.758 271.888,287.596 272.583 C 287.410 273.379,286.170 275.312,285.647 275.621 C 285.380 275.779,285.087 276.152,284.984 276.466 C 284.656 277.459,283.894 278.167,283.154 278.167 C 282.596 278.167,282.471 278.239,282.232 278.701 C 281.928 279.289,279.765 281.500,279.495 281.500 C 279.401 281.500,279.254 281.688,279.167 281.917 C 279.080 282.146,278.911 282.333,278.791 282.333 C 278.548 282.333,278.361 282.536,277.444 283.792 C 276.895 284.544,276.727 284.667,276.250 284.667 C 275.693 284.667,274.289 285.858,273.440 287.051 C 273.270 287.290,272.892 287.565,272.600 287.661 C 272.297 287.761,271.937 288.062,271.758 288.364 C 271.586 288.655,271.233 289.116,270.973 289.388 C 270.713 289.660,270.500 289.935,270.500 289.999 C 270.500 290.064,270.219 290.237,269.875 290.386 C 269.531 290.534,269.137 290.721,269.000 290.801 C 268.862 290.881,268.321 291.154,267.797 291.407 C 267.273 291.661,266.800 292.008,266.746 292.180 C 266.549 292.799,264.507 294.333,263.880 294.333 C 263.710 294.333,263.311 294.555,262.994 294.827 C 262.676 295.098,262.325 295.323,262.213 295.327 C 262.100 295.330,261.890 295.562,261.745 295.842 C 261.106 297.079,259.324 298.380,258.046 298.544 C 257.520 298.611,257.199 298.786,256.776 299.234 C 256.465 299.563,256.060 299.833,255.875 299.833 C 255.690 299.833,255.249 300.117,254.895 300.464 C 254.268 301.078,253.566 301.447,252.300 301.833 C 251.944 301.941,251.639 302.158,251.579 302.345 C 251.450 302.755,250.669 303.167,250.022 303.167 C 249.568 303.167,247.862 303.894,247.667 304.170 C 247.621 304.235,247.396 304.345,247.167 304.413 C 246.938 304.482,246.600 304.675,246.417 304.842 C 246.233 305.009,245.708 305.241,245.250 305.356 C 244.792 305.472,244.318 305.640,244.198 305.729 C 244.078 305.818,243.807 305.909,243.595 305.932 C 243.003 305.995,241.471 306.825,241.118 307.274 C 240.944 307.495,240.518 307.821,240.171 307.998 C 239.825 308.174,239.501 308.423,239.452 308.550 C 239.373 308.758,238.750 308.975,237.479 309.238 C 237.196 309.297,236.969 309.506,236.833 309.833 C 236.697 310.163,236.473 310.368,236.187 310.425 C 234.596 310.744,233.017 311.224,232.632 311.504 C 232.383 311.685,231.999 311.833,231.778 311.833 C 231.557 311.833,231.022 311.990,230.590 312.181 C 230.147 312.377,229.640 312.488,229.430 312.435 C 229.215 312.381,228.781 312.481,228.409 312.670 C 228.054 312.852,227.601 313.000,227.402 313.000 C 227.204 313.000,226.714 313.181,226.313 313.401 C 225.601 313.793,225.073 313.879,221.083 314.256 C 220.533 314.307,219.596 314.504,219.000 314.692 C 217.529 315.156,215.160 315.278,214.887 314.904 C 214.645 314.574,213.139 314.715,212.821 315.098 C 212.714 315.227,212.316 315.338,211.938 315.343 C 211.560 315.349,210.912 315.420,210.500 315.503 C 207.651 316.070,207.787 316.057,207.587 315.784 C 207.426 315.563,207.207 315.548,206.109 315.684 C 204.772 315.850,204.500 315.805,204.500 315.418 C 204.500 315.163,204.737 315.074,205.833 314.917 C 208.872 314.484,210.684 313.924,211.008 313.318 C 211.109 313.129,211.413 312.897,211.683 312.803 C 211.953 312.709,212.249 312.491,212.341 312.319 C 212.652 311.739,214.920 310.833,216.062 310.833 C 216.802 310.833,217.305 310.722,217.914 310.425 C 218.824 309.980,220.964 309.324,222.646 308.976 C 223.480 308.803,223.748 308.671,223.887 308.366 C 223.984 308.153,224.293 307.867,224.573 307.733 C 225.647 307.216,226.122 306.894,226.811 306.217 C 227.519 305.520,229.803 304.167,230.270 304.167 C 230.544 304.167,231.957 302.696,232.236 302.122 C 232.336 301.917,232.823 301.544,233.319 301.293 C 234.503 300.693,234.751 300.451,235.269 299.392 C 235.682 298.549,238.567 295.667,238.999 295.667 C 239.086 295.667,239.267 295.460,239.401 295.208 C 239.535 294.956,240.067 294.225,240.585 293.583 C 241.102 292.942,241.622 292.192,241.740 291.917 C 241.858 291.642,242.114 291.274,242.310 291.099 C 242.522 290.911,242.667 290.582,242.667 290.292 C 242.667 289.722,243.143 288.833,243.448 288.833 C 243.654 288.833,244.167 288.012,244.167 287.682 C 244.167 287.590,244.335 287.267,244.542 286.965 C 245.364 285.759,245.873 285.185,246.465 284.793 C 246.949 284.473,247.132 284.205,247.302 283.570 C 247.421 283.122,247.690 282.530,247.898 282.253 C 248.106 281.976,248.391 281.525,248.532 281.250 C 248.673 280.975,248.910 280.525,249.060 280.250 C 249.209 279.975,249.332 279.628,249.332 279.479 C 249.333 279.185,249.630 278.412,250.264 277.052 C 250.485 276.576,250.667 275.928,250.667 275.611 C 250.667 275.294,250.819 274.521,251.005 273.893 C 251.191 273.264,251.461 272.355,251.604 271.873 C 251.748 271.391,252.024 270.886,252.217 270.750 C 252.555 270.513,252.557 270.495,252.263 270.280 C 252.019 270.102,251.978 269.924,252.062 269.403 C 252.120 269.044,252.209 268.450,252.259 268.083 C 252.310 267.717,252.436 267.117,252.540 266.750 C 252.770 265.936,252.854 263.139,252.841 256.667 C 252.838 255.063,252.877 253.262,252.928 252.667 C 253.110 250.533,253.095 248.753,252.891 248.333 C 252.780 248.104,252.573 247.250,252.432 246.434 C 252.287 245.598,252.053 244.817,251.894 244.642 C 251.196 243.871,250.621 242.553,250.712 241.934 C 250.789 241.407,250.597 240.877,249.918 239.750 C 249.252 238.642,249.126 238.283,249.130 237.500 C 249.133 237.055,248.976 236.411,248.745 235.917 C 248.531 235.458,248.268 234.783,248.160 234.417 C 248.052 234.050,247.763 233.487,247.517 233.167 C 246.870 232.321,246.053 230.976,245.923 230.542 C 245.861 230.335,245.740 230.167,245.653 230.167 C 245.567 230.167,245.300 229.754,245.061 229.249 C 244.390 227.831,243.568 227.013,242.667 226.865 L 241.917 226.741 241.498 225.523 C 241.268 224.852,240.961 224.217,240.816 224.110 C 240.670 224.004,240.446 223.625,240.317 223.268 C 240.189 222.912,239.919 222.512,239.719 222.381 C 239.518 222.250,239.307 221.928,239.250 221.667 C 239.193 221.405,238.972 221.078,238.761 220.939 C 238.539 220.794,238.279 220.358,238.146 219.909 C 237.927 219.164,237.327 218.465,236.367 217.833 C 236.158 217.696,235.871 217.246,235.730 216.835 C 235.427 215.948,235.218 215.667,234.865 215.667 C 234.722 215.667,234.429 215.501,234.213 215.299 C 233.998 215.096,233.473 214.740,233.046 214.507 C 232.620 214.274,232.148 213.858,231.998 213.583 C 231.691 213.022,231.122 212.674,230.500 212.667 C 230.271 212.664,229.896 212.554,229.667 212.422 C 229.438 212.290,228.855 211.994,228.373 211.766 C 227.891 211.537,227.452 211.236,227.399 211.097 C 227.345 210.958,226.735 210.560,226.042 210.214 C 225.207 209.796,224.665 209.401,224.433 209.042 C 224.241 208.745,223.971 208.465,223.833 208.419 C 223.696 208.374,223.112 207.878,222.537 207.316 C 221.503 206.308,221.475 206.294,220.272 206.159 C 219.603 206.084,218.724 205.874,218.319 205.693 C 215.922 204.621,214.505 204.141,213.500 204.061 C 212.904 204.014,212.154 203.873,211.833 203.749 C 207.481 202.056,205.997 201.701,203.178 201.679 C 202.039 201.670,201.292 201.565,200.461 201.297 C 199.514 200.993,199.290 200.968,199.174 201.155 C 199.066 201.329,198.779 201.357,197.956 201.272 C 197.106 201.185,196.835 201.214,196.672 201.410 C 196.454 201.673,195.266 201.640,193.636 201.326 C 193.041 201.211,192.744 201.233,192.386 201.420 C 191.687 201.784,189.924 201.732,188.673 201.309 C 187.780 201.008,187.530 200.982,187.074 201.147 C 186.503 201.354,185.657 201.283,184.250 200.910 C 183.792 200.788,183.004 200.638,182.500 200.577 C 181.221 200.420,179.631 200.006,179.333 199.753 C 179.185 199.627,178.573 199.530,177.833 199.516 C 175.758 199.477,173.968 198.868,172.636 197.749 C 172.368 197.524,171.770 197.299,171.150 197.190 C 170.535 197.081,169.964 196.867,169.747 196.664 C 169.546 196.475,169.089 196.275,168.732 196.221 C 168.047 196.116,167.500 195.755,167.500 195.407 C 167.500 195.293,167.282 195.123,167.016 195.030 C 166.749 194.938,166.483 194.709,166.424 194.523 C 166.365 194.336,166.184 194.142,166.023 194.090 C 165.861 194.039,165.434 193.726,165.073 193.395 C 164.712 193.064,164.004 192.596,163.500 192.355 C 162.832 192.035,162.519 191.770,162.345 191.374 C 162.175 190.989,161.944 190.787,161.547 190.678 C 161.239 190.593,160.725 190.293,160.405 190.012 C 160.084 189.730,159.768 189.497,159.703 189.494 C 159.637 189.490,159.321 189.151,159.000 188.740 C 158.679 188.329,158.097 187.837,157.706 187.647 C 157.314 187.456,156.908 187.139,156.803 186.942 C 156.697 186.745,156.248 186.234,155.805 185.807 C 155.362 185.380,154.999 184.967,154.997 184.890 C 154.996 184.813,154.816 184.581,154.599 184.375 C 154.382 184.169,154.154 183.736,154.094 183.413 C 154.033 183.090,153.837 182.734,153.658 182.623 C 153.480 182.511,153.333 182.354,153.333 182.274 C 153.333 182.193,153.108 181.871,152.833 181.558 C 152.558 181.245,152.333 180.848,152.333 180.677 C 152.333 180.505,152.070 180.050,151.749 179.665 C 151.427 179.281,151.116 178.767,151.057 178.525 C 150.903 177.893,149.013 175.336,148.443 174.990 C 147.957 174.694,147.727 174.380,147.240 173.346 C 147.093 173.033,146.691 172.433,146.349 172.013 C 146.006 171.593,145.605 170.950,145.457 170.583 C 145.008 169.467,144.638 168.182,144.725 168.040 C 144.937 167.697,143.872 165.827,143.116 165.216 C 142.549 164.757,142.262 164.366,142.071 163.794 C 141.926 163.359,141.741 162.963,141.659 162.912 C 141.423 162.766,140.719 160.349,140.592 159.250 C 140.528 158.700,140.369 157.880,140.238 157.428 C 140.107 156.976,140.000 156.336,140.000 156.005 C 140.000 155.674,139.850 155.110,139.667 154.750 C 139.483 154.390,139.333 153.868,139.332 153.590 C 139.332 153.311,139.189 152.483,139.015 151.750 C 138.438 149.319,138.713 138.303,139.380 137.088 C 139.483 136.902,139.585 135.850,139.607 134.750 C 139.699 130.290,139.815 127.463,139.926 126.954 C 140.186 125.766,141.306 123.704,141.992 123.153 C 142.363 122.855,142.667 122.541,142.667 122.456 C 142.667 122.371,142.805 122.102,142.975 121.859 C 143.330 121.349,144.859 117.905,145.168 116.917 C 145.283 116.550,145.437 116.173,145.511 116.079 C 145.683 115.860,146.103 114.586,146.251 113.833 C 146.394 113.103,147.596 111.212,147.997 111.084 C 148.203 111.019,148.333 110.748,148.412 110.224 C 148.532 109.424,149.101 108.667,149.582 108.667 C 149.733 108.667,149.976 108.362,150.153 107.949 C 150.322 107.554,150.657 107.102,150.897 106.945 C 151.137 106.788,151.333 106.523,151.333 106.357 C 151.333 106.191,151.634 105.626,152.002 105.101 C 152.370 104.575,152.771 103.907,152.893 103.615 C 153.272 102.710,154.391 101.330,154.833 101.220 C 155.063 101.163,155.398 101.016,155.579 100.892 C 155.760 100.768,156.032 100.667,156.183 100.667 C 156.335 100.667,156.555 100.551,156.673 100.410 C 156.790 100.268,157.002 100.175,157.144 100.202 C 157.286 100.229,157.555 100.115,157.743 99.947 C 157.930 99.779,158.410 99.385,158.809 99.070 C 159.209 98.755,159.696 98.261,159.893 97.972 C 160.268 97.421,160.416 97.318,161.288 96.995 C 161.669 96.854,161.937 96.574,162.205 96.037 C 162.413 95.620,162.696 95.221,162.833 95.151 C 163.819 94.646,165.317 93.999,165.513 93.993 C 166.191 93.974,169.408 91.855,169.591 91.307 C 169.806 90.666,171.268 89.390,171.962 89.238 C 172.782 89.059,172.846 89.011,173.110 88.377 C 173.450 87.559,173.485 87.543,175.157 87.419 C 175.941 87.361,176.950 87.168,177.397 86.990 C 177.845 86.812,178.520 86.663,178.897 86.659 C 180.041 86.647,180.996 86.396,181.424 85.993 C 181.687 85.746,182.146 85.568,182.726 85.490 C 183.254 85.418,183.901 85.183,184.303 84.917 C 184.923 84.507,185.076 84.476,185.974 84.580 C 186.673 84.661,187.276 84.615,188.024 84.424 C 188.690 84.253,189.654 84.162,190.624 84.180 C 191.791 84.202,192.255 84.145,192.540 83.947 C 192.978 83.642,194.510 83.577,194.785 83.851 " stroke="none" fill="#fbfbfb" fill-rule="evenodd"></path></g></svg>