<?xml version="1.0" encoding="UTF-8" standalone="no"?>
<!DOCTYPE svg PUBLIC "-//W3C//DTD SVG 1.1//EN" "http://www.w3.org/Graphics/SVG/1.1/DTD/svg11.dtd">
<svg width="100%" height="100%" viewBox="0 0 400 400" version="1.1" xmlns="http://www.w3.org/2000/svg" xmlns:xlink="http://www.w3.org/1999/xlink" xml:space="preserve" xmlns:serif="http://www.serif.com/" style="fill-rule:evenodd;clip-rule:evenodd;stroke-linejoin:round;stroke-miterlimit:2;">
    <g id="svgg" transform="matrix(-1,0,0,1,400.012,0)">
        <path id="path0" d="M192.54,83.947C192.255,84.145 191.791,84.202 190.624,84.18C189.654,84.162 188.69,84.253 188.024,84.424C187.276,84.615 186.673,84.661 185.974,84.58C185.076,84.476 184.923,84.507 184.303,84.917C183.901,85.183 183.254,85.418 182.726,85.49C182.146,85.568 181.687,85.746 181.424,85.993C180.996,86.396 180.041,86.647 178.897,86.659C178.52,86.663 177.845,86.812 177.397,86.99C176.95,87.168 175.941,87.361 175.157,87.419C173.485,87.543 173.45,87.559 173.11,88.377C172.846,89.011 172.782,89.059 171.962,89.238C171.268,89.39 169.806,90.666 169.591,91.307C169.408,91.855 166.191,93.974 165.513,93.993C165.317,93.999 163.819,94.646 162.833,95.151C162.696,95.221 162.413,95.62 162.205,96.037C161.937,96.574 161.669,96.854 161.288,96.995C160.416,97.318 160.268,97.421 159.893,97.972C159.696,98.261 159.209,98.755 158.809,99.07C158.41,99.385 157.93,99.779 157.743,99.947C157.555,100.115 157.286,100.229 157.144,100.202C157.002,100.175 156.79,100.268 156.673,100.41C156.555,100.551 156.335,100.667 156.183,100.667C156.032,100.667 155.76,100.768 155.579,100.892C155.398,101.016 155.063,101.163 154.833,101.22C154.391,101.33 153.272,102.71 152.893,103.615C152.771,103.907 152.37,104.575 152.002,105.101C151.634,105.626 151.333,106.191 151.333,106.357C151.333,106.523 151.137,106.788 150.897,106.945C150.657,107.102 150.322,107.554 150.153,107.949C149.976,108.362 149.733,108.667 149.582,108.667C149.101,108.667 148.532,109.424 148.412,110.224C148.333,110.748 148.203,111.019 147.997,111.084C147.596,111.212 146.394,113.103 146.251,113.833C146.103,114.586 145.683,115.86 145.511,116.079C145.437,116.173 145.283,116.55 145.168,116.917C144.859,117.905 143.33,121.349 142.975,121.859C142.805,122.102 142.667,122.371 142.667,122.456C142.667,122.541 142.363,122.855 141.992,123.153C141.306,123.704 140.186,125.766 139.926,126.954C139.815,127.463 139.699,130.29 139.607,134.75C139.585,135.85 139.483,136.902 139.38,137.088C138.713,138.303 138.438,149.319 139.015,151.75C139.189,152.483 139.332,153.311 139.332,153.59C139.333,153.868 139.483,154.39 139.667,154.75C139.85,155.11 140,155.674 140,156.005C140,156.336 140.107,156.976 140.238,157.428C140.369,157.88 140.528,158.7 140.592,159.25C140.719,160.349 141.423,162.766 141.659,162.912C141.741,162.963 141.926,163.359 142.071,163.794C142.262,164.366 142.549,164.757 143.116,165.216C143.872,165.827 144.937,167.697 144.725,168.04C144.638,168.182 145.008,169.467 145.457,170.583C145.605,170.95 146.006,171.593 146.349,172.013C146.691,172.433 147.093,173.033 147.24,173.346C147.727,174.38 147.957,174.694 148.443,174.99C149.013,175.336 150.903,177.893 151.057,178.525C151.116,178.767 151.427,179.281 151.749,179.665C152.07,180.05 152.333,180.505 152.333,180.677C152.333,180.848 152.558,181.245 152.833,181.558C153.108,181.871 153.333,182.193 153.333,182.274C153.333,182.354 153.48,182.511 153.658,182.623C153.837,182.734 154.033,183.09 154.094,183.413C154.154,183.736 154.382,184.169 154.599,184.375C154.816,184.581 154.996,184.813 154.997,184.89C154.999,184.967 155.362,185.38 155.805,185.807C156.248,186.234 156.697,186.745 156.803,186.942C156.908,187.139 157.314,187.456 157.706,187.647C158.097,187.837 158.679,188.329 159,188.74C159.321,189.151 159.637,189.49 159.703,189.494C159.768,189.497 160.084,189.73 160.405,190.012C160.725,190.293 161.239,190.593 161.547,190.678C161.944,190.787 162.175,190.989 162.345,191.374C162.519,191.77 162.832,192.035 163.5,192.355C164.004,192.596 164.712,193.064 165.073,193.395C165.434,193.726 165.861,194.039 166.023,194.09C166.184,194.142 166.365,194.336 166.424,194.523C166.483,194.709 166.749,194.938 167.016,195.03C167.282,195.123 167.5,195.293 167.5,195.407C167.5,195.755 168.047,196.116 168.732,196.221C169.089,196.275 169.546,196.475 169.747,196.664C169.964,196.867 170.535,197.081 171.15,197.19C171.77,197.299 172.368,197.524 172.636,197.749C173.968,198.868 175.758,199.477 177.833,199.516C178.573,199.53 179.185,199.627 179.333,199.753C179.631,200.006 181.221,200.42 182.5,200.577C183.004,200.638 183.792,200.788 184.25,200.91C185.657,201.283 186.503,201.354 187.074,201.147C187.53,200.982 187.78,201.008 188.673,201.309C189.924,201.732 191.687,201.784 192.386,201.42C192.744,201.233 193.041,201.211 193.636,201.326C195.266,201.64 196.454,201.673 196.672,201.41C196.835,201.214 197.106,201.185 197.956,201.272C198.779,201.357 199.066,201.329 199.174,201.155C199.29,200.968 199.514,200.993 200.461,201.297C201.292,201.565 202.039,201.67 203.178,201.679C205.997,201.701 207.481,202.056 211.833,203.749C212.154,203.873 212.904,204.014 213.5,204.061C214.505,204.141 215.922,204.621 218.319,205.693C218.724,205.874 219.603,206.084 220.272,206.159C221.475,206.294 221.503,206.308 222.537,207.316C223.112,207.878 223.696,208.374 223.833,208.419C223.971,208.465 224.241,208.745 224.433,209.042C224.665,209.401 225.207,209.796 226.042,210.214C226.735,210.56 227.345,210.958 227.399,211.097C227.452,211.236 227.891,211.537 228.373,211.766C228.855,211.994 229.438,212.29 229.667,212.422C229.896,212.554 230.271,212.664 230.5,212.667C231.122,212.674 231.691,213.022 231.998,213.583C232.148,213.858 232.62,214.274 233.046,214.507C233.473,214.74 233.998,215.096 234.213,215.299C234.429,215.501 234.722,215.667 234.865,215.667C235.218,215.667 235.427,215.948 235.73,216.835C235.871,217.246 236.158,217.696 236.367,217.833C237.327,218.465 237.927,219.164 238.146,219.909C238.279,220.358 238.539,220.794 238.761,220.939C238.972,221.078 239.193,221.405 239.25,221.667C239.307,221.928 239.518,222.25 239.719,222.381C239.919,222.512 240.189,222.912 240.317,223.268C240.446,223.625 240.67,224.004 240.816,224.11C240.961,224.217 241.268,224.852 241.498,225.523L241.917,226.741L242.667,226.865C243.568,227.013 244.39,227.831 245.061,229.249C245.3,229.754 245.567,230.167 245.653,230.167C245.74,230.167 245.861,230.335 245.923,230.542C246.053,230.976 246.87,232.321 247.517,233.167C247.763,233.487 248.052,234.05 248.16,234.417C248.268,234.783 248.531,235.458 248.745,235.917C248.976,236.411 249.133,237.055 249.13,237.5C249.126,238.283 249.252,238.642 249.918,239.75C250.597,240.877 250.789,241.407 250.712,241.934C250.621,242.553 251.196,243.871 251.894,244.642C252.053,244.817 252.287,245.598 252.432,246.434C252.573,247.25 252.78,248.104 252.891,248.333C253.095,248.753 253.11,250.533 252.928,252.667C252.877,253.262 252.838,255.063 252.841,256.667C252.854,263.139 252.77,265.936 252.54,266.75C252.436,267.117 252.31,267.717 252.259,268.083C252.209,268.45 252.12,269.044 252.062,269.403C251.978,269.924 252.019,270.102 252.263,270.28C252.557,270.495 252.555,270.513 252.217,270.75C252.024,270.886 251.748,271.391 251.604,271.873C251.461,272.355 251.191,273.264 251.005,273.893C250.819,274.521 250.667,275.294 250.667,275.611C250.667,275.928 250.485,276.576 250.264,277.052C249.63,278.412 249.333,279.185 249.332,279.479C249.332,279.628 249.209,279.975 249.06,280.25C248.91,280.525 248.673,280.975 248.532,281.25C248.391,281.525 248.106,281.976 247.898,282.253C247.69,282.53 247.421,283.122 247.302,283.57C247.132,284.205 246.949,284.473 246.465,284.793C245.873,285.185 245.364,285.759 244.542,286.965C244.335,287.267 244.167,287.59 244.167,287.682C244.167,288.012 243.654,288.833 243.448,288.833C243.143,288.833 242.667,289.722 242.667,290.292C242.667,290.582 242.522,290.911 242.31,291.099C242.114,291.274 241.858,291.642 241.74,291.917C241.622,292.192 241.102,292.942 240.585,293.583C240.067,294.225 239.535,294.956 239.401,295.208C239.267,295.46 239.086,295.667 238.999,295.667C238.567,295.667 235.682,298.549 235.269,299.392C234.751,300.451 234.503,300.693 233.319,301.293C232.823,301.544 232.336,301.917 232.236,302.122C231.957,302.696 230.544,304.167 230.27,304.167C229.803,304.167 227.519,305.52 226.811,306.217C226.122,306.894 225.647,307.216 224.573,307.733C224.293,307.867 223.984,308.153 223.887,308.366C223.748,308.671 223.48,308.803 222.646,308.976C220.964,309.324 218.824,309.98 217.914,310.425C217.305,310.722 216.802,310.833 216.062,310.833C214.92,310.833 212.652,311.739 212.341,312.319C212.249,312.491 211.953,312.709 211.683,312.803C211.413,312.897 211.109,313.129 211.008,313.318C210.684,313.924 208.872,314.484 205.833,314.917C204.737,315.074 204.5,315.163 204.5,315.418C204.5,315.805 204.772,315.85 206.109,315.684C207.207,315.548 207.426,315.563 207.587,315.784C207.787,316.057 207.651,316.07 210.5,315.503C210.912,315.42 211.56,315.349 211.938,315.343C212.316,315.338 212.714,315.227 212.821,315.098C213.139,314.715 214.645,314.574 214.887,314.904C215.16,315.278 217.529,315.156 219,314.692C219.596,314.504 220.533,314.307 221.083,314.256C225.073,313.879 225.601,313.793 226.313,313.401C226.714,313.181 227.204,313 227.402,313C227.601,313 228.054,312.852 228.409,312.67C228.781,312.481 229.215,312.381 229.43,312.435C229.64,312.488 230.147,312.377 230.59,312.181C231.022,311.99 231.557,311.833 231.778,311.833C231.999,311.833 232.383,311.685 232.632,311.504C233.017,311.224 234.596,310.744 236.187,310.425C236.473,310.368 236.697,310.163 236.833,309.833C236.969,309.506 237.196,309.297 237.479,309.238C238.75,308.975 239.373,308.758 239.452,308.55C239.501,308.423 239.825,308.174 240.171,307.998C240.518,307.821 240.944,307.495 241.118,307.274C241.471,306.825 243.003,305.995 243.595,305.932C243.807,305.909 244.078,305.818 244.198,305.729C244.318,305.64 244.792,305.472 245.25,305.356C245.708,305.241 246.233,305.009 246.417,304.842C246.6,304.675 246.938,304.482 247.167,304.413C247.396,304.345 247.621,304.235 247.667,304.17C247.862,303.894 249.568,303.167 250.022,303.167C250.669,303.167 251.45,302.755 251.579,302.345C251.639,302.158 251.944,301.941 252.3,301.833C253.566,301.447 254.268,301.078 254.895,300.464C255.249,300.117 255.69,299.833 255.875,299.833C256.06,299.833 256.465,299.563 256.776,299.234C257.199,298.786 257.52,298.611 258.046,298.544C259.324,298.38 261.106,297.079 261.745,295.842C261.89,295.562 262.1,295.33 262.213,295.327C262.325,295.323 262.676,295.098 262.994,294.827C263.311,294.555 263.71,294.333 263.88,294.333C264.507,294.333 266.549,292.799 266.746,292.18C266.8,292.008 267.273,291.661 267.797,291.407C268.321,291.154 268.862,290.881 269,290.801C269.137,290.721 269.531,290.534 269.875,290.386C270.219,290.237 270.5,290.064 270.5,289.999C270.5,289.935 270.713,289.66 270.973,289.388C271.233,289.116 271.586,288.655 271.758,288.364C271.937,288.062 272.297,287.761 272.6,287.661C272.892,287.565 273.27,287.29 273.44,287.051C274.289,285.858 275.693,284.667 276.25,284.667C276.727,284.667 276.895,284.544 277.444,283.792C278.361,282.536 278.548,282.333 278.791,282.333C278.911,282.333 279.08,282.146 279.167,281.917C279.254,281.688 279.401,281.5 279.495,281.5C279.765,281.5 281.928,279.289 282.232,278.701C282.471,278.239 282.596,278.167 283.154,278.167C283.894,278.167 284.656,277.459 284.984,276.466C285.087,276.152 285.38,275.779 285.647,275.621C286.17,275.312 287.41,273.379 287.596,272.583C287.758,271.888 287.927,271.717 288.573,271.596C288.881,271.539 289.208,271.399 289.298,271.287C289.697,270.795 290.695,268.616 290.784,268.044C290.93,267.093 291.258,266.573 292.039,266.049C292.758,265.567 292.785,265.516 293.354,263.531C293.467,263.136 293.697,262.74 293.863,262.651C294.03,262.561 294.167,262.366 294.167,262.216C294.167,262.066 294.57,261.562 295.062,261.097C295.857,260.346 296.009,260.088 296.406,258.821C296.82,257.501 296.897,257.377 297.422,257.187C298.108,256.939 298.544,256.363 298.885,255.25C299.026,254.792 299.297,254.12 299.487,253.756C299.677,253.393 299.836,252.981 299.839,252.84C299.842,252.699 300.148,252.283 300.518,251.917C301.402,251.042 301.833,250.181 301.833,249.29C301.833,248.892 301.917,248.483 302.019,248.381C302.241,248.159 302.506,247.706 303.071,246.583C303.302,246.125 303.682,245.405 303.917,244.983C304.229,244.421 304.41,243.708 304.591,242.327C304.786,240.843 304.964,240.181 305.42,239.232C305.855,238.327 306,237.808 306,237.151C306,236.634 306.096,236.169 306.235,236.013C306.944,235.218 307.333,234.114 307.333,232.896L307.333,231.675L308.073,230.936C308.905,230.104 309.125,229.397 308.857,228.426C308.679,227.78 308.844,227 309.159,227C309.468,227 310.009,225.671 310.16,224.539C310.242,223.922 310.456,222.479 310.634,221.333C311.019,218.867 310.961,217.335 310.478,217.209C310.016,217.089 310.076,216.074 310.613,214.896C310.859,214.357 311.119,213.467 311.192,212.917C311.684,209.203 311.812,207.607 311.725,206.25C311.63,204.762 311.61,203.969 311.649,203.167C311.716,201.78 311.559,196.215 311.448,196.042C311.375,195.928 311.284,194.916 311.247,193.792C311.209,192.669 311.099,191.075 311.002,190.25C310.767,188.261 310.767,188.063 311.005,187.046C311.186,186.274 311.172,186.076 310.878,185.296C310.263,183.663 310.173,183.246 310.198,182.163C310.213,181.521 310.111,180.76 309.945,180.286C309.792,179.847 309.667,179 309.667,178.404C309.667,177.677 309.564,177.116 309.355,176.702C309.178,176.35 309.009,175.57 308.962,174.891C308.906,174.08 308.767,173.516 308.528,173.128C308.241,172.664 308.194,172.4 308.277,171.701C308.35,171.084 308.309,170.737 308.132,170.464C307.996,170.254 307.717,169.578 307.513,168.96C307.308,168.342 307.078,167.798 307,167.75C306.683,167.554 306.027,166.127 305.427,164.328C305.076,163.277 304.536,161.714 304.228,160.855C303.919,159.996 303.667,159.096 303.667,158.854C303.667,158.612 303.48,157.74 303.252,156.915C303.024,156.091 302.837,155.095 302.835,154.703C302.834,154.222 302.647,153.623 302.263,152.869C301.949,152.254 301.619,151.45 301.531,151.083C301.249,149.917 300.688,148.624 300.199,148.011C299.527,147.169 298.333,145.114 298.333,144.8C298.333,144.655 298.103,144.247 297.821,143.893C296.765,142.567 294.833,139.437 294.833,139.051C294.833,138.396 294.368,137.647 293.278,136.544C291.487,134.733 290.336,133.436 289.954,132.799C289.75,132.459 289.156,131.801 288.635,131.336C288.113,130.871 287.636,130.324 287.574,130.12C287.512,129.917 287.285,129.514 287.069,129.226C286.853,128.937 286.605,128.385 286.518,127.998C286.431,127.611 286.129,127.022 285.846,126.689C285.564,126.356 285.153,125.746 284.933,125.333C284.713,124.921 284.334,124.398 284.091,124.171C283.848,123.944 283.505,123.433 283.329,123.035C282.977,122.24 279.911,118.891 279.194,118.52C278.615,118.219 277.99,117.617 277.159,116.559C276.789,116.087 276.274,115.614 276.015,115.506C275.755,115.399 275.464,115.136 275.367,114.923C275.14,114.425 272.908,112.5 272.558,112.5C272.254,112.5 271.242,111.699 270.45,110.833C269.115,109.372 267.487,107.845 266.417,107.049C265.128,106.09 265.045,106.014 264.331,105.146C264.058,104.813 263.628,104.453 263.376,104.344C263.123,104.236 262.765,103.908 262.58,103.616C262.148,102.933 260.827,102.068 260.019,101.939C259.673,101.884 259.253,101.687 259.086,101.503C258.918,101.318 258.696,101.167 258.59,101.167C258.485,101.167 258.14,100.896 257.824,100.565C257.074,99.779 256.214,99.237 255.347,99.004C254.963,98.9 254.362,98.557 254.012,98.241C253.662,97.925 253.306,97.667 253.221,97.667C253.135,97.667 252.811,97.479 252.5,97.25C252.189,97.021 251.773,96.833 251.574,96.833C251.376,96.833 250.792,96.608 250.277,96.333C249.761,96.058 249.199,95.833 249.028,95.833C248.476,95.833 246.426,95.01 246.167,94.685C245.752,94.163 244.883,93.823 243.592,93.678C242.305,93.534 240.961,92.942 240.275,92.217C240.078,92.009 239.848,91.838 239.764,91.836C239.68,91.835 238.705,91.393 237.598,90.855C234.877,89.532 232.932,89.206 232.353,89.974L232.065,90.356L230.658,89.544C229.883,89.098 229.1,88.671 228.917,88.597C227.788,88.138 225.314,87.288 224.75,87.164C224.383,87.084 223.746,86.942 223.333,86.85C222.921,86.757 222.089,86.678 221.484,86.674C220.63,86.668 220.298,86.592 219.999,86.333C219.787,86.149 219.307,85.919 218.932,85.822C218.557,85.725 217.987,85.576 217.667,85.49C217.346,85.405 216.625,85.335 216.064,85.334C215.504,85.334 214.658,85.26 214.183,85.17C213.709,85.08 212.494,84.967 211.482,84.919C210.47,84.871 209.485,84.748 209.294,84.646C209.089,84.536 208.575,84.497 208.047,84.552C207.205,84.639 202.926,84.315 200.5,83.98C198.187,83.662 197.244,83.629 196.121,83.83C195.279,83.98 194.92,83.986 194.785,83.851C194.51,83.577 192.978,83.642 192.54,83.947" style="fill:rgb(4,4,4);"/>
        <path id="path1" d="M194.417,65.766C186.009,66.275 180.846,66.867 174.9,68.002C116.076,79.233 71.682,127.956 66.096,187.418C65.341,195.447 65.338,207.053 66.089,212.667C66.132,212.987 66.199,213.662 66.239,214.167C66.327,215.289 66.755,218.53 67.097,220.667C67.236,221.537 67.382,222.512 67.421,222.833C67.459,223.154 67.716,224.534 67.991,225.899C68.266,227.264 68.451,228.445 68.402,228.524C68.353,228.602 68.381,228.667 68.462,228.667C68.544,228.667 68.613,228.76 68.616,228.875C68.618,228.99 68.818,229.896 69.061,230.89C69.303,231.884 69.459,232.765 69.407,232.849C69.356,232.932 69.386,233 69.476,233C69.604,233 69.773,233.582 69.909,234.5C69.916,234.546 69.984,234.682 70.061,234.803C70.137,234.923 70.156,235.067 70.101,235.121C70.047,235.175 70.068,235.301 70.148,235.401C70.228,235.501 70.57,236.558 70.909,237.75C71.668,240.42 73.746,246.512 74.654,248.729C75.024,249.634 75.287,250.44 75.237,250.521C75.188,250.601 75.226,250.667 75.323,250.667C75.421,250.667 75.5,250.778 75.5,250.914C75.5,251.154 75.777,251.786 77.273,254.957C77.673,255.805 78,256.538 78,256.586C78,256.848 81.672,263.96 82.968,266.208C83.8,267.652 84.429,268.834 84.365,268.836C84.302,268.837 84.331,268.894 84.43,268.961C84.529,269.028 85.477,270.441 86.537,272.101C87.597,273.76 89.231,276.195 90.168,277.51C91.105,278.826 91.95,280.074 92.046,280.284C92.142,280.495 92.275,280.667 92.342,280.667C92.41,280.667 92.904,281.248 93.441,281.958C93.977,282.668 94.517,283.355 94.64,283.484C94.762,283.614 95.175,284.139 95.556,284.652C95.938,285.164 96.336,285.658 96.441,285.75C96.546,285.842 97.44,286.854 98.426,288C102.444,292.666 106.96,297.184 111.833,301.412C112.979,302.406 114.029,303.323 114.167,303.451C117.082,306.146 126.969,313.021 132.368,316.108C133.586,316.804 134.621,317.421 134.667,317.479C134.712,317.536 135.012,317.714 135.333,317.874C135.654,318.034 136.029,318.23 136.167,318.311C136.304,318.391 136.754,318.616 137.167,318.811C137.579,319.006 138.554,319.507 139.333,319.924C140.112,320.341 141.725,321.119 142.917,321.654C144.108,322.189 145.571,322.855 146.167,323.133C147.51,323.76 152.296,325.65 154.75,326.522C155.758,326.881 156.733,327.242 156.917,327.324C157.1,327.407 157.453,327.518 157.701,327.572C157.949,327.625 158.362,327.755 158.618,327.86C158.874,327.965 159.158,328.069 159.25,328.09C160.114,328.291 163.149,329.211 163.382,329.342C163.546,329.435 163.752,329.467 163.84,329.412C163.928,329.358 164,329.377 164,329.454C164,329.532 164.131,329.6 164.292,329.605C164.572,329.614 170.652,331.098 171.167,331.282C171.304,331.332 171.71,331.402 172.069,331.438C172.428,331.474 172.809,331.578 172.917,331.667C173.026,331.757 173.153,331.791 173.202,331.743C173.25,331.695 173.655,331.742 174.103,331.848C174.929,332.044 177.073,332.45 177.833,332.554C178.063,332.586 178.963,332.705 179.833,332.819C180.704,332.934 181.578,333.105 181.776,333.2C181.973,333.295 182.203,333.331 182.286,333.279C182.37,333.228 182.958,333.255 183.594,333.341C192.032,334.476 205.507,334.582 214.333,333.582C215.571,333.442 216.921,333.291 217.333,333.247C217.746,333.204 218.346,333.124 218.667,333.071C218.987,333.018 220.45,332.785 221.917,332.553C224.807,332.096 224.718,332.111 225.874,331.847C226.308,331.747 226.721,331.678 226.79,331.693C226.86,331.707 227.029,331.676 227.167,331.622C227.304,331.569 228.017,331.401 228.75,331.25C229.483,331.098 231.282,330.671 232.746,330.3C234.211,329.929 235.486,329.609 235.579,329.588C235.673,329.567 235.862,329.507 236,329.453C236.319,329.329 239.206,328.521 239.611,328.443C239.779,328.41 240.029,328.335 240.167,328.276C240.862,327.978 242.833,327.365 242.833,327.447C242.833,327.499 242.927,327.467 243.042,327.376C243.156,327.285 243.662,327.078 244.167,326.917C244.671,326.755 246.133,326.213 247.417,325.712C248.7,325.212 249.825,324.783 249.917,324.76C250.008,324.737 250.271,324.639 250.5,324.543C250.729,324.446 251.292,324.216 251.75,324.032C252.208,323.847 254.065,323.022 255.875,322.198C257.685,321.375 259.168,320.749 259.169,320.809C259.171,320.868 259.227,320.837 259.294,320.739C259.467,320.49 263.666,318.296 263.669,318.454C263.671,318.525 263.727,318.5 263.794,318.398C263.926,318.199 264.927,317.649 265.105,317.678C265.164,317.687 265.259,317.627 265.315,317.544C265.371,317.461 266.603,316.702 268.053,315.856C302.208,295.945 326.345,260.919 332.67,222.088C345.452,143.631 289.258,72.369 209.583,65.995C207.407,65.82 196.286,65.653 194.417,65.766M194.785,83.851C194.92,83.986 195.279,83.98 196.121,83.83C197.244,83.629 198.187,83.662 200.5,83.98C202.926,84.315 207.205,84.639 208.047,84.552C208.575,84.497 209.089,84.536 209.294,84.646C209.485,84.748 210.47,84.871 211.482,84.919C212.494,84.967 213.709,85.08 214.183,85.17C214.658,85.26 215.504,85.334 216.064,85.334C216.625,85.335 217.346,85.405 217.667,85.49C217.987,85.576 218.557,85.725 218.932,85.822C219.307,85.919 219.787,86.149 219.999,86.333C220.298,86.592 220.63,86.668 221.484,86.674C222.089,86.678 222.921,86.757 223.333,86.85C223.746,86.942 224.383,87.084 224.75,87.164C225.314,87.288 227.788,88.138 228.917,88.597C229.1,88.671 229.883,89.098 230.658,89.544L232.065,90.356L232.353,89.974C232.932,89.206 234.877,89.532 237.598,90.855C238.705,91.393 239.68,91.835 239.764,91.836C239.848,91.838 240.078,92.009 240.275,92.217C240.961,92.942 242.305,93.534 243.592,93.678C244.883,93.823 245.752,94.163 246.167,94.685C246.426,95.01 248.476,95.833 249.028,95.833C249.199,95.833 249.761,96.058 250.277,96.333C250.792,96.608 251.376,96.833 251.574,96.833C251.773,96.833 252.189,97.021 252.5,97.25C252.811,97.479 253.135,97.667 253.221,97.667C253.306,97.667 253.662,97.925 254.012,98.241C254.362,98.557 254.963,98.9 255.347,99.004C256.214,99.237 257.074,99.779 257.824,100.565C258.14,100.896 258.485,101.167 258.59,101.167C258.696,101.167 258.918,101.318 259.086,101.503C259.253,101.687 259.673,101.884 260.019,101.939C260.827,102.068 262.148,102.933 262.58,103.616C262.765,103.908 263.123,104.236 263.376,104.344C263.628,104.453 264.058,104.813 264.331,105.146C265.045,106.014 265.128,106.09 266.417,107.049C267.487,107.845 269.115,109.372 270.45,110.833C271.242,111.699 272.254,112.5 272.558,112.5C272.908,112.5 275.14,114.425 275.367,114.923C275.464,115.136 275.755,115.399 276.015,115.506C276.274,115.614 276.789,116.087 277.159,116.559C277.99,117.617 278.615,118.219 279.194,118.52C279.911,118.891 282.977,122.24 283.329,123.035C283.505,123.433 283.848,123.944 284.091,124.171C284.334,124.398 284.713,124.921 284.933,125.333C285.153,125.746 285.564,126.356 285.846,126.689C286.129,127.022 286.431,127.611 286.518,127.998C286.605,128.385 286.853,128.937 287.069,129.226C287.285,129.514 287.512,129.917 287.574,130.12C287.636,130.324 288.113,130.871 288.635,131.336C289.156,131.801 289.75,132.459 289.954,132.799C290.336,133.436 291.487,134.733 293.278,136.544C294.368,137.647 294.833,138.396 294.833,139.051C294.833,139.437 296.765,142.567 297.821,143.893C298.103,144.247 298.333,144.655 298.333,144.8C298.333,145.114 299.527,147.169 300.199,148.011C300.688,148.624 301.249,149.917 301.531,151.083C301.619,151.45 301.949,152.254 302.263,152.869C302.647,153.623 302.834,154.222 302.835,154.703C302.837,155.095 303.024,156.091 303.252,156.915C303.48,157.74 303.667,158.612 303.667,158.854C303.667,159.096 303.919,159.996 304.228,160.855C304.536,161.714 305.076,163.277 305.427,164.328C306.027,166.127 306.683,167.554 307,167.75C307.078,167.798 307.308,168.342 307.513,168.96C307.717,169.578 307.996,170.254 308.132,170.464C308.309,170.737 308.35,171.084 308.277,171.701C308.194,172.4 308.241,172.664 308.528,173.128C308.767,173.516 308.906,174.08 308.962,174.891C309.009,175.57 309.178,176.35 309.355,176.702C309.564,177.116 309.667,177.677 309.667,178.404C309.667,179 309.792,179.847 309.945,180.286C310.111,180.76 310.213,181.521 310.198,182.163C310.173,183.246 310.263,183.663 310.878,185.296C311.172,186.076 311.186,186.274 311.005,187.046C310.767,188.063 310.767,188.261 311.002,190.25C311.099,191.075 311.209,192.669 311.247,193.792C311.284,194.916 311.375,195.928 311.448,196.042C311.559,196.215 311.716,201.78 311.649,203.167C311.61,203.969 311.63,204.762 311.725,206.25C311.812,207.607 311.684,209.203 311.192,212.917C311.119,213.467 310.859,214.357 310.613,214.896C310.076,216.074 310.016,217.089 310.478,217.209C310.961,217.335 311.019,218.867 310.634,221.333C310.456,222.479 310.242,223.922 310.16,224.539C310.009,225.671 309.468,227 309.159,227C308.844,227 308.679,227.78 308.857,228.426C309.125,229.397 308.905,230.104 308.073,230.936L307.333,231.675L307.333,232.896C307.333,234.114 306.944,235.218 306.235,236.013C306.096,236.169 306,236.634 306,237.151C306,237.808 305.855,238.327 305.42,239.232C304.964,240.181 304.786,240.843 304.591,242.327C304.41,243.708 304.229,244.421 303.917,244.983C303.682,245.405 303.302,246.125 303.071,246.583C302.506,247.706 302.241,248.159 302.019,248.381C301.917,248.483 301.833,248.892 301.833,249.29C301.833,250.181 301.402,251.042 300.518,251.917C300.148,252.283 299.842,252.699 299.839,252.84C299.836,252.981 299.677,253.393 299.487,253.756C299.297,254.12 299.026,254.792 298.885,255.25C298.544,256.363 298.108,256.939 297.422,257.187C296.897,257.377 296.82,257.501 296.406,258.821C296.009,260.088 295.857,260.346 295.062,261.097C294.57,261.562 294.167,262.066 294.167,262.216C294.167,262.366 294.03,262.561 293.863,262.651C293.697,262.74 293.467,263.136 293.354,263.531C292.785,265.516 292.758,265.567 292.039,266.049C291.258,266.573 290.93,267.093 290.784,268.044C290.695,268.616 289.697,270.795 289.298,271.287C289.208,271.399 288.881,271.539 288.573,271.596C287.927,271.717 287.758,271.888 287.596,272.583C287.41,273.379 286.17,275.312 285.647,275.621C285.38,275.779 285.087,276.152 284.984,276.466C284.656,277.459 283.894,278.167 283.154,278.167C282.596,278.167 282.471,278.239 282.232,278.701C281.928,279.289 279.765,281.5 279.495,281.5C279.401,281.5 279.254,281.688 279.167,281.917C279.08,282.146 278.911,282.333 278.791,282.333C278.548,282.333 278.361,282.536 277.444,283.792C276.895,284.544 276.727,284.667 276.25,284.667C275.693,284.667 274.289,285.858 273.44,287.051C273.27,287.29 272.892,287.565 272.6,287.661C272.297,287.761 271.937,288.062 271.758,288.364C271.586,288.655 271.233,289.116 270.973,289.388C270.713,289.66 270.5,289.935 270.5,289.999C270.5,290.064 270.219,290.237 269.875,290.386C269.531,290.534 269.137,290.721 269,290.801C268.862,290.881 268.321,291.154 267.797,291.407C267.273,291.661 266.8,292.008 266.746,292.18C266.549,292.799 264.507,294.333 263.88,294.333C263.71,294.333 263.311,294.555 262.994,294.827C262.676,295.098 262.325,295.323 262.213,295.327C262.1,295.33 261.89,295.562 261.745,295.842C261.106,297.079 259.324,298.38 258.046,298.544C257.52,298.611 257.199,298.786 256.776,299.234C256.465,299.563 256.06,299.833 255.875,299.833C255.69,299.833 255.249,300.117 254.895,300.464C254.268,301.078 253.566,301.447 252.3,301.833C251.944,301.941 251.639,302.158 251.579,302.345C251.45,302.755 250.669,303.167 250.022,303.167C249.568,303.167 247.862,303.894 247.667,304.17C247.621,304.235 247.396,304.345 247.167,304.413C246.938,304.482 246.6,304.675 246.417,304.842C246.233,305.009 245.708,305.241 245.25,305.356C244.792,305.472 244.318,305.64 244.198,305.729C244.078,305.818 243.807,305.909 243.595,305.932C243.003,305.995 241.471,306.825 241.118,307.274C240.944,307.495 240.518,307.821 240.171,307.998C239.825,308.174 239.501,308.423 239.452,308.55C239.373,308.758 238.75,308.975 237.479,309.238C237.196,309.297 236.969,309.506 236.833,309.833C236.697,310.163 236.473,310.368 236.187,310.425C234.596,310.744 233.017,311.224 232.632,311.504C232.383,311.685 231.999,311.833 231.778,311.833C231.557,311.833 231.022,311.99 230.59,312.181C230.147,312.377 229.64,312.488 229.43,312.435C229.215,312.381 228.781,312.481 228.409,312.67C228.054,312.852 227.601,313 227.402,313C227.204,313 226.714,313.181 226.313,313.401C225.601,313.793 225.073,313.879 221.083,314.256C220.533,314.307 219.596,314.504 219,314.692C217.529,315.156 215.16,315.278 214.887,314.904C214.645,314.574 213.139,314.715 212.821,315.098C212.714,315.227 212.316,315.338 211.938,315.343C211.56,315.349 210.912,315.42 210.5,315.503C207.651,316.07 207.787,316.057 207.587,315.784C207.426,315.563 207.207,315.548 206.109,315.684C204.772,315.85 204.5,315.805 204.5,315.418C204.5,315.163 204.737,315.074 205.833,314.917C208.872,314.484 210.684,313.924 211.008,313.318C211.109,313.129 211.413,312.897 211.683,312.803C211.953,312.709 212.249,312.491 212.341,312.319C212.652,311.739 214.92,310.833 216.062,310.833C216.802,310.833 217.305,310.722 217.914,310.425C218.824,309.98 220.964,309.324 222.646,308.976C223.48,308.803 223.748,308.671 223.887,308.366C223.984,308.153 224.293,307.867 224.573,307.733C225.647,307.216 226.122,306.894 226.811,306.217C227.519,305.52 229.803,304.167 230.27,304.167C230.544,304.167 231.957,302.696 232.236,302.122C232.336,301.917 232.823,301.544 233.319,301.293C234.503,300.693 234.751,300.451 235.269,299.392C235.682,298.549 238.567,295.667 238.999,295.667C239.086,295.667 239.267,295.46 239.401,295.208C239.535,294.956 240.067,294.225 240.585,293.583C241.102,292.942 241.622,292.192 241.74,291.917C241.858,291.642 242.114,291.274 242.31,291.099C242.522,290.911 242.667,290.582 242.667,290.292C242.667,289.722 243.143,288.833 243.448,288.833C243.654,288.833 244.167,288.012 244.167,287.682C244.167,287.59 244.335,287.267 244.542,286.965C245.364,285.759 245.873,285.185 246.465,284.793C246.949,284.473 247.132,284.205 247.302,283.57C247.421,283.122 247.69,282.53 247.898,282.253C248.106,281.976 248.391,281.525 248.532,281.25C248.673,280.975 248.91,280.525 249.06,280.25C249.209,279.975 249.332,279.628 249.332,279.479C249.333,279.185 249.63,278.412 250.264,277.052C250.485,276.576 250.667,275.928 250.667,275.611C250.667,275.294 250.819,274.521 251.005,273.893C251.191,273.264 251.461,272.355 251.604,271.873C251.748,271.391 252.024,270.886 252.217,270.75C252.555,270.513 252.557,270.495 252.263,270.28C252.019,270.102 251.978,269.924 252.062,269.403C252.12,269.044 252.209,268.45 252.259,268.083C252.31,267.717 252.436,267.117 252.54,266.75C252.77,265.936 252.854,263.139 252.841,256.667C252.838,255.063 252.877,253.262 252.928,252.667C253.11,250.533 253.095,248.753 252.891,248.333C252.78,248.104 252.573,247.25 252.432,246.434C252.287,245.598 252.053,244.817 251.894,244.642C251.196,243.871 250.621,242.553 250.712,241.934C250.789,241.407 250.597,240.877 249.918,239.75C249.252,238.642 249.126,238.283 249.13,237.5C249.133,237.055 248.976,236.411 248.745,235.917C248.531,235.458 248.268,234.783 248.16,234.417C248.052,234.05 247.763,233.487 247.517,233.167C246.87,232.321 246.053,230.976 245.923,230.542C245.861,230.335 245.74,230.167 245.653,230.167C245.567,230.167 245.3,229.754 245.061,229.249C244.39,227.831 243.568,227.013 242.667,226.865L241.917,226.741L241.498,225.523C241.268,224.852 240.961,224.217 240.816,224.11C240.67,224.004 240.446,223.625 240.317,223.268C240.189,222.912 239.919,222.512 239.719,222.381C239.518,222.25 239.307,221.928 239.25,221.667C239.193,221.405 238.972,221.078 238.761,220.939C238.539,220.794 238.279,220.358 238.146,219.909C237.927,219.164 237.327,218.465 236.367,217.833C236.158,217.696 235.871,217.246 235.73,216.835C235.427,215.948 235.218,215.667 234.865,215.667C234.722,215.667 234.429,215.501 234.213,215.299C233.998,215.096 233.473,214.74 233.046,214.507C232.62,214.274 232.148,213.858 231.998,213.583C231.691,213.022 231.122,212.674 230.5,212.667C230.271,212.664 229.896,212.554 229.667,212.422C229.438,212.29 228.855,211.994 228.373,211.766C227.891,211.537 227.452,211.236 227.399,211.097C227.345,210.958 226.735,210.56 226.042,210.214C225.207,209.796 224.665,209.401 224.433,209.042C224.241,208.745 223.971,208.465 223.833,208.419C223.696,208.374 223.112,207.878 222.537,207.316C221.503,206.308 221.475,206.294 220.272,206.159C219.603,206.084 218.724,205.874 218.319,205.693C215.922,204.621 214.505,204.141 213.5,204.061C212.904,204.014 212.154,203.873 211.833,203.749C207.481,202.056 205.997,201.701 203.178,201.679C202.039,201.67 201.292,201.565 200.461,201.297C199.514,200.993 199.29,200.968 199.174,201.155C199.066,201.329 198.779,201.357 197.956,201.272C197.106,201.185 196.835,201.214 196.672,201.41C196.454,201.673 195.266,201.64 193.636,201.326C193.041,201.211 192.744,201.233 192.386,201.42C191.687,201.784 189.924,201.732 188.673,201.309C187.78,201.008 187.53,200.982 187.074,201.147C186.503,201.354 185.657,201.283 184.25,200.91C183.792,200.788 183.004,200.638 182.5,200.577C181.221,200.42 179.631,200.006 179.333,199.753C179.185,199.627 178.573,199.53 177.833,199.516C175.758,199.477 173.968,198.868 172.636,197.749C172.368,197.524 171.77,197.299 171.15,197.19C170.535,197.081 169.964,196.867 169.747,196.664C169.546,196.475 169.089,196.275 168.732,196.221C168.047,196.116 167.5,195.755 167.5,195.407C167.5,195.293 167.282,195.123 167.016,195.03C166.749,194.938 166.483,194.709 166.424,194.523C166.365,194.336 166.184,194.142 166.023,194.09C165.861,194.039 165.434,193.726 165.073,193.395C164.712,193.064 164.004,192.596 163.5,192.355C162.832,192.035 162.519,191.77 162.345,191.374C162.175,190.989 161.944,190.787 161.547,190.678C161.239,190.593 160.725,190.293 160.405,190.012C160.084,189.73 159.768,189.497 159.703,189.494C159.637,189.49 159.321,189.151 159,188.74C158.679,188.329 158.097,187.837 157.706,187.647C157.314,187.456 156.908,187.139 156.803,186.942C156.697,186.745 156.248,186.234 155.805,185.807C155.362,185.38 154.999,184.967 154.997,184.89C154.996,184.813 154.816,184.581 154.599,184.375C154.382,184.169 154.154,183.736 154.094,183.413C154.033,183.09 153.837,182.734 153.658,182.623C153.48,182.511 153.333,182.354 153.333,182.274C153.333,182.193 153.108,181.871 152.833,181.558C152.558,181.245 152.333,180.848 152.333,180.677C152.333,180.505 152.07,180.05 151.749,179.665C151.427,179.281 151.116,178.767 151.057,178.525C150.903,177.893 149.013,175.336 148.443,174.99C147.957,174.694 147.727,174.38 147.24,173.346C147.093,173.033 146.691,172.433 146.349,172.013C146.006,171.593 145.605,170.95 145.457,170.583C145.008,169.467 144.638,168.182 144.725,168.04C144.937,167.697 143.872,165.827 143.116,165.216C142.549,164.757 142.262,164.366 142.071,163.794C141.926,163.359 141.741,162.963 141.659,162.912C141.423,162.766 140.719,160.349 140.592,159.25C140.528,158.7 140.369,157.88 140.238,157.428C140.107,156.976 140,156.336 140,156.005C140,155.674 139.85,155.11 139.667,154.75C139.483,154.39 139.333,153.868 139.332,153.59C139.332,153.311 139.189,152.483 139.015,151.75C138.438,149.319 138.713,138.303 139.38,137.088C139.483,136.902 139.585,135.85 139.607,134.75C139.699,130.29 139.815,127.463 139.926,126.954C140.186,125.766 141.306,123.704 141.992,123.153C142.363,122.855 142.667,122.541 142.667,122.456C142.667,122.371 142.805,122.102 142.975,121.859C143.33,121.349 144.859,117.905 145.168,116.917C145.283,116.55 145.437,116.173 145.511,116.079C145.683,115.86 146.103,114.586 146.251,113.833C146.394,113.103 147.596,111.212 147.997,111.084C148.203,111.019 148.333,110.748 148.412,110.224C148.532,109.424 149.101,108.667 149.582,108.667C149.733,108.667 149.976,108.362 150.153,107.949C150.322,107.554 150.657,107.102 150.897,106.945C151.137,106.788 151.333,106.523 151.333,106.357C151.333,106.191 151.634,105.626 152.002,105.101C152.37,104.575 152.771,103.907 152.893,103.615C153.272,102.71 154.391,101.33 154.833,101.22C155.063,101.163 155.398,101.016 155.579,100.892C155.76,100.768 156.032,100.667 156.183,100.667C156.335,100.667 156.555,100.551 156.673,100.41C156.79,100.268 157.002,100.175 157.144,100.202C157.286,100.229 157.555,100.115 157.743,99.947C157.93,99.779 158.41,99.385 158.809,99.07C159.209,98.755 159.696,98.261 159.893,97.972C160.268,97.421 160.416,97.318 161.288,96.995C161.669,96.854 161.937,96.574 162.205,96.037C162.413,95.62 162.696,95.221 162.833,95.151C163.819,94.646 165.317,93.999 165.513,93.993C166.191,93.974 169.408,91.855 169.591,91.307C169.806,90.666 171.268,89.39 171.962,89.238C172.782,89.059 172.846,89.011 173.11,88.377C173.45,87.559 173.485,87.543 175.157,87.419C175.941,87.361 176.95,87.168 177.397,86.99C177.845,86.812 178.52,86.663 178.897,86.659C180.041,86.647 180.996,86.396 181.424,85.993C181.687,85.746 182.146,85.568 182.726,85.49C183.254,85.418 183.901,85.183 184.303,84.917C184.923,84.507 185.076,84.476 185.974,84.58C186.673,84.661 187.276,84.615 188.024,84.424C188.69,84.253 189.654,84.162 190.624,84.18C191.791,84.202 192.255,84.145 192.54,83.947C192.978,83.642 194.51,83.577 194.785,83.851" style="fill:rgb(251,251,251);"/>
    </g>
</svg>
