<svg id="svg" version="1.1" xmlns="http://www.w3.org/2000/svg" xmlns:xlink="http://www.w3.org/1999/xlink" width="400" height="400" viewBox="0, 0, 400,400"><g id="svgg"><path id="path0" d="M192.618 83.809 C 192.237 84.060,191.928 84.101,190.914 84.036 C 190.002 83.978,189.259 84.053,188.096 84.322 C 186.839 84.612,186.442 84.647,186.156 84.494 C 185.664 84.231,184.445 84.434,184.078 84.840 C 183.749 85.203,182.850 85.498,182.067 85.499 C 181.764 85.500,181.427 85.637,181.249 85.834 C 180.884 86.238,179.809 86.559,178.963 86.518 C 178.621 86.501,177.984 86.635,177.546 86.815 C 177.097 87.001,176.126 87.191,175.319 87.251 C 173.598 87.380,173.181 87.569,172.936 88.329 C 172.789 88.785,172.624 88.943,172.155 89.079 C 171.828 89.173,171.362 89.381,171.119 89.542 C 170.877 89.702,170.617 89.833,170.543 89.833 C 170.291 89.833,169.558 90.799,169.404 91.334 C 169.239 91.903,167.390 92.954,163.934 94.444 C 162.510 95.058,162.437 95.115,162.119 95.878 C 161.870 96.473,161.678 96.695,161.352 96.764 C 160.494 96.946,160.175 97.163,159.852 97.785 C 159.375 98.703,156.560 100.460,154.583 101.074 C 154.178 101.200,153.254 102.426,152.813 103.423 C 152.636 103.824,152.425 104.193,152.344 104.243 C 152.124 104.379,151.167 106.128,151.167 106.395 C 151.167 106.523,150.986 106.747,150.765 106.892 C 150.543 107.037,150.228 107.460,150.063 107.833 C 149.877 108.255,149.623 108.546,149.389 108.605 C 148.800 108.753,148.177 109.821,148.169 110.697 C 148.168 110.851,148.035 111.022,147.875 111.077 C 147.438 111.227,146.388 112.836,146.179 113.678 C 145.872 114.910,145.613 115.741,145.481 115.921 C 145.412 116.015,145.230 116.465,145.077 116.921 C 144.721 117.987,143.720 120.114,143.516 120.240 C 143.430 120.293,143.307 120.576,143.242 120.868 C 143.178 121.160,142.680 121.917,142.134 122.551 C 141.589 123.184,141.059 123.901,140.956 124.143 C 140.853 124.385,140.681 124.696,140.573 124.833 C 139.778 125.845,139.523 128.141,139.436 135.083 C 139.423 136.084,139.324 136.950,139.189 137.250 C 138.903 137.882,138.523 143.055,138.677 144.215 C 138.740 144.693,138.754 145.148,138.707 145.228 C 138.441 145.684,138.546 150.461,138.849 151.645 C 139.024 152.328,139.167 153.209,139.167 153.602 C 139.167 154.322,139.392 155.036,139.766 155.500 C 139.877 155.637,140.002 156.125,140.045 156.583 C 140.295 159.275,141.031 162.322,141.594 163.000 C 141.709 163.137,141.887 163.569,141.991 163.959 C 142.111 164.411,142.341 164.773,142.625 164.959 C 143.716 165.671,144.182 166.346,144.052 167.024 C 144.006 167.264,144.051 167.512,144.151 167.574 C 144.251 167.636,144.333 167.908,144.333 168.179 C 144.333 169.093,145.418 171.451,146.208 172.252 C 146.723 172.774,147.006 173.244,147.172 173.853 C 147.372 174.588,147.492 174.750,147.990 174.958 C 148.566 175.199,149.325 175.807,149.330 176.033 C 149.336 176.245,150.354 177.667,150.501 177.667 C 150.580 177.667,150.693 177.835,150.752 178.042 C 150.979 178.829,151.492 179.795,151.732 179.887 C 151.870 179.940,152.064 180.285,152.164 180.655 C 152.397 181.521,152.982 182.425,153.456 182.648 C 153.716 182.771,153.861 183.029,153.937 183.506 C 154.010 183.962,154.177 184.275,154.440 184.447 C 154.656 184.589,154.833 184.849,154.833 185.024 C 154.833 185.200,154.959 185.392,155.113 185.451 C 155.552 185.620,156.667 186.766,156.667 187.049 C 156.667 187.189,157.022 187.476,157.456 187.686 C 158.249 188.069,159.331 189.083,159.333 189.442 C 159.333 189.548,159.553 189.710,159.820 189.804 C 160.088 189.897,160.387 190.122,160.484 190.303 C 160.581 190.484,160.943 190.699,161.288 190.780 C 161.744 190.888,161.982 191.064,162.153 191.423 C 162.443 192.029,162.730 192.250,163.548 192.495 C 163.967 192.620,164.234 192.823,164.337 193.092 C 164.422 193.317,164.594 193.500,164.720 193.500 C 164.846 193.500,165.084 193.650,165.250 193.833 C 165.416 194.017,165.651 194.167,165.772 194.167 C 165.893 194.167,166.110 194.347,166.255 194.567 C 166.399 194.788,166.701 195.014,166.925 195.071 C 167.150 195.127,167.333 195.272,167.333 195.394 C 167.333 195.765,167.923 196.176,168.604 196.279 C 168.959 196.333,169.438 196.550,169.667 196.761 C 169.935 197.009,170.396 197.187,170.963 197.262 C 171.558 197.340,172.038 197.532,172.445 197.855 C 172.775 198.118,173.118 198.333,173.206 198.333 C 173.293 198.333,173.578 198.485,173.838 198.670 C 174.631 199.235,175.576 199.477,177.345 199.569 C 178.276 199.617,179.132 199.736,179.249 199.832 C 179.502 200.043,180.790 200.373,182.500 200.667 C 183.188 200.785,184.160 200.983,184.660 201.107 C 185.673 201.359,186.969 201.401,187.298 201.192 C 187.421 201.114,187.907 201.189,188.443 201.370 C 189.580 201.754,192.082 201.826,192.619 201.491 C 192.904 201.313,193.141 201.309,193.833 201.468 C 194.872 201.708,196.704 201.729,196.930 201.503 C 197.037 201.397,197.456 201.398,198.138 201.508 C 199.226 201.684,199.500 201.633,199.500 201.256 C 199.500 201.081,199.686 201.103,200.347 201.354 C 200.907 201.566,201.796 201.704,202.972 201.759 C 205.719 201.889,207.537 202.234,209.458 202.989 C 211.674 203.860,212.078 203.981,213.129 204.089 C 213.746 204.152,214.475 204.298,214.750 204.413 C 215.025 204.528,215.775 204.825,216.417 205.074 C 217.058 205.322,217.915 205.675,218.321 205.858 C 218.727 206.041,219.569 206.234,220.191 206.286 C 220.814 206.338,221.289 206.437,221.247 206.505 C 221.205 206.574,221.413 206.816,221.710 207.044 C 222.007 207.272,222.537 207.731,222.887 208.063 C 223.237 208.395,223.612 208.667,223.720 208.668 C 223.828 208.668,224.042 208.890,224.196 209.160 C 224.512 209.715,225.909 210.659,226.422 210.663 C 226.608 210.665,227.008 210.929,227.310 211.250 C 227.613 211.571,227.990 211.833,228.148 211.833 C 228.306 211.833,228.677 212.011,228.972 212.229 C 229.267 212.447,229.865 212.672,230.302 212.730 C 231.162 212.844,231.833 213.217,231.833 213.581 C 231.833 213.823,232.965 214.833,233.237 214.833 C 233.326 214.833,233.590 215.011,233.824 215.229 C 234.058 215.447,234.475 215.696,234.750 215.783 C 235.167 215.914,235.300 216.097,235.551 216.879 C 235.761 217.534,235.958 217.851,236.206 217.929 C 236.827 218.126,237.972 219.433,238.095 220.085 C 238.162 220.445,238.364 220.788,238.599 220.942 C 238.825 221.090,239.036 221.437,239.096 221.761 C 239.161 222.105,239.324 222.361,239.519 222.423 C 239.856 222.530,240.333 223.306,240.333 223.747 C 240.333 223.892,240.452 224.056,240.596 224.111 C 240.871 224.217,241.029 224.533,241.499 225.917 C 241.768 226.711,241.820 226.759,242.599 226.952 C 243.548 227.186,244.302 227.929,244.930 229.250 C 245.148 229.708,245.625 230.533,245.991 231.083 C 246.356 231.633,246.706 232.196,246.769 232.333 C 246.831 232.471,247.057 232.773,247.270 233.005 C 247.484 233.237,247.885 234.054,248.162 234.820 C 248.439 235.587,248.732 236.297,248.814 236.399 C 248.895 236.500,248.993 237.087,249.030 237.703 C 249.080 238.514,249.190 238.927,249.432 239.203 C 250.072 239.934,250.581 241.214,250.594 242.127 C 250.603 242.729,250.712 243.147,250.943 243.460 C 251.599 244.352,252.202 245.581,252.267 246.162 C 252.364 247.018,252.689 248.390,252.842 248.585 C 252.914 248.677,252.930 249.464,252.876 250.335 C 252.822 251.205,252.757 254.017,252.732 256.583 C 252.706 259.150,252.618 261.639,252.536 262.114 C 252.444 262.643,252.449 263.289,252.548 263.781 C 252.670 264.393,252.642 264.900,252.429 265.917 C 251.956 268.177,251.836 268.869,251.679 270.250 C 251.532 271.537,251.314 272.490,250.764 274.250 C 250.621 274.708,250.503 275.315,250.502 275.599 C 250.501 275.882,250.200 276.832,249.833 277.710 C 249.467 278.587,249.167 279.447,249.167 279.620 C 249.167 279.793,248.979 280.189,248.750 280.500 C 248.521 280.811,248.332 281.144,248.330 281.241 C 248.329 281.337,248.111 281.736,247.847 282.126 C 247.583 282.515,247.280 283.194,247.175 283.634 C 247.017 284.291,246.877 284.491,246.387 284.754 C 246.060 284.930,245.671 285.264,245.524 285.496 C 245.376 285.727,245.132 286.009,244.980 286.121 C 244.688 286.338,244.000 287.554,244.000 287.853 C 244.000 287.950,243.662 288.358,243.250 288.759 C 242.734 289.260,242.500 289.625,242.500 289.928 C 242.500 290.170,242.282 290.691,242.016 291.085 C 241.750 291.479,241.482 291.961,241.420 292.156 C 241.358 292.351,241.130 292.677,240.913 292.880 C 240.507 293.260,239.937 294.003,239.318 294.958 C 239.125 295.256,238.907 295.500,238.833 295.500 C 238.420 295.500,235.484 298.654,235.087 299.525 C 234.596 300.602,234.448 300.753,233.732 300.905 C 233.447 300.966,232.960 301.273,232.649 301.586 C 231.304 302.942,230.869 303.434,230.776 303.708 C 230.722 303.869,230.561 304.000,230.418 304.000 C 229.862 304.000,227.492 305.359,226.723 306.119 C 226.280 306.558,225.479 307.142,224.943 307.417 C 224.393 307.699,223.906 308.078,223.824 308.287 C 223.741 308.499,223.479 308.700,223.214 308.757 C 222.959 308.812,222.578 308.926,222.367 309.012 C 222.157 309.097,221.809 309.167,221.594 309.167 C 221.087 309.167,217.700 310.265,217.374 310.535 C 217.221 310.662,216.615 310.745,215.825 310.747 C 214.776 310.749,214.438 310.816,214.056 311.098 C 213.796 311.289,213.375 311.497,213.119 311.560 C 212.864 311.624,212.527 311.830,212.369 312.019 C 212.212 312.207,211.767 312.512,211.381 312.696 C 210.995 312.880,210.634 313.175,210.578 313.351 C 210.424 313.837,209.597 314.179,208.450 314.231 C 207.882 314.257,207.267 314.368,207.083 314.478 C 206.900 314.588,206.225 314.770,205.583 314.883 C 203.998 315.161,203.843 315.739,205.345 315.768 C 205.878 315.779,206.447 315.899,206.679 316.049 C 207.350 316.484,207.972 316.564,208.552 316.291 C 209.648 315.775,210.287 315.612,211.596 315.516 C 212.556 315.445,213.025 315.333,213.233 315.125 C 213.603 314.754,213.688 314.759,214.408 315.184 C 215.180 315.639,217.516 315.711,218.167 315.300 C 218.396 315.155,218.996 314.939,219.500 314.820 C 220.004 314.701,220.492 314.552,220.583 314.488 C 220.675 314.425,221.425 314.324,222.250 314.264 C 224.751 314.084,226.037 313.834,226.668 313.406 C 227.054 313.145,227.382 313.044,227.632 313.109 C 227.874 313.173,228.129 313.102,228.337 312.913 C 228.552 312.719,229.072 312.580,229.863 312.508 C 230.555 312.445,231.090 312.314,231.128 312.199 C 231.165 312.090,231.441 312.000,231.741 312.000 C 232.042 312.000,232.467 311.864,232.686 311.698 C 233.192 311.313,234.291 310.927,235.647 310.657 C 236.576 310.472,236.752 310.375,237.038 309.889 C 237.292 309.460,237.478 309.333,237.855 309.333 C 238.494 309.333,239.336 308.970,239.734 308.523 C 239.909 308.327,240.147 308.167,240.263 308.167 C 240.572 308.167,241.500 307.343,241.500 307.069 C 241.500 306.838,241.695 306.763,242.142 306.825 C 242.266 306.842,242.321 306.781,242.264 306.690 C 242.205 306.594,242.567 306.447,243.123 306.341 C 243.651 306.240,244.460 306.010,244.920 305.829 C 245.380 305.648,245.837 305.500,245.936 305.500 C 246.034 305.500,246.251 305.350,246.417 305.167 C 246.583 304.983,246.813 304.833,246.930 304.833 C 247.046 304.833,247.353 304.660,247.612 304.448 C 248.214 303.957,250.061 303.167,250.607 303.167 C 250.873 303.167,251.262 302.929,251.670 302.516 C 252.131 302.050,252.514 301.832,253.018 301.747 C 253.850 301.606,254.525 301.225,254.991 300.633 C 255.176 300.397,255.533 300.153,255.784 300.090 C 256.034 300.027,256.559 299.681,256.949 299.321 C 257.444 298.865,257.810 298.667,258.155 298.667 C 258.657 298.667,259.419 298.394,259.781 298.085 C 259.889 297.993,260.289 297.692,260.669 297.417 C 261.049 297.142,261.561 296.560,261.805 296.125 C 262.050 295.690,262.338 295.334,262.446 295.334 C 262.553 295.333,262.864 295.145,263.138 294.916 C 263.423 294.675,263.744 294.540,263.893 294.597 C 264.216 294.721,266.637 292.932,266.830 292.426 C 267.003 291.971,267.321 291.730,267.780 291.707 C 267.981 291.697,268.289 291.545,268.465 291.369 C 268.641 291.192,269.196 290.847,269.698 290.602 C 270.396 290.260,270.817 289.883,271.493 288.994 C 271.978 288.356,272.476 287.833,272.598 287.833 C 272.908 287.833,273.962 286.882,274.086 286.490 C 274.143 286.313,274.368 286.122,274.588 286.067 C 274.807 286.012,275.137 285.712,275.321 285.400 C 275.591 284.943,275.759 284.833,276.190 284.833 C 276.609 284.833,276.852 284.685,277.320 284.142 C 277.984 283.372,279.635 281.708,281.060 280.373 C 281.574 279.890,282.146 279.201,282.329 278.841 C 282.642 278.228,282.700 278.193,283.249 278.282 C 283.940 278.394,284.887 277.562,285.082 276.672 C 285.144 276.392,285.411 276.015,285.689 275.818 C 285.962 275.623,286.368 275.191,286.591 274.857 C 286.814 274.523,287.123 274.075,287.277 273.862 C 287.432 273.648,287.646 273.128,287.753 272.706 C 287.924 272.033,288.025 271.913,288.581 271.720 C 289.583 271.373,291.000 269.173,291.000 267.965 C 291.000 267.227,291.459 266.500,292.091 266.236 C 292.779 265.949,293.151 265.419,293.272 264.559 C 293.365 263.895,293.825 262.833,294.020 262.833 C 294.081 262.833,294.245 262.552,294.386 262.208 C 294.526 261.865,294.878 261.433,295.167 261.250 C 295.720 260.899,296.379 259.788,296.576 258.873 C 296.770 257.978,297.166 257.340,297.596 257.232 C 298.155 257.092,298.790 256.289,299.004 255.451 C 299.102 255.065,299.366 254.402,299.591 253.977 C 299.816 253.553,300.000 253.046,300.000 252.852 C 300.000 252.659,300.094 252.497,300.208 252.493 C 300.830 252.472,302.267 249.873,302.076 249.114 C 302.013 248.862,302.137 248.526,302.457 248.079 C 302.719 247.715,303.037 247.154,303.165 246.833 C 303.293 246.512,303.567 245.987,303.775 245.667 C 304.355 244.774,304.623 243.853,304.828 242.058 C 304.980 240.723,305.127 240.199,305.616 239.250 C 306.069 238.371,306.224 237.857,306.244 237.167 C 306.266 236.423,306.378 236.094,306.838 235.422 C 307.347 234.680,307.415 234.446,307.494 233.153 C 307.582 231.740,307.597 231.695,308.280 230.955 C 309.117 230.047,309.479 229.037,309.193 228.408 C 308.911 227.789,308.956 227.369,309.327 227.170 C 309.840 226.896,310.346 225.545,310.515 224.000 C 310.600 223.221,310.744 222.208,310.834 221.750 C 311.417 218.793,311.361 217.228,310.653 216.786 C 310.220 216.516,310.248 216.221,310.832 214.921 C 311.537 213.348,312.081 209.186,311.921 206.583 C 311.859 205.575,311.811 204.450,311.814 204.083 C 311.818 203.717,311.816 203.079,311.812 202.667 C 311.799 201.582,311.813 201.329,311.928 200.561 C 311.992 200.134,311.962 199.830,311.849 199.760 C 311.624 199.621,311.619 198.492,311.839 197.539 C 311.966 196.986,311.945 196.692,311.744 196.210 C 311.595 195.854,311.499 195.199,311.518 194.670 C 311.573 193.158,311.310 188.939,311.141 188.622 C 311.040 188.432,311.056 187.962,311.185 187.306 C 311.395 186.240,311.357 186.024,310.551 183.705 C 310.387 183.234,310.339 182.725,310.410 182.205 C 310.488 181.628,310.423 181.126,310.168 180.333 C 309.913 179.539,309.847 179.027,309.922 178.417 C 310.007 177.720,309.953 177.452,309.595 176.783 C 309.266 176.169,309.167 175.741,309.167 174.943 C 309.167 174.199,309.066 173.716,308.810 173.244 C 308.558 172.776,308.464 172.331,308.486 171.719 C 308.508 171.126,308.411 170.645,308.176 170.184 C 307.987 169.815,307.833 169.408,307.833 169.280 C 307.833 169.152,307.465 168.306,307.014 167.399 C 305.552 164.458,303.756 159.672,303.921 159.154 C 303.968 159.006,303.823 158.180,303.598 157.318 C 303.374 156.455,303.141 155.282,303.079 154.710 C 303.015 154.112,302.841 153.509,302.669 153.291 C 302.291 152.810,301.833 151.724,301.833 151.306 C 301.833 151.131,301.683 150.693,301.500 150.333 C 301.317 149.974,301.167 149.540,301.167 149.369 C 301.167 149.197,300.710 148.403,300.152 147.603 C 299.594 146.804,298.921 145.671,298.656 145.087 C 298.391 144.503,298.102 143.980,298.014 143.925 C 297.926 143.871,297.610 143.397,297.311 142.871 C 297.013 142.346,296.407 141.417,295.965 140.807 C 295.446 140.090,295.112 139.427,295.019 138.931 C 294.843 137.988,294.184 136.961,293.495 136.555 C 293.211 136.387,292.769 135.912,292.514 135.500 C 292.044 134.739,291.045 133.667,290.806 133.667 C 290.734 133.667,290.554 133.423,290.405 133.125 C 290.257 132.827,289.580 132.042,288.901 131.380 C 288.222 130.719,287.667 130.068,287.667 129.935 C 287.667 129.801,287.482 129.473,287.256 129.204 C 287.030 128.936,286.796 128.409,286.736 128.033 C 286.662 127.568,286.394 127.077,285.897 126.495 C 285.495 126.024,285.167 125.531,285.167 125.399 C 285.167 125.267,284.875 124.842,284.519 124.455 C 284.162 124.067,283.753 123.467,283.609 123.122 C 283.466 122.777,282.798 121.914,282.127 121.205 C 281.455 120.497,280.728 119.664,280.511 119.356 C 280.294 119.048,279.854 118.686,279.533 118.552 C 278.942 118.305,278.267 117.667,277.117 116.270 C 276.768 115.846,276.378 115.500,276.249 115.500 C 276.121 115.500,275.749 115.152,275.424 114.726 C 275.099 114.301,274.624 113.794,274.368 113.601 C 274.112 113.408,273.737 113.081,273.534 112.875 C 273.332 112.669,273.023 112.500,272.847 112.500 C 272.428 112.500,271.121 111.369,269.896 109.946 C 268.870 108.754,266.263 106.559,265.466 106.216 C 265.210 106.106,265.000 105.932,265.000 105.830 C 265.000 105.468,264.140 104.523,263.656 104.355 C 263.382 104.259,263.013 103.925,262.820 103.598 C 262.414 102.910,261.127 102.069,260.222 101.902 C 259.533 101.775,259.125 101.503,257.847 100.322 C 257.395 99.904,256.700 99.428,256.304 99.265 C 254.715 98.611,254.167 98.330,254.167 98.172 C 254.167 98.081,253.848 97.845,253.458 97.647 C 253.069 97.449,252.571 97.148,252.353 96.977 C 252.134 96.806,251.770 96.667,251.544 96.667 C 251.318 96.667,250.784 96.488,250.358 96.270 C 249.448 95.805,248.020 95.333,247.520 95.333 C 247.326 95.333,246.886 95.081,246.542 94.773 C 245.614 93.941,244.992 93.683,243.638 93.568 C 242.311 93.455,240.892 92.786,240.406 92.044 C 240.266 91.830,239.990 91.667,239.769 91.667 C 239.555 91.667,239.110 91.483,238.779 91.259 C 237.116 90.130,234.383 89.308,232.643 89.412 C 231.424 89.485,231.284 89.456,229.970 88.847 C 228.624 88.223,228.243 88.085,226.667 87.648 C 226.254 87.534,225.834 87.378,225.732 87.303 C 225.291 86.974,221.832 86.431,221.096 86.575 C 220.743 86.644,220.509 86.577,220.249 86.332 C 219.764 85.876,217.732 85.333,216.513 85.333 C 215.968 85.333,214.983 85.220,214.324 85.081 C 213.666 84.943,212.344 84.816,211.386 84.799 C 210.429 84.782,209.606 84.703,209.557 84.623 C 209.507 84.544,208.893 84.487,208.192 84.498 C 207.490 84.509,206.392 84.470,205.750 84.412 C 205.108 84.353,204.133 84.270,203.583 84.228 C 203.033 84.186,201.908 84.076,201.083 83.983 C 198.673 83.711,195.668 83.625,195.432 83.821 C 195.284 83.944,195.130 83.924,194.903 83.752 C 194.447 83.407,193.180 83.439,192.618 83.809 " stroke="none" fill="" fill-rule="evenodd"></path></g></svg>