<?xml version="1.0" encoding="utf-8"?>
<!-- Generator: Adobe Illustrator 22.1.0, SVG Export Plug-In . SVG Version: 6.00 Build 0)  -->
<svg version="1.1" id="compass-bg" xmlns="http://www.w3.org/2000/svg" xmlns:xlink="http://www.w3.org/1999/xlink" x="0px" y="0px"
	 viewBox="0 0 512 512" style="enable-background:new 0 0 512 512;" xml:space="preserve">
<style type="text/css">
	.st0{fill-rule:evenodd;clip-rule:evenodd;fill:#999;}
	.st1{fill-rule:evenodd;clip-rule:evenodd;fill:#eee;}
	.st2{fill-rule:evenodd;clip-rule:evenodd;fill:#aaa;}
</style>
<g>
	<path class="st0" d="M256,5.5c138.3,0,250.5,112.1,250.5,250.5c0,138.3-112.1,250.5-250.5,250.5S5.5,394.3,5.5,256
		C5.5,117.7,117.7,5.5,256,5.5 M256,1.8c140.4,0,254.2,113.8,254.2,254.2c0,140.4-113.8,254.2-254.2,254.2
		C115.6,510.2,1.8,396.4,1.8,256C1.8,115.6,115.6,1.8,256,1.8z"/>
	<path class="st0" d="M256,500.8C121,500.8,11.2,391,11.2,256C11.2,121,121,11.2,256,11.2C391,11.2,500.8,121,500.8,256
		C500.8,391,391,500.8,256,500.8 M256,30.2C131.5,30.2,30.2,131.5,30.2,256c0,124.5,101.3,225.8,225.8,225.8
		c124.5,0,225.8-101.3,225.8-225.8S380.5,30.2,256,30.2z"/>
	<path id="XMLID_300_" class="st1" d="M78.6,88.2c3.1-3.3,6.4-6.6,9.7-9.7L101,91.3c-3.3,3.2-6.6,6.4-9.7,9.7L78.6,88.2z"/>
	<path id="XMLID_299_" class="st1" d="M468.1,177.2c-1.5-3.9-3.2-8.1-5.2-12.7l16.8-6.8c2,4.6,3.7,8.7,5.2,12.7L468.1,177.2z"/>
	<path id="XMLID_298_" class="st1" d="M482.1,262.9l0-1.2c0.1-1.9,0.1-3.7,0.1-5.6c0-1.9-0.1-3.8-0.1-5.6l0-1.2h18.1l0.1,1.8
		c0.1,1.7,0.1,3.4,0.1,5.1c0,1.7-0.1,3.4-0.1,5.1l-0.1,1.8H482.1z"/>
	<path id="XMLID_297_" class="st1" d="M350.3,50.4c-4.1-1.9-8.4-3.7-12.6-5.4l7-16.7c4.3,1.7,8.5,3.5,12.6,5.3L350.3,50.4z"/>
	<path id="XMLID_296_" class="st1" d="M11.8,262.9l-0.1-1.8c-0.1-1.7-0.1-3.4-0.1-5.1c0-1.7,0.1-3.4,0.1-5.1l0.1-1.7h18.1l0,1.1
		c-0.1,1.9-0.1,3.8-0.1,5.7c0,1.9,0.1,3.8,0.1,5.7l0,1.1H11.8z"/>
	<path id="XMLID_295_" class="st1" d="M88.3,433.4c-3.3-3.1-6.5-6.4-9.7-9.7L91.4,411c3.1,3.3,6.4,6.6,9.7,9.7L88.3,433.4z"/>
	<path id="XMLID_294_" class="st1" d="M334.8,468.1c3.9-1.5,8.1-3.2,12.7-5.2l6.8,16.8c-4.5,2-8.7,3.7-12.7,5.2L334.8,468.1z"/>
	<path id="XMLID_293_" class="st1" d="M256,500.4c-1.8,0-3.6-0.1-5.4-0.1l-1.5,0v-18.1l0.9,0c2,0.1,3.9,0.1,5.9,0.1
		c2,0,3.9-0.1,5.9-0.1l1,0v18.1l-1.5,0C259.6,500.3,257.8,500.4,256,500.4"/>
	<path id="XMLID_292_" class="st1" d="M167.3,483.6c-4.3-1.7-8.5-3.5-12.6-5.3l7-16.7c4.2,1.9,8.4,3.7,12.6,5.3L167.3,483.6z"/>
	<path id="XMLID_291_" class="st1" d="M249.1,11.8l1.6-0.1c1.8-0.1,3.5-0.1,5.3-0.1c1.8,0,3.5,0.1,5.3,0.1l1.6,0.1v18.1l-1,0
		c-2-0.1-3.9-0.1-5.9-0.1c-2,0-3.9,0.1-5.9,0.1l-0.9,0V11.8z"/>
	<path id="XMLID_290_" class="st1" d="M461.6,350.3c1.9-4.1,3.7-8.4,5.4-12.6l16.7,7c-1.7,4.3-3.5,8.5-5.3,12.6L461.6,350.3z"/>
	<path id="XMLID_289_" class="st1" d="M157.8,32.3c4.5-2,8.7-3.7,12.7-5.2l6.8,16.8c-3.9,1.5-8.1,3.2-12.7,5.2L157.8,32.3z"/>
	<path id="XMLID_288_" class="st1" d="M28.4,167.3c1.7-4.3,3.5-8.5,5.3-12.6l16.7,7c-1.9,4.1-3.7,8.4-5.3,12.6L28.4,167.3z"/>
	<path id="XMLID_287_" class="st1" d="M32.3,354.2c-2-4.6-3.7-8.8-5.2-12.7l16.8-6.8c1.5,3.9,3.2,8.1,5.2,12.7L32.3,354.2z"/>
	<path class="st0" d="M256,55.3c110.8,0,200.7,89.8,200.7,200.7c0,110.8-89.8,200.7-200.7,200.7c-110.8,0-200.7-89.8-200.7-200.7
		C55.3,145.2,145.2,55.3,256,55.3 M256,47.3c115.3,0,208.7,93.4,208.7,208.7S371.3,464.7,256,464.7c-115.3,0-208.7-93.4-208.7-208.7
		S140.7,47.3,256,47.3z"/>
	<path class="st0" d="M256,145.1c61.2,0,110.9,49.6,110.9,110.9S317.2,366.9,256,366.9c-61.2,0-110.9-49.6-110.9-110.9
		S194.8,145.1,256,145.1 M256,140.7c63.7,0,115.3,51.6,115.3,115.3c0,63.7-51.6,115.3-115.3,115.3c-63.7,0-115.3-51.6-115.3-115.3
		C140.7,192.3,192.3,140.7,256,140.7z"/>
	<path class="st0" d="M256,118.7c75.8,0,137.3,61.5,137.3,137.3c0,75.8-61.5,137.3-137.3,137.3c-75.8,0-137.3-61.5-137.3-137.3
		C118.7,180.2,180.2,118.7,256,118.7 M256,113.2c78.9,0,142.8,63.9,142.8,142.8c0,78.9-63.9,142.8-142.8,142.8
		S113.2,334.9,113.2,256C113.2,177.1,177.1,113.2,256,113.2z"/>
	<path id="XMLID_280_" class="st1" d="M425.3,96.7c-3.2-3.4-6.6-6.8-10-10l13.2-13.2c3.4,3.2,6.7,6.5,10,10L425.3,96.7z"/>
	<path id="XMLID_279_" class="st1" d="M415.3,425.3c3.4-3.2,6.8-6.6,10-10l13.2,13.1c-3.2,3.4-6.5,6.7-10,10L415.3,425.3z"/>
	
		<rect id="XMLID_278_" x="253.7" y="115" transform="matrix(0.3827 -0.9239 0.9239 0.3827 -78.4815 394.542)" class="st0" width="4.7" height="281.9"/>
	
		<rect id="XMLID_277_" x="115" y="253.7" transform="matrix(0.3827 -0.9239 0.9239 0.3827 -78.4817 394.542)" class="st0" width="281.9" height="4.7"/>
	
		<rect id="XMLID_276_" x="115" y="253.7" transform="matrix(0.9239 -0.3827 0.3827 0.9239 -78.4818 117.4582)" class="st0" width="281.9" height="4.7"/>
	
		<rect id="XMLID_275_" x="253.7" y="115" transform="matrix(0.9239 -0.3827 0.3827 0.9239 -78.48 117.4537)" class="st0" width="4.7" height="281.9"/>
	<polygon id="XMLID_274_" class="st1" points="256.6,207.3 363.7,146.5 257.2,252.9 	"/>
	<path class="st0" d="M356,152.3l-97.5,97.5l-0.6-41.8L356,152.3z M371.3,140.7l-116,65.9L256,256L371.3,140.7z"/>
	<polygon id="XMLID_271_" class="st0" points="371.3,140.7 256,256 305.4,256.7 	"/>
	<polygon id="XMLID_270_" class="st1" points="254.8,259.1 255.4,304.7 148.3,365.5 	"/>
	<path class="st0" d="M253.5,262.1l0.6,41.8L156,359.7L253.5,262.1z M256,256L140.7,371.3l116-65.9L256,256z"/>
	<polygon id="XMLID_267_" class="st0" points="140.7,371.3 256,256 206.5,255.3 	"/>
	<polygon id="XMLID_266_" class="st1" points="259.2,257.3 304.7,258 365.4,363.5 	"/>
	<path class="st0" d="M262.3,258.6l41.6,0.6l55.5,96.5L262.3,258.6z M256,256l115.3,115.3l-65.9-114.6L256,256z"/>
	<polygon id="XMLID_263_" class="st0" points="371.3,371.3 256,256 256.7,305.4 	"/>
	<polygon id="XMLID_262_" class="st1" points="207.3,254 146.6,148.5 252.8,254.7 	"/>
	<path class="st0" d="M152.6,156.2l97.1,97.1l-41.6-0.6L152.6,156.2z M140.7,140.7l65.9,114.6L256,256L140.7,140.7z"/>
	<polygon id="XMLID_259_" class="st0" points="140.7,140.7 256,256 255.3,206.5 	"/>
	<path class="st2" d="M252.9,84.6v164.2L217.2,214L252.9,84.6z M256,61.9l-42.2,153l42.2,41V61.9z"/>
	<polygon id="XMLID_256_" class="st2" points="256,61.9 256,256 298.2,215 	"/>
	<path class="st2" d="M259.1,263.3l35.7,34.7l-35.7,129.4V263.3z M256,256v194.1l42.2-153L256,256z"/>
	<polygon id="XMLID_253_" class="st2" points="256,450.1 256,256 213.8,297 	"/>
	<path class="st2" d="M299.1,218.4L427,252.9H263.5L299.1,218.4z M298.2,215L256,256h194.1L298.2,215z"/>
	<polygon id="XMLID_250_" class="st2" points="450.1,256 256,256 298.2,297 	"/>
	<path class="st2" d="M248.5,259.1l-35.5,34.5L85,259.1H248.5z M256,256H62l151.9,41L256,256z"/>
	<polygon id="XMLID_247_" class="st2" points="62,256 256,256 213.8,215 	"/>
	<polygon id="XMLID_246_" class="st1" points="215.5,214.5 254.4,73.3 254.4,252.4 	"/>
	<path class="st0" d="M252.9,84.6v164.2L217.2,214L252.9,84.6z M256,61.9l-42.2,153l42.2,41V61.9z"/>
	<polygon id="XMLID_243_" class="st0" points="256,61.9 256,256 298.2,215 	"/>
	<polygon id="XMLID_242_" class="st1" points="257.6,259.6 296.5,297.5 257.6,438.7 	"/>
	<path class="st0" d="M259.1,263.3l35.7,34.7l-35.7,129.4V263.3z M256,256v194.1l42.2-153L256,256z"/>
	<polygon id="XMLID_239_" class="st0" points="256,450.1 256,256 213.8,297 	"/>
	<polygon id="XMLID_238_" class="st1" points="259.8,254.4 298.6,216.7 438.5,254.4 	"/>
	<path class="st0" d="M299.1,218.4L427,252.9H263.5L299.1,218.4z M298.2,215L256,256h194.1L298.2,215z"/>
	<polygon id="XMLID_235_" class="st0" points="450.1,256 256,256 298.2,297 	"/>
	<polygon id="XMLID_234_" class="st1" points="73.5,257.6 252.2,257.6 213.4,295.3 	"/>
	<path class="st0" d="M248.5,259.1l-35.5,34.5L85,259.1H248.5z M256,256H62l151.9,41L256,256z"/>
	<polygon id="XMLID_231_" class="st0" points="62,256 256,256 213.8,215 	"/>
</g>
</svg>
