<?xml version="1.0" encoding="utf-8"?>
<!-- Generator: Adobe Illustrator 22.1.0, SVG Export Plug-In . SVG Version: 6.00 Build 0)  -->
<svg version="1.1" id="Capa_2" xmlns="http://www.w3.org/2000/svg" xmlns:xlink="http://www.w3.org/1999/xlink" x="0px" y="0px"
	 viewBox="0 0 500 500" style="enable-background:new 0 0 500 500;" xml:space="preserve">
<style type="text/css">
	.st0{fill:none;stroke:#020203;stroke-linecap:round;stroke-linejoin:round;}
</style>
<g>
	<g>
		<line id="line5632" class="st0" x1="249" y1="52.8" x2="249.4" y2="44.6"/>
		<path id="path5634" class="st0" d="M249.4,44.6c0-0.8,1.1-0.8,1.1,0"/>
		<line id="line5636" class="st0" x1="251" y1="52.8" x2="250.6" y2="44.6"/>
		<path id="path5638" class="st0" d="M251.3,57.2c0.3,0.3,0.5,0.6,0.8,0.9c0.4,0.6,0.8,1.2,1.1,1.9c0.3,0.6,0.5,1.3,0.7,2
			c0.2,0.7,0.3,1.4,0.3,2.1c0.1,0.8,0.1,1.5,0,2.3c-0.1,0.8-0.2,1.6-0.3,2.4c-0.2,0.9-0.3,1.8-0.6,2.6c-0.2,1-0.5,1.9-0.7,2.9
			c-0.3,1.1-0.6,2.2-0.8,3.3c-0.3,1-0.5,2.1-0.7,3.1c-0.2,0.8-0.3,1.5-0.5,2.3c-0.1,0.7-1,0.7-1.1,0c-0.2-0.8-0.3-1.6-0.5-2.3
			c-0.2-1-0.5-2.1-0.7-3.1c-0.3-1.1-0.5-2.2-0.8-3.3c-0.2-1-0.5-1.9-0.7-2.9c-0.2-0.9-0.4-1.8-0.6-2.6c-0.1-0.8-0.2-1.6-0.3-2.4
			c0-0.8-0.1-1.5,0-2.3c0.1-0.7,0.2-1.4,0.3-2.1c0.2-0.7,0.4-1.3,0.7-2c0.3-0.7,0.7-1.3,1.1-1.9c0.2-0.3,0.5-0.6,0.8-0.9"/>
		<path id="path5640" class="st0" d="M248.7,57.2c0.7-0.8,1.8-0.8,2.5,0"/>
		<path id="path5642" class="st0" d="M250,269.1c-10.8,0-20-8.1-21.3-18.8c-1.3-10.8,5.5-20.8,16-23.5"/>
		<path id="path5646" class="st0" d="M244.7,226.8c1.7-0.4,1.4-3-0.4-3"/>
		<path id="path5648" class="st0" d="M219,173c-0.1,0.8,1,1.1,1.2,0.3"/>
		<path id="path5650" class="st0" d="M219,173c0.3-2.6,1.3-4,2.2-4.9c1.1-1.1,2.3-1.6,2.9-2.4c0.6-0.8,0.5-2,0.9-3.2
			c0.3-0.9,1-1.8,2.5-2.7"/>
		<path id="path5652" class="st0" d="M227.5,159.8c0.7-0.4,0.5-1.4-0.2-1.5"/>
		<path id="path5654" class="st0" d="M227.3,158.3c-0.7-0.2-1.4-0.3-2.1-0.6c-1-0.3-1.9-0.7-2.9-1.2c-0.2-0.1-0.4-0.2-0.6-0.3"/>
		<path id="path5656" class="st0" d="M220.2,173.3c0.8-2.4,2.4-3.4,4-4c1.7-0.7,3.4-1.1,4.6-1.9c1.3-0.9,2.1-2.2,3.1-3.4
			c0.9-1.2,1.9-2.2,3.9-3.5c1.9-1.2,4.7-2.5,8.8-2.4"/>
		<path id="path5658" class="st0" d="M244.6,158.1c0.4,0,0.7,0.2,0.8,0.6"/>
		<path id="path5660" class="st0" d="M247.2,161.3c-1-0.7-1.5-1.5-1.8-2.6"/>
		<path id="path5662" class="st0" d="M247.2,161.3c0.3,0.2,0.4,0.4,0.3,0.7"/>
		<path id="path5664" class="st0" d="M244.3,223.8c-1.1,0-2.2,0-3.4,0c-0.4,0-0.6-0.2-0.6-0.6c0-0.5,0-1,0-1.6
			c0-0.4,0.2-0.6,0.6-0.6c1,0,2,0,3,0c0.4,0,0.5-0.2,0.6-0.5c1-19.5,2-39,3-58.5"/>
		<path id="path5666" class="st0" d="M245.8,147.3c0.7-0.6,1.5,0,1.1,0.9"/>
		<path id="path5668" class="st0" d="M246.8,143.4c0.4,0.8,1.3,0.7,1.4-0.2"/>
		<path id="path5670" class="st0" d="M245.8,147.3c-2.4,1.9-5.9-0.3-5.2-3.3c0.7-3,4.9-3.4,6.1-0.6"/>
		<path id="path5672" class="st0" d="M248.3,141.2c0,0.7,0,1.4-0.1,2"/>
		<path id="path5674" class="st0" d="M205.2,143c-0.3,0.3-0.1,0.8,0.4,0.6"/>
		<path id="path5676" class="st0" d="M205.6,143.6c3.4-1,3.5,4.7,0.1,3.9"/>
		<path id="path5678" class="st0" d="M205.2,143c0.1-0.1,0.3-0.2,0.4-0.3c0.2-0.1,0.4-0.2,0.6-0.3c0.3-0.1,0.5-0.2,0.8-0.2
			c0.4,0,0.7,0,1.1,0c0.5,0.1,1,0.2,1.5,0.3"/>
		<path id="path5680" class="st0" d="M210.9,143.7c-0.2-0.6-0.6-1-1.2-1.2"/>
		<path id="path5682" class="st0" d="M206,147.6c-2.3-0.4-3-1.9-3.1-3.2c-0.1-1.3,0.6-2.4,1.7-3.1c1.1-0.7,2.6-1.1,4.6-0.6"/>
		<path id="path5684" class="st0" d="M209.3,140.6c0.4,0.1,0.6-0.1,0.5-0.5"/>
		<path id="path5686" class="st0" d="M221.7,156.2c-5.4-3-8.6-6.8-10.9-12.5"/>
		<path id="path5688" class="st0" d="M209.8,140.1c-0.8-3.7-0.8-7.1,0-10.8"/>
		<path id="path5690" class="st0" d="M225.7,109c-1.1-3.2-0.9-5.9,0.5-9"/>
		<path id="path5692" class="st0" d="M229.6,113.5c0.7,0.3,0.5,1.1-0.2,1.1"/>
		<path id="path5694" class="st0" d="M233.6,114.9c-0.7-0.1-0.8-0.8-0.1-1.1"/>
		<path id="path5696" class="st0" d="M209.8,129.4c0-0.2,0.1-0.4,0.1-0.6c0.9-3.5,2.8-6.7,5.6-9.1c2.8-2.4,6.5-4,10.6-4.7
			c1-0.2,2.1-0.3,3.2-0.3"/>
		<path id="path5698" class="st0" d="M233.6,114.9c0.8,0.1,1.5,0.3,2.2,0.6"/>
		<path id="path5700" class="st0" d="M225.7,109c0.5,1.5,1.3,2.6,2.1,3.3c0.6,0.6,1.2,0.9,1.8,1.2"/>
		<line id="line5702" class="st0" x1="231.6" y1="114.1" x2="231.6" y2="114.1"/>
		<path id="path5704" class="st0" d="M229,107.8c-0.4,0.5-1.2,0.4-1.5-0.2"/>
		<path id="path5706" class="st0" d="M233.5,113.8c2.4-0.9,3.2-3.9,1.7-5.9c-1.5-2-4.6-2.1-6.2-0.1"/>
		<path id="path5708" class="st0" d="M240.4,70.7c0.3-0.6-0.2-1.3-0.9-1.1"/>
		<path id="path5710" class="st0" d="M226.2,100c0.2-0.4,0.4-0.8,0.6-1.1c0.4-0.6,0.8-1.1,1.2-1.7c0.5-0.5,1-1,1.6-1.4
			c0.6-0.4,1.2-0.8,1.8-1.1c0.6-0.3,1.3-0.6,2-0.8c0.7-0.2,1.4-0.4,2.1-0.5c0.7-0.1,1.4-0.2,2.1-0.2c0.7,0,1.3,0.1,2,0.2
			c1.2,0.2,2.3,0.5,3.3,1"/>
		<path id="path5712" class="st0" d="M243,94.4c0.7,0.3,1.4-0.4,1-1.1"/>
		<path id="path5714" class="st0" d="M246,93.4c0.3,0.7,1.4,0.6,1.6-0.2"/>
		<path id="path5716" class="st0" d="M227.5,107.6c-0.7-1.6-0.8-3.4-0.4-5.1c0.5-2.2,1.7-4,3.6-5.4c1.9-1.3,4.3-2.1,6.6-2.2
			s4.3,0.6,5.9,1.5c1.6,0.9,2.7,2.1,3.6,3.5c0.9,1.4,1.5,2.9,1.5,6.4"/>
		<path id="path5718" class="st0" d="M246,93.4c-0.1-0.2-0.2-0.5-0.4-0.7c-0.4-0.7-0.8-1.3-1.3-2c-0.4-0.6-0.9-1.1-1.4-1.6
			c-0.4-0.5-0.9-0.9-1.3-1.4c-0.4-0.4-0.8-0.8-1.3-1.2c-0.4-0.4-0.7-0.8-1.1-1.2c-0.3-0.4-0.7-0.7-1-1.1c-0.3-0.4-0.6-0.8-0.8-1.2
			c-0.3-0.4-0.5-0.8-0.7-1.2c-0.2-0.4-0.4-0.9-0.6-1.3c-0.2-0.4-0.3-0.9-0.5-1.4c-0.1-0.4-0.2-0.9-0.3-1.4c-0.1-0.4-0.1-0.9-0.1-1.3
			c0-0.4,0-0.8,0-1.3c0-0.4,0.1-0.8,0.2-1.2c0.1-0.4,0.2-0.7,0.4-1.1c0.1-0.3,0.3-0.6,0.5-0.9c0.3-0.5,0.8-1,1.3-1.4
			c0.5-0.4,1-0.7,1.6-0.9c0.1,0,0.3-0.1,0.4-0.1"/>
		<path id="path5720" class="st0" d="M247.9,55.1c0.7-0.7,1-1.4,1-2.3"/>
		<path id="path5722" class="st0" d="M247,148.1c-1.6,3.8-4.4,5.8-7,7c-3.9,1.9-7.3,2.2-10.5,1.7c-3.3-0.4-6.4-1.6-9.3-3.9
			c-2.8-2.3-5.3-5.7-6.5-9.6s-1.1-8.2,0.5-11.7c1.3-2.8,3.6-4.9,6.3-6.4"/>
		<path id="path5724" class="st0" d="M222.9,126.6c-0.2-1.2-1.5-1.8-2.6-1.2"/>
		<path id="path5726" class="st0" d="M222.9,126.6c1.1,5.8,6.9,9.4,12.6,7.6c5.6-1.7,8.5-8,6.2-13.4c-0.2-0.5,0-0.8,0.5-0.8
			c1.8,0,3.7,0,5.5,0c0.4,0,0.6,0.2,0.6,0.6c0,6.8,0,13.7,0,20.5"/>
		<path id="path5728" class="st0" d="M248.3,106.3c0,3.9,0,7.8,0,11.7c0,0.4-0.2,0.6-0.6,0.6c-2.4,0-4.8,0-7.1,0
			c-0.2,0-0.3-0.1-0.4-0.2c-1.2-1.4-2.6-2.4-4.3-3"/>
		<path id="path5730" class="st0" d="M244,93.3c-1.1-2-2.6-3.4-3.9-4.7c-1.8-1.8-3.3-3.4-4.5-5.3c-1.2-1.9-2-4.2-2.1-6.4
			c-0.1-2.2,0.4-4.3,1.4-5.8c1-1.6,2.5-2.7,4.2-3.1c1.3-0.3,2.8-0.2,4,0.3c0.5,0.2,0.9,0,0.8-0.6c0,0,0,0,0-0.1
			c-0.3-2.8-0.1-5.5,0.9-8c0.7-1.7,1.8-3.2,3.1-4.5"/>
		<path id="path5732" class="st0" d="M240.4,70.7c-1.4,2.6,1.6,5.3,4.1,3.7c0.4-0.3,0.7-0.2,0.9,0.3c0.2,0.6,0.3,1.3,0.5,1.9
			c0.8,3.2,1.6,6.7,2,9.4c0.3,2.3,0.4,4.2-0.4,7.1"/>
		<path id="path5734" class="st0" d="M259.6,70.7c1.4,2.6-1.6,5.3-4.1,3.7c-0.4-0.3-0.7-0.2-0.9,0.3c-0.2,0.6-0.3,1.3-0.5,1.9
			c-0.8,3.2-1.6,6.7-2,9.4c-0.3,2.3-0.4,4.2,0.4,7.1"/>
		<path id="path5736" class="st0" d="M256,93.3c1.1-2,2.6-3.4,3.9-4.7c1.8-1.8,3.3-3.4,4.5-5.3c1.2-1.9,2-4.2,2.1-6.4
			c0.1-2.2-0.4-4.3-1.4-5.8c-1-1.6-2.5-2.7-4.2-3.1c-1.3-0.3-2.8-0.2-4,0.3c-0.5,0.2-0.9,0-0.8-0.6c0,0,0,0,0-0.1
			c0.3-2.8,0.1-5.5-0.9-8c-0.7-1.7-1.8-3.2-3.1-4.5"/>
		<path id="path5738" class="st0" d="M251.7,106.3c0,3.9,0,7.8,0,11.7c0,0.4,0.2,0.6,0.6,0.6c2.4,0,4.8,0,7.1,0
			c0.2,0,0.3-0.1,0.4-0.2c1.2-1.4,2.6-2.4,4.3-3"/>
		<path id="path5740" class="st0" d="M277.1,126.6c-1.1,5.8-6.9,9.4-12.6,7.6c-5.6-1.7-8.5-8-6.2-13.4c0.2-0.5,0-0.8-0.5-0.8
			c-1.8,0-3.7,0-5.5,0c-0.4,0-0.6,0.2-0.6,0.6c0,6.8,0,13.7,0,20.5"/>
		<path id="path5742" class="st0" d="M277.1,126.6c0.2-1.2,1.5-1.8,2.6-1.2"/>
		<path id="path5744" class="st0" d="M253,148.1c1.6,3.8,4.4,5.8,7,7c3.9,1.9,7.3,2.2,10.5,1.7c3.3-0.4,6.4-1.6,9.3-3.9
			s5.3-5.7,6.5-9.6c1.2-3.9,1.1-8.2-0.5-11.7c-1.3-2.8-3.6-4.9-6.3-6.4"/>
		<path id="path5746" class="st0" d="M252.1,55.1c-0.7-0.7-1-1.4-1-2.3"/>
		<path id="path5748" class="st0" d="M254,93.4c0.1-0.2,0.2-0.5,0.4-0.7c0.4-0.7,0.8-1.3,1.3-2c0.4-0.6,0.9-1.1,1.4-1.6
			c0.4-0.5,0.9-0.9,1.3-1.4c0.4-0.4,0.8-0.8,1.3-1.2c0.4-0.4,0.7-0.8,1.1-1.2c0.3-0.4,0.7-0.7,1-1.1c0.3-0.4,0.6-0.8,0.8-1.2
			c0.3-0.4,0.5-0.8,0.7-1.2c0.2-0.4,0.4-0.9,0.6-1.3c0.2-0.4,0.3-0.9,0.5-1.4c0.1-0.4,0.2-0.9,0.3-1.4c0.1-0.4,0.1-0.9,0.1-1.3
			c0-0.4,0-0.8,0-1.3c0-0.4-0.1-0.8-0.2-1.2c-0.1-0.4-0.2-0.7-0.4-1.1c-0.1-0.3-0.3-0.6-0.5-0.9c-0.3-0.5-0.8-1-1.3-1.4
			c-0.5-0.4-1-0.7-1.6-0.9c-0.1,0-0.3-0.1-0.4-0.1"/>
		<path id="path5750" class="st0" d="M272.5,107.6c0.7-1.6,0.8-3.4,0.4-5.1c-0.5-2.2-1.7-4-3.6-5.4c-1.9-1.3-4.3-2.1-6.6-2.2
			s-4.3,0.6-5.9,1.5c-1.6,0.9-2.7,2.1-3.6,3.5c-0.9,1.4-1.5,2.9-1.5,6.4"/>
		<path id="path5752" class="st0" d="M254,93.4c-0.3,0.7-1.4,0.6-1.6-0.2"/>
		<path id="path5754" class="st0" d="M257,94.4c-0.7,0.3-1.4-0.4-1-1.1"/>
		<path id="path5756" class="st0" d="M273.8,100c-0.2-0.4-0.4-0.8-0.6-1.1c-0.4-0.6-0.8-1.1-1.2-1.7c-0.5-0.5-1-1-1.6-1.4
			c-0.6-0.4-1.2-0.8-1.8-1.1c-0.6-0.3-1.3-0.6-2-0.8c-0.7-0.2-1.4-0.4-2.1-0.5c-0.7-0.1-1.4-0.2-2.1-0.2c-0.7,0-1.3,0.1-2,0.2
			c-1.2,0.2-2.3,0.5-3.3,1"/>
		<path id="path5758" class="st0" d="M259.6,70.7c-0.3-0.6,0.2-1.3,0.9-1.1"/>
		<path id="path5760" class="st0" d="M266.5,113.8c-2.4-0.9-3.2-3.9-1.7-5.9c1.5-2,4.6-2.1,6.2-0.1"/>
		<path id="path5762" class="st0" d="M271,107.8c0.4,0.5,1.2,0.4,1.5-0.2"/>
		<line id="line5764" class="st0" x1="268.4" y1="114.1" x2="268.4" y2="114.1"/>
		<path id="path5766" class="st0" d="M274.3,109c-0.5,1.5-1.3,2.6-2.1,3.3c-0.6,0.6-1.2,0.9-1.8,1.2"/>
		<path id="path5768" class="st0" d="M266.4,114.9c-0.8,0.1-1.5,0.3-2.2,0.6"/>
		<path id="path5770" class="st0" d="M290.2,129.4c0-0.2-0.1-0.4-0.1-0.6c-0.9-3.5-2.8-6.7-5.6-9.1s-6.5-4-10.6-4.7
			c-1-0.2-2.1-0.3-3.2-0.3"/>
		<path id="path5772" class="st0" d="M266.4,114.9c0.7-0.1,0.8-0.8,0.1-1.1"/>
		<path id="path5774" class="st0" d="M270.4,113.5c-0.7,0.3-0.5,1.1,0.2,1.1"/>
		<path id="path5776" class="st0" d="M274.3,109c1.1-3.2,0.9-5.9-0.5-9"/>
		<path id="path5778" class="st0" d="M290.2,140.1c0.8-3.7,0.8-7.1,0-10.8"/>
		<path id="path5780" class="st0" d="M278.3,156.2c5.4-3,8.6-6.8,10.9-12.5"/>
		<path id="path5782" class="st0" d="M290.7,140.6c-0.4,0.1-0.6-0.1-0.5-0.5"/>
		<path id="path5784" class="st0" d="M294,147.6c2.3-0.4,3-1.9,3.1-3.2c0-1.3-0.6-2.4-1.7-3.1c-1.1-0.7-2.6-1.1-4.6-0.6"/>
		<path id="path5786" class="st0" d="M289.1,143.7c0.2-0.6,0.6-1,1.2-1.2"/>
		<path id="path5788" class="st0" d="M294.8,143c-0.1-0.1-0.3-0.2-0.4-0.3c-0.2-0.1-0.4-0.2-0.6-0.3c-0.3-0.1-0.5-0.2-0.8-0.2
			c-0.4,0-0.7,0-1.1,0c-0.5,0.1-1,0.2-1.5,0.3"/>
		<path id="path5790" class="st0" d="M294.4,143.6c-3.4-1-3.5,4.7-0.1,3.9"/>
		<path id="path5792" class="st0" d="M294.8,143c0.3,0.3,0.1,0.8-0.4,0.6"/>
		<path id="path5794" class="st0" d="M251.7,141.2c0,0.7,0,1.4,0.1,2"/>
		<path id="path5796" class="st0" d="M254.2,147.3c2.4,1.9,5.9-0.3,5.2-3.3c-0.7-3-4.9-3.4-6.1-0.6"/>
		<path id="path5798" class="st0" d="M253.2,143.4c-0.4,0.8-1.3,0.7-1.4-0.2"/>
		<path id="path5800" class="st0" d="M254.2,147.3c-0.7-0.6-1.5,0-1.1,0.9"/>
		<path id="path5802" class="st0" d="M255.7,223.8c1.1,0,2.2,0,3.4,0c0.4,0,0.6-0.2,0.6-0.6c0-0.5,0-1,0-1.6c0-0.4-0.2-0.6-0.6-0.6
			c-1,0-2,0-3,0c-0.4,0-0.5-0.2-0.6-0.5c-1-19.5-2-39-3-58.5"/>
		<path id="path5804" class="st0" d="M252.8,161.3c-0.3,0.2-0.4,0.4-0.3,0.7"/>
		<path id="path5806" class="st0" d="M252.8,161.3c1-0.7,1.5-1.5,1.8-2.6"/>
		<path id="path5808" class="st0" d="M255.4,158.1c-0.4,0-0.7,0.2-0.8,0.6"/>
		<path id="path5810" class="st0" d="M279.8,173.3c-0.8-2.4-2.4-3.4-4-4c-1.7-0.7-3.4-1.1-4.6-1.9c-1.3-0.9-2.1-2.2-3.1-3.4
			c-0.9-1.2-1.9-2.2-3.9-3.5c-1.9-1.2-4.7-2.5-8.8-2.4"/>
		<path id="path5812" class="st0" d="M272.7,158.3c0.7-0.2,1.4-0.3,2.1-0.6c1-0.3,1.9-0.7,2.9-1.2c0.2-0.1,0.4-0.2,0.6-0.3"/>
		<path id="path5814" class="st0" d="M272.5,159.8c-0.7-0.4-0.5-1.4,0.2-1.5"/>
		<path id="path5816" class="st0" d="M281,173c-0.3-2.6-1.3-4-2.2-4.9c-1.1-1.1-2.3-1.6-2.9-2.4c-0.6-0.8-0.5-2-0.9-3.2
			c-0.3-0.9-1-1.8-2.5-2.7"/>
		<path id="path5818" class="st0" d="M281,173c0.1,0.8-1,1.1-1.2,0.3"/>
		<path id="path5820" class="st0" d="M255.3,226.8c-1.7-0.4-1.4-3,0.4-3"/>
		<path id="path5824" class="st0" d="M250,269.1c10.8,0,20-8.1,21.3-18.8c1.3-10.8-5.5-20.8-16-23.5"/>
	</g>
	<g>
		<path id="path5558" class="st0" d="M243.3,272.3c0,0.3,0.1,0.4,0.4,0.4"/>
		<line id="line5560" class="st0" x1="243.3" y1="271.6" x2="243.3" y2="272.3"/>
		<path id="path5562" class="st0" d="M243.7,271.2c-0.3,0-0.4,0.1-0.4,0.4"/>
		<path id="path5566" class="st0" d="M246.9,269.5c-0.4,0.5-0.4,0.8-0.1,1.3"/>
		<path id="path5572" class="st0" d="M246.6,271.2c0.3,0,0.4-0.2,0.2-0.4"/>
		<line id="line5574" class="st0" x1="246.6" y1="271.2" x2="243.7" y2="271.2"/>
		<line id="line5576" class="st0" x1="253.4" y1="271.2" x2="256.3" y2="271.2"/>
		<path id="path5578" class="st0" d="M253.4,271.2c-0.3,0-0.4-0.2-0.2-0.4"/>
		<path id="path5584" class="st0" d="M253.1,269.5c0.4,0.5,0.4,0.8,0.1,1.3"/>
		<path id="path5588" class="st0" d="M256.3,271.2c0.3,0,0.4,0.1,0.4,0.4"/>
		<line id="line5590" class="st0" x1="256.7" y1="271.6" x2="256.7" y2="272.3"/>
		<path id="path5592" class="st0" d="M256.7,272.3c0,0.3-0.1,0.4-0.4,0.4"/>
		<line id="line5594" class="st0" x1="243.7" y1="272.7" x2="247.6" y2="272.7"/>
		<path id="path5596" class="st0" d="M247.8,273.4c0.4-0.2,0.3-0.7-0.2-0.7"/>
		<line id="line5598" class="st0" x1="256.3" y1="272.7" x2="252.8" y2="272.7"/>
		<path id="path5600" class="st0" d="M252.6,273.4c-0.4-0.2-0.3-0.7,0.2-0.7"/>
		<path id="path5602" class="st0" d="M248.8,275.6c-1.1,0.6-1.6,1.9-1.7,3c-0.2,1.4,0.3,2.6,0.7,3.4c0.5,0.8,1,1.3,1.7,1.6
			c0.7,0.4,1.7,0.6,3.2,0.4"/>
		<path id="path5604" class="st0" d="M249.5,276.2c0.1-0.4-0.4-0.8-0.7-0.6"/>
		<path id="path5606" class="st0" d="M252.5,279.3c-1.8,0.3-3.4-1.3-2.9-3.1"/>
		<path id="path5608" class="st0" d="M246.4,291.8c1.8-0.3,3.4,1.3,2.9,3.1"/>
		<path id="path5610" class="st0" d="M249.4,294.9c-0.1,0.4,0.4,0.8,0.7,0.6"/>
		<path id="path5612" class="st0" d="M250.1,295.5c1.1-0.6,1.6-1.9,1.7-3c0.2-1.4-0.3-2.6-0.7-3.4c-0.5-0.8-1-1.3-1.7-1.6
			c-0.7-0.4-1.7-0.6-3.2-0.4"/>
		<path id="path5614" class="st0" d="M250.8,428.1c0,1-1.5,1-1.5,0"/>
		<path id="path5616" class="st0" d="M246.4,291.8C246.4,291.8,246.4,291.8,246.4,291.8c-1.6,0.3-2.2,1.7-2.2,2.8
			c0,1.1,0.7,2.1,1.6,2.7c0.4,0.3,0.7,0.5,1.1,0.6"/>
		<path id="path5618" class="st0" d="M247,297.9c0.6,0.2,0.9,0.6,0.9,1.2"/>
		<line id="line5620" class="st0" x1="247.8" y1="299.2" x2="249.2" y2="428.1"/>
		<line id="line5622" class="st0" x1="252.2" y1="298.1" x2="250.8" y2="428.1"/>
		<path id="path5624" class="st0" d="M252.2,298.1c0-0.7,0.2-1.3,0.7-1.8"/>
		<path id="path5626" class="st0" d="M252.9,296.2c0.7-0.8,1.2-1.9,1.4-3.3c0.2-1.8-0.2-4.3-2.4-6.7c-0.2-0.2-0.2-0.4,0-0.6
			c0.4-0.4,0.7-0.9,0.8-1.5"/>
		<path id="path5628" class="st0" d="M246.2,287c0.1-0.7,0.5-1.2,0.8-1.5c0.2-0.2,0.2-0.4,0-0.6c-2.2-2.4-2.6-4.8-2.4-6.7
			c0.2-2,1.2-3.3,2.2-4.1c0.3-0.3,0.6-0.5,0.9-0.6"/>
		<path id="path5630" class="st0" d="M252.6,273.4c0.2,0.1,0.3,0.2,0.5,0.3c0.9,0.6,1.5,1.6,1.6,2.7c0,1.1-0.6,2.5-2.1,2.8
			c0,0-0.1,0-0.1,0"/>
	</g>
	<g>
		<path id="path3004" class="st0" d="M274.4,252.1c0.6,1,1.4,1.7,2.3,2.2c1.3,0.7,2.9,1,4.6,0.9c1.7-0.1,3.5-0.5,5.5-1.7
			c0.5-0.3,1-0.7,1.6-1"/>
		<path id="path3006" class="st0" d="M274.8,244.3c-0.1,0.2-0.3,0.4-0.4,0.6"/>
		<path id="path3008" class="st0" d="M273.7,252.2c0-0.5,0.5-0.6,0.7-0.2"/>
		<path id="path3010" class="st0" d="M273.7,252.2c0,2.1,0,4.1,0,6.2c0,0.3-0.1,0.5-0.5,0.5c-0.4,0-0.8,0-1.2,0
			c-0.3,0-0.5-0.1-0.5-0.5c0-1.4,0-2.8,0-4.2"/>
		<path id="path3012" class="st0" d="M273.7,244.7c0-1.1,0-2.1,0-3.2c0-0.3-0.1-0.5-0.5-0.5c-0.4,0-0.8,0-1.2,0
			c-0.3,0-0.5,0.1-0.5,0.5c0,1.4,0,2.8,0,4.2"/>
		<path id="path3014" class="st0" d="M274.4,244.9c-0.2,0.4-0.7,0.3-0.7-0.2"/>
		<path id="path3016" class="st0" d="M280.2,248.3c2.7-3.5-2.8-7.6-5.3-4"/>
		<path id="path3024" class="st0" d="M308,252.3c0,0.1,0,0.3,0,0.4c-0.1,0.8-0.3,1.6-0.5,2.3"/>
		<path id="path3026" class="st0" d="M292.4,246.1c0.2-0.1,0.4-0.2,0.6-0.3c0.8-0.4,1.5-0.6,2.4-0.9c0.8-0.2,1.6-0.4,2.4-0.5
			c0.7-0.1,1.4-0.1,2.1-0.1c0.8,0,1.5,0.1,2.3,0.3c0.6,0.1,1.2,0.3,1.7,0.6c0.7,0.3,1.4,0.7,2,1.3c0.3,0.3,0.6,0.6,0.9,0.9
			c0.2,0.3,0.4,0.5,0.5,0.8"/>
		<path id="path3028" class="st0" d="M309.2,248.9c0-0.4,0-0.8,0-1.1c0-0.2,0.1-0.2,0.2-0.2c0.2,0,0.4,0,0.6,0
			c0.2,0,0.2,0.1,0.2,0.2c0,0.2,0,0.5,0,0.7c0,0.2,0.1,0.2,0.2,0.2c34.2,0.3,68.5,0.6,102.7,1"/>
		<path id="path3030" class="st0" d="M307.1,248.1c0.5,1,2.1,0.6,2.1-0.5"/>
		<path id="path3032" class="st0" d="M309.2,251.1c0,0.4,0,0.8,0,1.1c0,0.2,0.1,0.2,0.2,0.2c0.2,0,0.4,0,0.6,0
			c0.2,0,0.2-0.1,0.2-0.2c0-0.2,0-0.5,0-0.7c0-0.2,0.1-0.2,0.2-0.2c34.2-0.3,68.5-0.6,102.7-1"/>
		<path id="path3034" class="st0" d="M308,252.3c0.1-0.8,1.2-0.8,1.2,0"/>
		<path id="path3036" class="st0" d="M413.2,249.7c0.4,0,0.4,0.7,0,0.7"/>
		<path id="path3038" class="st0" d="M282.4,251.9c0.1,0,0.3-0.1,0.4-0.1c0.4-0.1,0.8-0.3,1.2-0.4c0.5-0.2,0.9-0.4,1.3-0.7
			c0.3-0.2,0.5-0.3,0.8-0.5c0.3-0.2,0.6-0.4,0.9-0.6c0.4-0.3,0.8-0.6,1.3-0.9"/>
		<path id="path3040" class="st0" d="M292.6,249.5c0.2-0.1,0.3-0.2,0.5-0.3c2.2-1.2,4.4-1.8,6.4-1.8c1.8,0,3.3,0.5,4.3,1.4"/>
		<path id="path3042" class="st0" d="M288.3,248.7c0.5-0.4,0.8-0.8,1-1.5"/>
		<path id="path3044" class="st0" d="M289.3,247.2c0.2-1.1,0-2.2-0.3-2.8"/>
		<path id="path3046" class="st0" d="M289,244.3c-0.3-0.6,0.1-1,0.7-0.8"/>
		<path id="path3048" class="st0" d="M289.6,243.5c1,0.4,1.7,1.1,2,2.2"/>
		<path id="path3050" class="st0" d="M292.4,246.1c-0.4,0.2-0.7,0.1-0.8-0.4"/>
		<path id="path3052" class="st0" d="M292.5,250.4c-0.4-0.3-0.4-0.7,0-0.9"/>
		<path id="path3054" class="st0" d="M293.8,252.9c0-1-0.4-1.9-1.3-2.5"/>
		<path id="path3056" class="st0" d="M292.8,253.3c0.4,0.5,1,0.3,1-0.4"/>
		<path id="path3058" class="st0" d="M290,252c1.3,0.1,2.3,0.7,2.8,1.3"/>
		<path id="path3060" class="st0" d="M290,252c-0.6,0-1.1,0.1-1.6,0.4"/>
		<path id="path3062" class="st0" d="M307.4,255.1c-0.8,2.4-4,3.1-5.7,1.3c-1.8-1.9-0.9-5,1.6-5.6"/>
		<path id="path3064" class="st0" d="M280.2,248.3c-1.3,1.7,0.2,4.1,2.3,3.6"/>
		<path id="path3066" class="st0" d="M303.8,248.8c0.6,0.6,0.4,1.7-0.5,1.9"/>
	</g>
	<g>
		<path id="path3004_1_" class="st0" d="M211.4,252.4c0.5,0.4,1.1,0.7,1.6,1c2,1.2,3.8,1.6,5.5,1.7c1.7,0.1,3.3-0.2,4.6-0.9
			c0.9-0.5,1.7-1.2,2.3-2.2"/>
		<path id="path3006_1_" class="st0" d="M225.4,244.9c-0.1-0.2-0.3-0.4-0.4-0.6"/>
		<path id="path3008_1_" class="st0" d="M225.4,252.1c0.2-0.4,0.7-0.3,0.7,0.2"/>
		<path id="path3010_1_" class="st0" d="M228.3,254.2c0,1.4,0,2.8,0,4.2c0,0.3-0.1,0.5-0.5,0.5c-0.4,0-0.8,0-1.2,0
			c-0.3,0-0.5-0.1-0.5-0.5c0-2.1,0-4.1,0-6.2"/>
		<path id="path3012_1_" class="st0" d="M228.3,245.8c0-1.4,0-2.8,0-4.2c0-0.3-0.1-0.5-0.5-0.5c-0.4,0-0.8,0-1.2,0
			c-0.3,0-0.5,0.1-0.5,0.5c0,1.1,0,2.1,0,3.2"/>
		<path id="path3014_1_" class="st0" d="M226.1,244.7c0,0.5-0.5,0.6-0.7,0.2"/>
		<path id="path3016_1_" class="st0" d="M225,244.3c-2.6-3.6-8.1,0.5-5.3,4"/>
		<path id="path3024_1_" class="st0" d="M192.4,255.1c-0.3-0.8-0.4-1.5-0.5-2.3c0-0.1,0-0.3,0-0.4"/>
		<path id="path3026_1_" class="st0" d="M192.6,248.1c0.2-0.3,0.3-0.6,0.5-0.8c0.3-0.3,0.5-0.6,0.9-0.9c0.6-0.5,1.3-1,2-1.3
			c0.6-0.2,1.1-0.4,1.7-0.6c0.7-0.2,1.5-0.3,2.3-0.3c0.7,0,1.4,0,2.1,0.1c0.8,0.1,1.6,0.3,2.4,0.5c0.8,0.2,1.6,0.5,2.4,0.9
			c0.2,0.1,0.4,0.2,0.6,0.3"/>
		<path id="path3028_1_" class="st0" d="M86.6,249.7c34.2-0.3,68.5-0.6,102.7-1c0.2,0,0.2-0.1,0.2-0.2c0-0.2,0-0.5,0-0.7
			c0-0.2,0.1-0.2,0.2-0.2c0.2,0,0.4,0,0.6,0c0.2,0,0.2,0.1,0.2,0.2c0,0.4,0,0.8,0,1.1"/>
		<path id="path3030_1_" class="st0" d="M190.6,247.6c0,1.1,1.5,1.5,2.1,0.5"/>
		<path id="path3032_1_" class="st0" d="M86.6,250.3c34.2,0.3,68.5,0.6,102.7,1c0.2,0,0.2,0.1,0.2,0.2c0,0.2,0,0.5,0,0.7
			c0,0.2,0.1,0.2,0.2,0.2c0.2,0,0.4,0,0.6,0c0.2,0,0.2-0.1,0.2-0.2c0-0.4,0-0.8,0-1.1"/>
		<path id="path3034_1_" class="st0" d="M190.6,252.4c0-0.8,1.2-0.9,1.2,0"/>
		<path id="path3036_1_" class="st0" d="M86.6,250.3c-0.4,0-0.4-0.7,0-0.7"/>
		<path id="path3038_1_" class="st0" d="M211.5,248.7c0.4,0.3,0.8,0.6,1.3,0.9c0.3,0.2,0.6,0.4,0.9,0.6c0.3,0.2,0.5,0.3,0.8,0.5
			c0.4,0.3,0.9,0.5,1.3,0.7c0.4,0.2,0.8,0.3,1.2,0.4c0.1,0,0.3,0.1,0.4,0.1"/>
		<path id="path3040_1_" class="st0" d="M196,248.8c1-0.9,2.6-1.4,4.3-1.4c2,0,4.2,0.6,6.4,1.8c0.2,0.1,0.3,0.2,0.5,0.3"/>
		<path id="path3042_1_" class="st0" d="M210.5,247.2c0.1,0.7,0.4,1.1,1,1.5"/>
		<path id="path3044_1_" class="st0" d="M210.8,244.3c-0.4,0.6-0.6,1.7-0.3,2.8"/>
		<path id="path3046_1_" class="st0" d="M210.2,243.5c0.6-0.2,1,0.2,0.7,0.8"/>
		<path id="path3048_1_" class="st0" d="M208.2,245.7c0.3-1,1-1.8,2-2.2"/>
		<path id="path3050_1_" class="st0" d="M208.2,245.7c-0.1,0.5-0.4,0.6-0.8,0.4"/>
		<path id="path3052_1_" class="st0" d="M207.2,249.5c0.5,0.3,0.5,0.6,0,0.9"/>
		<path id="path3054_1_" class="st0" d="M207.3,250.4c-0.8,0.6-1.3,1.5-1.3,2.5"/>
		<path id="path3056_1_" class="st0" d="M206,252.9c0,0.7,0.6,0.9,1,0.4"/>
		<path id="path3058_1_" class="st0" d="M207,253.3c0.5-0.6,1.5-1.2,2.8-1.3"/>
		<path id="path3060_1_" class="st0" d="M211.4,252.4c-0.5-0.4-1-0.5-1.6-0.4"/>
		<path id="path3062_1_" class="st0" d="M196.5,250.7c2.5,0.7,3.4,3.8,1.6,5.6c-1.8,1.9-4.9,1.2-5.7-1.3"/>
		<path id="path3064_1_" class="st0" d="M217.4,251.9c2.1,0.4,3.6-2,2.3-3.6"/>
		<path id="path3066_1_" class="st0" d="M196.5,250.7c-0.9-0.2-1.1-1.3-0.5-1.9"/>
	</g>
</g>
</svg>
