<?xml version="1.0" encoding="utf-8"?>
<!-- Generator: Adobe Illustrator 22.1.0, SVG Export Plug-In . SVG Version: 6.00 Build 0)  -->
<svg version="1.1" id="compass-bg" xmlns="http://www.w3.org/2000/svg" xmlns:xlink="http://www.w3.org/1999/xlink" x="0px" y="0px"
	 viewBox="0 0 512 512" style="enable-background:new 0 0 512 512;" xml:space="preserve">
<style type="text/css">
	.st0{fill-rule:evenodd;clip-rule:evenodd;fill:#aaa;}
	.st1{fill-rule:evenodd;clip-rule:evenodd;fill:#eee;}
	.st2{fill-rule:evenodd;clip-rule:evenodd;fill:#999;}
</style>
<path class="st0" d="M255.7,103.8c84,0,152.1,68.1,152.1,152.1c0,84-68.1,152.1-152.1,152.1s-152.1-68.1-152.1-152.1
	C103.5,171.9,171.7,103.8,255.7,103.8 M255.7,101.5c85.3,0,154.4,69.1,154.4,154.4S341,410.3,255.7,410.3
	c-85.3,0-154.4-69.1-154.4-154.4S170.4,101.5,255.7,101.5z"/>
<path class="st0" d="M255.7,404.6c-82,0-148.7-66.7-148.7-148.7c0-82,66.7-148.7,148.7-148.7c82,0,148.7,66.7,148.7,148.7
	C404.4,337.9,337.7,404.6,255.7,404.6 M255.7,118.7c-75.6,0-137.2,61.5-137.2,137.2c0,75.6,61.5,137.2,137.2,137.2
	c75.6,0,137.2-61.5,137.2-137.2S331.3,118.7,255.7,118.7z"/>
<path id="XMLID_300_" class="st1" d="M147.9,154c1.9-2,3.9-4,5.9-5.9l7.8,7.8c-2,1.9-4,3.9-5.9,5.9L147.9,154z"/>
<path id="XMLID_299_" class="st1" d="M384.5,208.1c-0.9-2.4-1.9-4.9-3.2-7.7l10.2-4.1c1.2,2.8,2.3,5.3,3.2,7.7L384.5,208.1z"/>
<path id="XMLID_298_" class="st1" d="M393,260.1l0-0.8c0-1.1,0.1-2.3,0.1-3.4c0-1.1,0-2.3-0.1-3.4l0-0.7h11l0,1.1
	c0,1,0.1,2.1,0.1,3.1c0,1,0,2.1-0.1,3.1l0,1.1H393z"/>
<path id="XMLID_297_" class="st1" d="M312.9,131c-2.5-1.2-5.1-2.2-7.7-3.2l4.3-10.1c2.6,1,5.2,2.1,7.7,3.2L312.9,131z"/>
<path id="XMLID_296_" class="st1" d="M107.4,260.1l0-1.1c0-1-0.1-2.1-0.1-3.1c0-1,0-2.1,0.1-3.1l0-1.1h11l0,0.7
	c0,1.2-0.1,2.3-0.1,3.5c0,1.2,0,2.3,0.1,3.5l0,0.7H107.4z"/>
<path id="XMLID_295_" class="st1" d="M153.8,363.7c-2-1.9-4-3.9-5.9-5.9l7.8-7.8c1.9,2,3.9,4,5.9,5.9L153.8,363.7z"/>
<path id="XMLID_294_" class="st1" d="M303.5,384.7c2.4-0.9,4.9-1.9,7.7-3.2l4.1,10.2c-2.8,1.2-5.3,2.3-7.7,3.2L303.5,384.7z"/>
<path id="XMLID_293_" class="st1" d="M255.7,404.3c-1.1,0-2.2,0-3.3-0.1l-0.9,0v-11l0.6,0c1.2,0,2.4,0.1,3.6,0.1
	c1.2,0,2.4,0,3.6-0.1l0.6,0v11l-0.9,0C257.9,404.3,256.8,404.3,255.7,404.3"/>
<path id="XMLID_292_" class="st1" d="M201.8,394.2c-2.6-1-5.2-2.1-7.7-3.2l4.3-10.1c2.5,1.2,5.1,2.3,7.7,3.2L201.8,394.2z"/>
<path id="XMLID_291_" class="st1" d="M251.5,107.6l1,0c1.1,0,2.1-0.1,3.2-0.1c1.1,0,2.1,0,3.2,0.1l1,0v11l-0.6,0
	c-1.2,0-2.4-0.1-3.6-0.1c-1.2,0-2.4,0-3.6,0.1l-0.6,0V107.6z"/>
<path id="XMLID_290_" class="st1" d="M380.6,313.2c1.2-2.5,2.2-5.1,3.3-7.7l10.1,4.3c-1,2.6-2.1,5.2-3.2,7.7L380.6,313.2z"/>
<path id="XMLID_289_" class="st1" d="M196,120c2.8-1.2,5.3-2.3,7.7-3.2l4.1,10.2c-2.4,0.9-4.9,1.9-7.7,3.2L196,120z"/>
<path id="XMLID_288_" class="st1" d="M117.4,202c1-2.6,2.1-5.2,3.2-7.7l10.1,4.3c-1.2,2.5-2.2,5.1-3.2,7.7L117.4,202z"/>
<path id="XMLID_287_" class="st1" d="M119.8,315.6c-1.2-2.8-2.3-5.3-3.2-7.7l10.2-4.1c0.9,2.4,1.9,4.9,3.2,7.7L119.8,315.6z"/>
<path class="st0" d="M255.7,134c67.3,0,121.9,54.6,121.9,121.9c0,67.3-54.6,121.9-121.9,121.9c-67.3,0-121.9-54.6-121.9-121.9
	C133.8,188.6,188.4,134,255.7,134 M255.7,129.1c70,0,126.8,56.8,126.8,126.8s-56.8,126.8-126.8,126.8c-70,0-126.8-56.8-126.8-126.8
	S185.7,129.1,255.7,129.1z"/>
<path class="st0" d="M255.7,188.6c37.2,0,67.3,30.1,67.3,67.3s-30.1,67.3-67.3,67.3c-37.2,0-67.3-30.1-67.3-67.3
	S218.5,188.6,255.7,188.6 M255.7,185.9c38.7,0,70,31.4,70,70c0,38.7-31.4,70-70,70c-38.7,0-70-31.4-70-70
	C185.6,217.2,217,185.9,255.7,185.9z"/>
<path class="st0" d="M255.7,172.5c46.1,0,83.4,37.3,83.4,83.4c0,46.1-37.3,83.4-83.4,83.4c-46.1,0-83.4-37.3-83.4-83.4
	C172.3,209.8,209.6,172.5,255.7,172.5 M255.7,169.2c47.9,0,86.7,38.8,86.7,86.7c0,47.9-38.8,86.7-86.7,86.7s-86.7-38.8-86.7-86.7
	C168.9,208,207.8,169.2,255.7,169.2z"/>
<path id="XMLID_280_" class="st1" d="M358.5,159.1c-2-2.1-4-4.1-6.1-6.1l8-8c2,1.9,4.1,4,6.1,6.1L358.5,159.1z"/>
<path id="XMLID_279_" class="st1" d="M352.5,358.7c2.1-2,4.1-4,6.1-6.1l8,8c-1.9,2.1-4,4.1-6.1,6.1L352.5,358.7z"/>
<rect id="XMLID_278_" x="254.3" y="170.3" transform="matrix(0.3827 -0.9239 0.9239 0.3827 -78.5885 394.1888)" class="st0" width="2.8" height="171.2"/>
<rect id="XMLID_277_" x="170.1" y="254.5" transform="matrix(0.3827 -0.9239 0.9239 0.3827 -78.5887 394.1888)" class="st0" width="171.2" height="2.8"/>
<rect id="XMLID_276_" x="170.1" y="254.5" transform="matrix(0.9239 -0.3827 0.3827 0.9239 -78.4691 117.3293)" class="st0" width="171.2" height="2.8"/>
<rect id="XMLID_275_" x="254.3" y="170.3" transform="matrix(0.9239 -0.3827 0.3827 0.9239 -78.4672 117.3248)" class="st0" width="2.8" height="171.2"/>
<polygon id="XMLID_274_" class="st1" points="256.1,226.3 321.1,189.4 256.4,254 "/>
<path class="st0" d="M316.4,192.9l-59.2,59.2l-0.3-25.4L316.4,192.9z M325.7,185.9l-70.5,40l0.4,30L325.7,185.9z"/>
<polygon id="XMLID_271_" class="st0" points="325.7,185.9 255.7,255.9 285.7,256.3 "/>
<polygon id="XMLID_270_" class="st1" points="254.9,257.8 255.3,285.5 190.3,322.4 "/>
<path class="st0" d="M254.2,259.6l0.3,25.4l-59.6,33.8L254.2,259.6z M255.7,255.9l-70,70l70.4-40L255.7,255.9z"/>
<polygon id="XMLID_267_" class="st0" points="185.6,325.9 255.7,255.9 225.6,255.5 "/>
<polygon id="XMLID_266_" class="st1" points="257.6,256.7 285.3,257.1 322.1,321.2 "/>
<path class="st0" d="M259.5,257.5l25.3,0.4l33.7,58.6L259.5,257.5z M255.7,255.9l70,70l-40-69.6L255.7,255.9z"/>
<polygon id="XMLID_263_" class="st0" points="325.7,326 255.7,255.9 256.1,285.9 "/>
<polygon id="XMLID_262_" class="st1" points="226.1,254.7 189.2,190.6 253.8,255.1 "/>
<path class="st0" d="M192.9,195.3l59,59l-25.3-0.4L192.9,195.3z M185.6,185.9l40,69.6l30,0.4L185.6,185.9z"/>
<polygon id="XMLID_259_" class="st0" points="185.7,185.9 255.7,255.9 255.3,225.9 "/>
<path class="st2" d="M253.8,151.8v99.7l-21.7-21.1L253.8,151.8z M255.7,138L230.1,231l25.6,24.9V138z"/>
<polygon id="XMLID_256_" class="st2" points="255.7,138 255.7,255.9 281.3,231 "/>
<path class="st2" d="M257.6,260.3l21.7,21.1L257.6,360V260.3z M255.7,255.9v117.9l25.6-92.9L255.7,255.9z"/>
<polygon id="XMLID_253_" class="st2" points="255.7,373.8 255.7,255.9 230.1,280.8 "/>
<path class="st2" d="M281.8,233.1l77.7,21h-99.3L281.8,233.1z M281.3,231l-25.6,24.9h117.9L281.3,231z"/>
<polygon id="XMLID_250_" class="st2" points="373.5,255.9 255.7,255.9 281.3,280.8 "/>
<path class="st2" d="M251.1,257.8l-21.6,21l-77.7-21H251.1z M255.7,255.9H137.8l92.2,24.9L255.7,255.9z"/>
<polygon id="XMLID_247_" class="st2" points="137.8,255.9 255.7,255.9 230.1,231 "/>
<polygon id="XMLID_246_" class="st1" points="231.1,230.7 254.7,144.9 254.7,253.7 "/>
<path class="st0" d="M253.8,151.8v99.7l-21.7-21.1L253.8,151.8z M255.7,138L230.1,231l25.6,24.9V138z"/>
<polygon id="XMLID_243_" class="st0" points="255.7,138 255.7,255.9 281.3,231 "/>
<polygon id="XMLID_242_" class="st1" points="256.6,258.1 280.3,281.1 256.6,366.9 "/>
<path class="st0" d="M257.6,260.3l21.7,21.1L257.6,360V260.3z M255.7,255.9v117.9l25.6-92.9L255.7,255.9z"/>
<polygon id="XMLID_239_" class="st0" points="255.7,373.8 255.7,255.9 230.1,280.8 "/>
<polygon id="XMLID_238_" class="st1" points="258,255 281.6,232 366.5,255 "/>
<path class="st0" d="M281.8,233.1l77.7,21h-99.3L281.8,233.1z M281.3,231l-25.6,24.9h117.9L281.3,231z"/>
<polygon id="XMLID_235_" class="st0" points="373.5,255.9 255.7,255.9 281.3,280.8 "/>
<polygon id="XMLID_234_" class="st1" points="144.8,256.9 253.4,256.9 229.8,279.8 "/>
<path class="st0" d="M251.1,257.8l-21.6,21l-77.7-21H251.1z M255.7,255.9H137.8l92.2,24.9L255.7,255.9z"/>
<polygon id="XMLID_231_" class="st0" points="137.8,255.9 255.7,255.9 230.1,231 "/>
</svg>
