<?xml version="1.0" encoding="utf-8"?>
<!-- Generator: Adobe Illustrator 22.1.0, SVG Export Plug-In . SVG Version: 6.00 Build 0)  -->
<svg version="1.1" xmlns="http://www.w3.org/2000/svg" xmlns:xlink="http://www.w3.org/1999/xlink" x="0px" y="0px"
	 viewBox="0 0 500 500" style="enable-background:new 0 0 500 500;" xml:space="preserve">
<style type="text/css">
	.st0{display:none;}
	.st1{fill:none;stroke:#D65C1B;stroke-width:0.6644;stroke-linecap:round;stroke-linejoin:round;}
	.st2{fill:none;stroke:#95621A;stroke-width:1.3288;stroke-linecap:round;stroke-linejoin:round;}
	.st3{fill:#95621A;}
	.st4{fill:none;stroke:#D65C1B;stroke-width:1.3288;}
	.st5{fill:#D65C1B;}
	.st6{fill:none;stroke:#D65C1B;stroke-width:0.4934;stroke-linecap:round;stroke-linejoin:round;}
	.st7{fill:none;stroke:#95621A;stroke-width:0.9868;stroke-linecap:round;stroke-linejoin:round;}
	.st8{fill:none;stroke:#D65C1B;stroke-width:0.9868;}
	.st9{fill:none;stroke:#D65C1B;stroke-width:0.4858;stroke-linecap:round;stroke-linejoin:round;}
	.st10{fill:none;stroke:#95621A;stroke-width:0.9716;stroke-linecap:round;stroke-linejoin:round;}
	.st11{fill:none;stroke:#D65C1B;stroke-width:0.9716;}
</style>
<g id="compasssvg1" class="st0">
	
</g>
<g id="compasssvg2">
	<g>
		<g>
			<polyline class="st1" points="349.1,206 250,11.1 128.4,250.1 250,488.1 349,294.3"/>
			<g>
				<g>
					<polyline class="st2" points="361.3,244.3 332.1,186.8 250,25.4 135.7,250.1 250,473.8 331.9,313.4 361.3,255.9"/>
					<g>
						<path class="st3" d="M363.1,243.3c0.5,1,0.1,2.2-0.9,2.7c-1,0.5-2.2,0.1-2.7-0.9c-0.5-1-0.1-2.2,0.9-2.7
							C361.4,242,362.6,242.4,363.1,243.3z"/>
					</g>
					<g>
						<path class="st3" d="M363,256.9c0.5-1,0.1-2.2-0.9-2.7s-2.2-0.1-2.7,0.9c-0.5,1-0.1,2.2,0.9,2.7S362.5,257.9,363,256.9z"/>
					</g>
				</g>
			</g>
			<g>
				<g>
					<path class="st4" d="M360.9,222.3l-1.5-0.4c-25.6-7.4-39.3,43.3-24.5,26.3c13.2-15.2,2.7-36.4,2.7-36.4L250,39.8L143,250.1
						l107,209.4l87.4-171.1c0,0,10.6-21.1-2.6-36.4c-14.7-17-1.2,33.7,24.5,26.4l1.5-0.4"/>
					<g>
						<path class="st5" d="M367.1,224.1c-2.6-1.9-5.7-4.8-7.3-7.4l0.4,5.4l-3.2,4.4C359.8,225.2,363.9,224.4,367.1,224.1z"/>
					</g>
					<g>
						<path class="st5" d="M367.1,276.2c-2.6,1.9-5.7,4.8-7.3,7.4l0.4-5.4l-3.1-4.4C359.7,275.1,363.8,275.9,367.1,276.2z"/>
					</g>
				</g>
			</g>
		</g>
	</g>
	<g>
		<g>
			<line class="st6" x1="451" y1="238.6" x2="49" y2="238.6"/>
			<g>
				<g>
					<polyline class="st7" points="480.6,243.5 432.6,243.5 67.4,243.5 19.4,243.5 					"/>
					<g>
						<path class="st3" d="M480.5,242c0.8,0,1.5,0.7,1.5,1.5s-0.7,1.5-1.5,1.5c-0.8,0-1.5-0.7-1.5-1.5S479.7,242,480.5,242z"/>
					</g>
					<g>
						<path class="st3" d="M19.5,242c-0.8,0-1.5,0.7-1.5,1.5s0.7,1.5,1.5,1.5c0.8,0,1.5-0.7,1.5-1.5S20.3,242,19.5,242z"/>
					</g>
				</g>
			</g>
			<g>
				<g>
					<path class="st8" d="M465.9,236.3l-0.8,0.9c-13.5,14.5,15.5,40.6,9.2,25.1c-5.6-13.9-23.2-14-23.2-14H49c0,0-17.5,0.1-23.2,14
						c-6.3,15.4,22.7-10.6,9.2-25.1l-0.8-0.9"/>
					<g>
						<path class="st5" d="M469.1,232.8c-2.1,1.1-5.1,2.1-7.3,2.4l3.7,1.6l1.8,3.6C467.3,238.1,468.2,235,469.1,232.8z"/>
					</g>
					<g>
						<path class="st5" d="M30.9,232.8c2.1,1.1,5.1,2.1,7.3,2.4l-3.7,1.6l-1.8,3.6C32.7,238.1,31.8,235,30.9,232.8z"/>
					</g>
				</g>
			</g>
		</g>
	</g>
	<g>
		<g>
			<g>
				<polyline class="st9" points="209.1,154 209.1,172.1 209.1,185.1 209.1,203.2 				"/>
				<g>
					<g>
						<polyline class="st10" points="213.9,124.9 213.9,172.1 213.9,185.1 213.9,232.3 						"/>
						<g>
							<path class="st3" d="M212.4,125c0-0.8,0.7-1.5,1.5-1.5s1.5,0.7,1.5,1.5c0,0.8-0.7,1.5-1.5,1.5S212.4,125.8,212.4,125z"/>
						</g>
						<g>
							<path class="st3" d="M212.4,232.2c0,0.8,0.7,1.5,1.5,1.5s1.5-0.7,1.5-1.5c0-0.8-0.7-1.5-1.5-1.5S212.4,231.4,212.4,232.2z"/>
						</g>
					</g>
				</g>
				<g>
					<g>
						<path class="st11" d="M206.8,139.4l0.9,0.8c14.3,13.3,39.9-15.2,24.7-9c-13.7,5.5-13.8,22.8-13.8,22.8v18.1v13v18.1
							c0,0,0.1,17.3,13.8,22.8c15.2,6.2-10.5-22.4-24.7-9l-0.9,0.8"/>
						<g>
							<path class="st5" d="M203.4,136.2c1.1,2.1,2.1,5,2.3,7.2l1.5-3.6l3.5-1.8C208.5,137.9,205.6,137.1,203.4,136.2z"/>
						</g>
						<g>
							<path class="st5" d="M203.4,221c1.1-2.1,2.1-5,2.3-7.2l1.5,3.6l3.5,1.8C208.5,219.3,205.6,220.1,203.4,221z"/>
						</g>
					</g>
				</g>
			</g>
		</g>
		<g>
			<g>
				<polyline class="st9" points="225.2,155.7 234,171.6 246.1,193.5 254.9,209.4 				"/>
				<g>
					<g>
						<polyline class="st10" points="215.4,127.9 238.2,169.3 250.3,191.2 273,232.5 						"/>
						<g>
							<path class="st3" d="M214.1,128.7c-0.4-0.7-0.1-1.6,0.6-2s1.6-0.1,2,0.6c0.4,0.7,0.1,1.6-0.6,2S214.5,129.4,214.1,128.7z"/>
						</g>
						<g>
							<path class="st3" d="M271.7,233.1c0.4,0.7,1.3,1,2,0.6c0.7-0.4,1-1.3,0.6-2c-0.4-0.7-1.3-1-2-0.6
								C271.6,231.5,271.3,232.4,271.7,233.1z"/>
						</g>
					</g>
				</g>
				<g>
					<g>
						<path class="st11" d="M216.2,144l1.1,0.3c18.9,4.8,27.6-32.6,17.3-19.8c-9.3,11.5-1.1,26.6-1.1,26.6l8.8,15.9l12.1,21.9
							l8.8,15.9c0,0,8.5,15.1,23.1,13.3c16.3-1.9-20-14.5-26,4l-0.4,1.1"/>
						<g>
							<path class="st5" d="M211.6,142.8c1.9,1.3,4.3,3.4,5.5,5.2l-0.4-3.9l2.2-3.3C217,141.9,214,142.6,211.6,142.8z"/>
						</g>
						<g>
							<path class="st5" d="M258.4,227.7c-0.1-2.4-0.6-5.4-1.4-7.5l3.1,2.4l3.9-0.1C262.1,223.7,259.9,225.8,258.4,227.7z"/>
						</g>
					</g>
				</g>
			</g>
		</g>
		<g>
			<g>
				<polyline class="st9" points="290.1,200.1 290.1,181.9 290.1,172.1 290.1,154 				"/>
				<g>
					<g>
						<polyline class="st10" points="285.3,229.1 285.3,181.9 285.3,172.1 285.3,124.9 						"/>
						<g>
							<path class="st3" d="M286.8,229.1c0,0.8-0.7,1.5-1.5,1.5c-0.8,0-1.5-0.7-1.5-1.5c0-0.8,0.7-1.5,1.5-1.5
								C286.1,227.6,286.8,228.3,286.8,229.1z"/>
						</g>
						<g>
							<path class="st3" d="M286.8,125c0-0.8-0.7-1.5-1.5-1.5c-0.8,0-1.5,0.7-1.5,1.5c0,0.8,0.7,1.5,1.5,1.5
								C286.1,126.4,286.8,125.8,286.8,125z"/>
						</g>
					</g>
				</g>
				<g>
					<g>
						<path class="st11" d="M292.4,214.7l-0.9-0.8c-14.3-13.3-39.9,15.2-24.7,9c13.7-5.5,13.8-22.8,13.8-22.8v-18.1v-9.8V154
							c0,0-0.1-17.3-13.8-22.8c-15.2-6.2,10.5,22.4,24.7,9l0.9-0.8"/>
						<g>
							<path class="st5" d="M295.8,217.9c-1.1-2.1-2.1-5-2.3-7.2l-1.5,3.6l-3.5,1.8C290.7,216.1,293.6,217,295.8,217.9z"/>
						</g>
						<g>
							<path class="st5" d="M295.8,136.2c-1.1,2.1-2.1,5-2.3,7.2l-1.5-3.6l-3.5-1.8C290.7,137.9,293.6,137.1,295.8,136.2z"/>
						</g>
					</g>
				</g>
			</g>
		</g>
	</g>
</g>
</svg>
