<?xml version="1.0" encoding="utf-8"?> <svg version="1.1" xmlns="http://www.w3.org/2000/svg" xmlns:xlink="http://www.w3.org/1999/xlink" x="0px" y="0px" viewBox="0 0 64 64" style="enable-background:new 0 0 64 64;" xml:space="preserve"> <g id="VESICULA"> <g> <g> <path class="st2" d="M23.1,15.4c9.2,0,16.6,7.5,16.6,16.6s-7.5,16.6-16.6,16.6S6.4,41.2,6.4,32S13.9,15.4,23.1,15.4 M23.1,14.4 c-9.7,0-17.6,7.9-17.6,17.6s7.9,17.6,17.6,17.6S40.7,41.7,40.7,32S32.8,14.4,23.1,14.4L23.1,14.4z"/> </g> <g> <path class="st2" d="M40.2,15.4c9.2,0,16.6,7.5,16.6,16.6s-7.5,16.6-16.6,16.6S23.6,41.2,23.6,32S31,15.4,40.2,15.4 M40.2,14.4 c-9.7,0-17.6,7.9-17.6,17.6s7.9,17.6,17.6,17.6S57.8,41.7,57.8,32S49.9,14.4,40.2,14.4L40.2,14.4z"/> </g> </g> </g> </svg>
